{
	"patcher" : 	{
		"fileversion" : 1,
		"appversion" : 		{
			"major" : 7,
			"minor" : 2,
			"revision" : 5,
			"architecture" : "x86",
			"modernui" : 1
		}
,
		"rect" : [ 34.0, 235.0, 801.0, 833.0 ],
		"bgcolor" : [ 0.8, 0.8, 1.0, 1.0 ],
		"bglocked" : 0,
		"openinpresentation" : 1,
		"default_fontsize" : 12.0,
		"default_fontface" : 0,
		"default_fontname" : "Arial",
		"gridonopen" : 1,
		"gridsize" : [ 15.0, 15.0 ],
		"gridsnaponopen" : 1,
		"objectsnaponopen" : 1,
		"statusbarvisible" : 2,
		"toolbarvisible" : 1,
		"lefttoolbarpinned" : 0,
		"toptoolbarpinned" : 0,
		"righttoolbarpinned" : 0,
		"bottomtoolbarpinned" : 0,
		"toolbars_unpinned_last_save" : 0,
		"tallnewobj" : 0,
		"boxanimatetime" : 200,
		"enablehscroll" : 1,
		"enablevscroll" : 1,
		"devicewidth" : 0.0,
		"description" : "",
		"digest" : "",
		"tags" : "",
		"style" : "",
		"subpatcher_template" : "",
		"boxes" : [ 			{
				"box" : 				{
					"id" : "obj-5",
					"maxclass" : "newobj",
					"numinlets" : 0,
					"numoutlets" : 1,
					"outlettype" : [ "" ],
					"patching_rect" : [ 683.0, 580.0, 84.0, 22.0 ],
					"style" : "",
					"text" : "r getReceives"
				}

			}
, 			{
				"box" : 				{
					"id" : "obj-16",
					"maxclass" : "newobj",
					"numinlets" : 1,
					"numoutlets" : 0,
					"patching_rect" : [ 683.0, 746.0, 59.0, 22.0 ],
					"style" : "",
					"text" : "s rDataIn"
				}

			}
, 			{
				"box" : 				{
					"id" : "obj-30",
					"linecount" : 3,
					"maxclass" : "message",
					"numinlets" : 2,
					"numoutlets" : 1,
					"outlettype" : [ "" ],
					"patching_rect" : [ 683.0, 658.5, 110.0, 49.0 ],
					"style" : "",
					"text" : "delayVol delayMix delayTime delayFeedback"
				}

			}
, 			{
				"box" : 				{
					"id" : "obj-31",
					"maxclass" : "newobj",
					"numinlets" : 0,
					"numoutlets" : 1,
					"outlettype" : [ "" ],
					"patching_rect" : [ 683.0, 615.0, 115.0, 22.0 ],
					"style" : "",
					"text" : "r delayGetReceives"
				}

			}
, 			{
				"box" : 				{
					"id" : "obj-146",
					"maxclass" : "message",
					"numinlets" : 2,
					"numoutlets" : 1,
					"outlettype" : [ "" ],
					"patching_rect" : [ 524.0, 326.0, 34.0, 22.0 ],
					"style" : "",
					"text" : "write"
				}

			}
, 			{
				"box" : 				{
					"id" : "obj-145",
					"maxclass" : "message",
					"numinlets" : 2,
					"numoutlets" : 1,
					"outlettype" : [ "" ],
					"patching_rect" : [ 563.5, 326.0, 33.5, 22.0 ],
					"style" : "",
					"text" : "read"
				}

			}
, 			{
				"box" : 				{
					"id" : "obj-139",
					"maxclass" : "newobj",
					"numinlets" : 2,
					"numoutlets" : 2,
					"outlettype" : [ "bang", "" ],
					"patching_rect" : [ 563.5, 292.0, 36.0, 22.0 ],
					"style" : "",
					"text" : "sel 0"
				}

			}
, 			{
				"box" : 				{
					"id" : "obj-140",
					"maxclass" : "newobj",
					"numinlets" : 2,
					"numoutlets" : 2,
					"outlettype" : [ "bang", "" ],
					"patching_rect" : [ 524.0, 292.0, 36.0, 22.0 ],
					"style" : "",
					"text" : "sel 0"
				}

			}
, 			{
				"box" : 				{
					"frames" : 1,
					"id" : "obj-141",
					"maxclass" : "pictctrl",
					"multiplier" : 1,
					"name" : "read01.png",
					"numinlets" : 1,
					"numoutlets" : 1,
					"outlettype" : [ "int" ],
					"parameter_enable" : 0,
					"patching_rect" : [ 549.0, 259.5, 16.0, 16.0 ],
					"presentation" : 1,
					"presentation_rect" : [ 123.0, 122.0, 16.0, 16.0 ],
					"range" : 201,
					"threshold" : 0.94,
					"trackhorizontal" : 1,
					"tracking" : 1,
					"trackvertical" : 1,
					"varname" : "pictctrl[2]"
				}

			}
, 			{
				"box" : 				{
					"frames" : 1,
					"id" : "obj-142",
					"maxclass" : "pictctrl",
					"multiplier" : 1,
					"name" : "write01.png",
					"numinlets" : 1,
					"numoutlets" : 1,
					"outlettype" : [ "int" ],
					"parameter_enable" : 0,
					"patching_rect" : [ 524.0, 258.0, 16.0, 16.0 ],
					"presentation" : 1,
					"presentation_rect" : [ 123.0, 138.0, 16.0, 16.0 ],
					"range" : 201,
					"threshold" : 0.94,
					"trackhorizontal" : 1,
					"tracking" : 1,
					"trackvertical" : 1,
					"varname" : "pictctrl[3]"
				}

			}
, 			{
				"box" : 				{
					"id" : "obj-14",
					"maxclass" : "newobj",
					"numinlets" : 1,
					"numoutlets" : 1,
					"outlettype" : [ "" ],
					"patcher" : 					{
						"fileversion" : 1,
						"appversion" : 						{
							"major" : 7,
							"minor" : 2,
							"revision" : 5,
							"architecture" : "x86",
							"modernui" : 1
						}
,
						"rect" : [ 129.0, 86.0, 892.0, 710.0 ],
						"bglocked" : 0,
						"openinpresentation" : 0,
						"default_fontsize" : 12.0,
						"default_fontface" : 0,
						"default_fontname" : "Arial",
						"gridonopen" : 1,
						"gridsize" : [ 15.0, 15.0 ],
						"gridsnaponopen" : 1,
						"objectsnaponopen" : 1,
						"statusbarvisible" : 2,
						"toolbarvisible" : 1,
						"lefttoolbarpinned" : 0,
						"toptoolbarpinned" : 0,
						"righttoolbarpinned" : 0,
						"bottomtoolbarpinned" : 0,
						"toolbars_unpinned_last_save" : 0,
						"tallnewobj" : 0,
						"boxanimatetime" : 200,
						"enablehscroll" : 1,
						"enablevscroll" : 1,
						"devicewidth" : 0.0,
						"description" : "",
						"digest" : "",
						"tags" : "",
						"style" : "",
						"subpatcher_template" : "",
						"boxes" : [ 							{
								"box" : 								{
									"id" : "obj-30",
									"maxclass" : "newobj",
									"numinlets" : 1,
									"numoutlets" : 1,
									"outlettype" : [ "" ],
									"patching_rect" : [ 538.0, 296.0, 181.0, 22.0 ],
									"style" : "",
									"text" : "expr (0.5 - (($f1-0.9) / 0.1 * .25))"
								}

							}
, 							{
								"box" : 								{
									"id" : "obj-29",
									"maxclass" : "message",
									"numinlets" : 2,
									"numoutlets" : 1,
									"outlettype" : [ "" ],
									"patching_rect" : [ 605.0, 425.0, 127.0, 22.0 ],
									"style" : "",
									"text" : "bgcolor 0.8 $1 0.25 1."
								}

							}
, 							{
								"box" : 								{
									"id" : "obj-26",
									"maxclass" : "newobj",
									"numinlets" : 1,
									"numoutlets" : 1,
									"outlettype" : [ "" ],
									"patching_rect" : [ 479.0, 334.0, 181.0, 22.0 ],
									"style" : "",
									"text" : "expr (0.5 - (($f1-0.8) / 0.1 * .25))"
								}

							}
, 							{
								"box" : 								{
									"id" : "obj-25",
									"maxclass" : "message",
									"numinlets" : 2,
									"numoutlets" : 1,
									"outlettype" : [ "" ],
									"patching_rect" : [ 469.0, 425.0, 117.0, 22.0 ],
									"style" : "",
									"text" : "bgcolor 0.8 $1 $2 1."
								}

							}
, 							{
								"box" : 								{
									"id" : "obj-24",
									"maxclass" : "newobj",
									"numinlets" : 2,
									"numoutlets" : 1,
									"outlettype" : [ "" ],
									"patching_rect" : [ 294.0, 371.0, 63.0, 22.0 ],
									"style" : "",
									"text" : "pack 0. 0."
								}

							}
, 							{
								"box" : 								{
									"id" : "obj-23",
									"maxclass" : "newobj",
									"numinlets" : 1,
									"numoutlets" : 1,
									"outlettype" : [ "" ],
									"patching_rect" : [ 294.0, 330.0, 174.0, 22.0 ],
									"style" : "",
									"text" : "expr (0.8 - (($f1-0.8) / 0.1 * .3))"
								}

							}
, 							{
								"box" : 								{
									"id" : "obj-22",
									"maxclass" : "message",
									"numinlets" : 2,
									"numoutlets" : 1,
									"outlettype" : [ "" ],
									"patching_rect" : [ 328.0, 425.0, 120.0, 22.0 ],
									"style" : "",
									"text" : "bgcolor $1 0.8 0.5 1."
								}

							}
, 							{
								"box" : 								{
									"id" : "obj-21",
									"maxclass" : "newobj",
									"numinlets" : 1,
									"numoutlets" : 1,
									"outlettype" : [ "" ],
									"patching_rect" : [ 241.0, 296.0, 169.0, 22.0 ],
									"style" : "",
									"text" : "expr (($f1-0.6) / 0.2 * .3) + 0.5"
								}

							}
, 							{
								"box" : 								{
									"id" : "obj-19",
									"maxclass" : "message",
									"numinlets" : 2,
									"numoutlets" : 1,
									"outlettype" : [ "" ],
									"patching_rect" : [ 193.0, 425.0, 120.0, 22.0 ],
									"style" : "",
									"text" : "bgcolor 0.5 $1 0.5 1."
								}

							}
, 							{
								"box" : 								{
									"id" : "obj-17",
									"maxclass" : "newobj",
									"numinlets" : 1,
									"numoutlets" : 1,
									"outlettype" : [ "" ],
									"patching_rect" : [ 192.0, 257.0, 148.0, 22.0 ],
									"style" : "",
									"text" : "expr (($f1 / 0.6) * .3) + 0.5"
								}

							}
, 							{
								"box" : 								{
									"id" : "obj-16",
									"maxclass" : "newobj",
									"numinlets" : 3,
									"numoutlets" : 2,
									"outlettype" : [ "float", "float" ],
									"patching_rect" : [ 347.0, 249.0, 65.0, 22.0 ],
									"style" : "",
									"text" : "split 0.9 1."
								}

							}
, 							{
								"box" : 								{
									"id" : "obj-10",
									"maxclass" : "newobj",
									"numinlets" : 3,
									"numoutlets" : 2,
									"outlettype" : [ "float", "float" ],
									"patching_rect" : [ 294.0, 218.0, 72.0, 22.0 ],
									"style" : "",
									"text" : "split 0.8 0.9"
								}

							}
, 							{
								"box" : 								{
									"id" : "obj-9",
									"maxclass" : "newobj",
									"numinlets" : 3,
									"numoutlets" : 2,
									"outlettype" : [ "float", "float" ],
									"patching_rect" : [ 241.0, 186.0, 72.0, 22.0 ],
									"style" : "",
									"text" : "split 0.6 0.8"
								}

							}
, 							{
								"box" : 								{
									"id" : "obj-8",
									"maxclass" : "newobj",
									"numinlets" : 2,
									"numoutlets" : 1,
									"outlettype" : [ "float" ],
									"patching_rect" : [ 193.0, 95.0, 41.0, 22.0 ],
									"style" : "",
									"text" : "/ 127."
								}

							}
, 							{
								"box" : 								{
									"id" : "obj-7",
									"maxclass" : "newobj",
									"numinlets" : 3,
									"numoutlets" : 2,
									"outlettype" : [ "float", "float" ],
									"patching_rect" : [ 192.0, 149.0, 65.0, 22.0 ],
									"style" : "",
									"text" : "split 0. 0.6"
								}

							}
, 							{
								"box" : 								{
									"id" : "obj-5",
									"maxclass" : "number",
									"numinlets" : 1,
									"numoutlets" : 2,
									"outlettype" : [ "", "bang" ],
									"parameter_enable" : 0,
									"patching_rect" : [ 79.0, 95.0, 50.0, 22.0 ],
									"style" : ""
								}

							}
, 							{
								"box" : 								{
									"comment" : "",
									"id" : "obj-3",
									"maxclass" : "outlet",
									"numinlets" : 1,
									"numoutlets" : 0,
									"patching_rect" : [ 94.0, 537.0, 30.0, 30.0 ],
									"style" : ""
								}

							}
, 							{
								"box" : 								{
									"comment" : "",
									"id" : "obj-1",
									"maxclass" : "inlet",
									"numinlets" : 0,
									"numoutlets" : 1,
									"outlettype" : [ "int" ],
									"patching_rect" : [ 79.0, 32.0, 30.0, 30.0 ],
									"style" : ""
								}

							}
 ],
						"lines" : [ 							{
								"patchline" : 								{
									"destination" : [ "obj-5", 0 ],
									"disabled" : 0,
									"hidden" : 0,
									"source" : [ "obj-1", 0 ]
								}

							}
, 							{
								"patchline" : 								{
									"destination" : [ "obj-16", 0 ],
									"disabled" : 0,
									"hidden" : 0,
									"source" : [ "obj-10", 1 ]
								}

							}
, 							{
								"patchline" : 								{
									"destination" : [ "obj-23", 0 ],
									"disabled" : 0,
									"hidden" : 0,
									"source" : [ "obj-10", 0 ]
								}

							}
, 							{
								"patchline" : 								{
									"destination" : [ "obj-26", 0 ],
									"disabled" : 0,
									"hidden" : 0,
									"midpoints" : [ 303.5, 286.5, 488.5, 286.5 ],
									"source" : [ "obj-10", 0 ]
								}

							}
, 							{
								"patchline" : 								{
									"destination" : [ "obj-30", 0 ],
									"disabled" : 0,
									"hidden" : 0,
									"midpoints" : [ 356.5, 276.0, 547.5, 276.0 ],
									"source" : [ "obj-16", 0 ]
								}

							}
, 							{
								"patchline" : 								{
									"destination" : [ "obj-19", 0 ],
									"disabled" : 0,
									"hidden" : 0,
									"source" : [ "obj-17", 0 ]
								}

							}
, 							{
								"patchline" : 								{
									"destination" : [ "obj-3", 0 ],
									"disabled" : 0,
									"hidden" : 0,
									"midpoints" : [ 202.5, 464.5, 103.5, 464.5 ],
									"source" : [ "obj-19", 0 ]
								}

							}
, 							{
								"patchline" : 								{
									"destination" : [ "obj-22", 0 ],
									"disabled" : 0,
									"hidden" : 0,
									"source" : [ "obj-21", 0 ]
								}

							}
, 							{
								"patchline" : 								{
									"destination" : [ "obj-3", 0 ],
									"disabled" : 0,
									"hidden" : 0,
									"midpoints" : [ 337.5, 491.5, 103.5, 491.5 ],
									"source" : [ "obj-22", 0 ]
								}

							}
, 							{
								"patchline" : 								{
									"destination" : [ "obj-24", 0 ],
									"disabled" : 0,
									"hidden" : 0,
									"source" : [ "obj-23", 0 ]
								}

							}
, 							{
								"patchline" : 								{
									"destination" : [ "obj-25", 0 ],
									"disabled" : 0,
									"hidden" : 0,
									"midpoints" : [ 303.5, 409.0, 478.5, 409.0 ],
									"source" : [ "obj-24", 0 ]
								}

							}
, 							{
								"patchline" : 								{
									"destination" : [ "obj-3", 0 ],
									"disabled" : 0,
									"hidden" : 0,
									"midpoints" : [ 478.5, 491.5, 103.5, 491.5 ],
									"source" : [ "obj-25", 0 ]
								}

							}
, 							{
								"patchline" : 								{
									"destination" : [ "obj-24", 1 ],
									"disabled" : 0,
									"hidden" : 0,
									"midpoints" : [ 488.5, 363.0, 347.5, 363.0 ],
									"source" : [ "obj-26", 0 ]
								}

							}
, 							{
								"patchline" : 								{
									"destination" : [ "obj-3", 0 ],
									"disabled" : 0,
									"hidden" : 0,
									"midpoints" : [ 614.5, 491.5, 103.5, 491.5 ],
									"source" : [ "obj-29", 0 ]
								}

							}
, 							{
								"patchline" : 								{
									"destination" : [ "obj-29", 0 ],
									"disabled" : 0,
									"hidden" : 0,
									"midpoints" : [ 547.5, 398.0, 614.5, 398.0 ],
									"source" : [ "obj-30", 0 ]
								}

							}
, 							{
								"patchline" : 								{
									"destination" : [ "obj-8", 0 ],
									"disabled" : 0,
									"hidden" : 0,
									"source" : [ "obj-5", 0 ]
								}

							}
, 							{
								"patchline" : 								{
									"destination" : [ "obj-17", 0 ],
									"disabled" : 0,
									"hidden" : 0,
									"source" : [ "obj-7", 0 ]
								}

							}
, 							{
								"patchline" : 								{
									"destination" : [ "obj-9", 0 ],
									"disabled" : 0,
									"hidden" : 0,
									"source" : [ "obj-7", 1 ]
								}

							}
, 							{
								"patchline" : 								{
									"destination" : [ "obj-7", 0 ],
									"disabled" : 0,
									"hidden" : 0,
									"source" : [ "obj-8", 0 ]
								}

							}
, 							{
								"patchline" : 								{
									"destination" : [ "obj-10", 0 ],
									"disabled" : 0,
									"hidden" : 0,
									"source" : [ "obj-9", 1 ]
								}

							}
, 							{
								"patchline" : 								{
									"destination" : [ "obj-21", 0 ],
									"disabled" : 0,
									"hidden" : 0,
									"source" : [ "obj-9", 0 ]
								}

							}
 ]
					}
,
					"patching_rect" : [ 49.0, 440.0, 82.0, 22.0 ],
					"saved_object_attributes" : 					{
						"description" : "",
						"digest" : "",
						"globalpatchername" : "",
						"style" : "",
						"tags" : ""
					}
,
					"style" : "",
					"text" : "p covertColor"
				}

			}
, 			{
				"box" : 				{
					"id" : "obj-60",
					"maxclass" : "newobj",
					"numinlets" : 1,
					"numoutlets" : 1,
					"outlettype" : [ "bang" ],
					"patching_rect" : [ 179.0, 350.5, 60.0, 22.0 ],
					"style" : "",
					"text" : "loadbang"
				}

			}
, 			{
				"box" : 				{
					"id" : "obj-59",
					"maxclass" : "message",
					"numinlets" : 2,
					"numoutlets" : 1,
					"outlettype" : [ "" ],
					"patching_rect" : [ 179.0, 382.5, 115.0, 22.0 ],
					"style" : "",
					"text" : "pattrstorage delayB"
				}

			}
, 			{
				"box" : 				{
					"id" : "obj-57",
					"maxclass" : "newobj",
					"numinlets" : 1,
					"numoutlets" : 4,
					"outlettype" : [ "", "", "", "" ],
					"patching_rect" : [ 192.25, 702.0, 58.0, 22.0 ],
					"restore" : 					{
						"jsui" : [ 304.040009 ],
						"jsui[1]" : [ 71 ],
						"pictslider" : [ 771, 0 ]
					}
,
					"style" : "",
					"text" : "autopattr",
					"varname" : "u399001252"
				}

			}
, 			{
				"box" : 				{
					"id" : "obj-27",
					"maxclass" : "newobj",
					"numinlets" : 1,
					"numoutlets" : 1,
					"outlettype" : [ "" ],
					"patching_rect" : [ 161.0, 767.0, 195.0, 22.0 ],
					"saved_object_attributes" : 					{
						"client_rect" : [ 4, 45, 358, 173 ],
						"parameter_enable" : 0,
						"storage_rect" : [ 583, 69, 1034, 197 ]
					}
,
					"style" : "",
					"text" : "pattrstorage delayB @savemode 0",
					"varname" : "delayB"
				}

			}
, 			{
				"box" : 				{
					"active1" : [ 0.784314, 0.145098, 0.023529, 1.0 ],
					"bgcolor" : [ 0.862745, 0.870588, 0.878431, 1.0 ],
					"emptycolor" : [ 0.65098, 0.666667, 0.662745, 1.0 ],
					"id" : "obj-28",
					"maxclass" : "preset",
					"numinlets" : 1,
					"numoutlets" : 4,
					"outlettype" : [ "preset", "int", "preset", "int" ],
					"patching_rect" : [ 179.0, 416.5, 84.5, 30.0 ],
					"pattrstorage" : "delay",
					"presentation" : 1,
					"presentation_rect" : [ 141.0, 125.0, 78.0, 28.0 ],
					"stored1" : [ 0.32549, 0.345098, 0.372549, 1.0 ],
					"style" : ""
				}

			}
, 			{
				"box" : 				{
					"border" : 0,
					"embedstate" : [ [ "vmax", 100 ], [ "font", "Arial" ], [ "vreset", 0 ], [ "fontsize", 10 ], [ "vmin", 0 ], [ "readout", 1 ], [ "type", 0 ], [ "frgb", 0, 0, 0, 1 ], [ "brgb", 1, 1, 1, 0 ] ],
					"filename" : "ol.pngknob.js",
					"id" : "obj-17",
					"jsarguments" : [ "knob2-100.png", 100 ],
					"maxclass" : "jsui",
					"numinlets" : 1,
					"numoutlets" : 1,
					"outlettype" : [ "" ],
					"parameter_enable" : 0,
					"patching_rect" : [ 522.0, 458.0, 27.0, 47.0 ],
					"presentation" : 1,
					"presentation_rect" : [ 116.5, 48.5, 27.0, 47.0 ],
					"varname" : "jsui[1]"
				}

			}
, 			{
				"box" : 				{
					"border" : 0,
					"embedstate" : [ [ "vmax", 2000 ], [ "font", "Arial" ], [ "vreset", 0 ], [ "fontsize", 10 ], [ "vmin", 0 ], [ "readout", 1 ], [ "type", 0 ], [ "frgb", 0, 0, 0, 1 ], [ "brgb", 1, 1, 1, 0 ] ],
					"filename" : "ol.pngknob.js",
					"id" : "obj-55",
					"jsarguments" : [ "knob2-100.png", 100 ],
					"maxclass" : "jsui",
					"numinlets" : 1,
					"numoutlets" : 1,
					"outlettype" : [ "" ],
					"parameter_enable" : 0,
					"patching_rect" : [ 464.0, 440.0, 27.0, 47.0 ],
					"presentation" : 1,
					"presentation_rect" : [ 58.5, 48.5, 27.0, 47.0 ],
					"varname" : "jsui"
				}

			}
, 			{
				"box" : 				{
					"frames" : 1,
					"id" : "obj-67",
					"maxclass" : "pictctrl",
					"mode" : 1,
					"multiplier" : 1,
					"name" : "powerButton03.png",
					"numinlets" : 1,
					"numoutlets" : 1,
					"outlettype" : [ "int" ],
					"parameter_enable" : 0,
					"patching_rect" : [ 441.5, 330.0, 32.0, 32.0 ],
					"presentation" : 1,
					"presentation_rect" : [ 191.0, 21.0, 32.0, 32.0 ],
					"range" : 201,
					"threshold" : 0.94,
					"trackhorizontal" : 1,
					"tracking" : 1,
					"trackvertical" : 1,
					"varname" : "pictctrl"
				}

			}
, 			{
				"box" : 				{
					"bgcolor" : [ 0.65098, 0.666667, 0.662745, 0.0 ],
					"fontname" : "Arial",
					"fontsize" : 8.0,
					"htricolor" : [ 0.87, 0.82, 0.24, 1.0 ],
					"id" : "obj-7",
					"ignoreclick" : 1,
					"maxclass" : "number",
					"maximum" : 127,
					"minimum" : 0,
					"numinlets" : 1,
					"numoutlets" : 2,
					"outlettype" : [ "", "bang" ],
					"parameter_enable" : 0,
					"patching_rect" : [ 61.0, 379.0, 26.0, 17.0 ],
					"presentation" : 1,
					"presentation_rect" : [ 14.5, 89.0, 25.0, 17.0 ],
					"style" : "",
					"textcolor" : [ 0.0, 0.0, 0.0, 1.0 ],
					"triangle" : 0,
					"tricolor" : [ 0.75, 0.75, 0.75, 1.0 ],
					"varname" : "number"
				}

			}
, 			{
				"box" : 				{
					"bkgndpict" : "sliderTrack6.png",
					"bottommargin" : 1,
					"clickedimage" : 0,
					"id" : "obj-2",
					"inactiveimage" : 0,
					"knobpict" : "sliderKnob3.png",
					"leftmargin" : 3,
					"leftvalue" : 127,
					"maxclass" : "pictslider",
					"movehorizontal" : 0,
					"numinlets" : 2,
					"numoutlets" : 2,
					"outlettype" : [ "int", "int" ],
					"parameter_enable" : 0,
					"patching_rect" : [ 47.0, 254.0, 19.0, 70.0 ],
					"presentation" : 1,
					"presentation_rect" : [ 14.5, 19.5, 19.0, 70.0 ],
					"rightmargin" : 3,
					"rightvalue" : 0,
					"style" : "",
					"topmargin" : 1,
					"varname" : "pictslider[1]"
				}

			}
, 			{
				"box" : 				{
					"angle" : 0.0,
					"bgcolor" : [ 0.5, 0.5, 0.5, 1.0 ],
					"border" : 1,
					"bordercolor" : [ 0.0, 0.0, 0.0, 1.0 ],
					"id" : "obj-4",
					"maxclass" : "panel",
					"mode" : 0,
					"numinlets" : 1,
					"numoutlets" : 0,
					"patching_rect" : [ 49.0, 517.0, 24.5, 104.0 ],
					"presentation" : 1,
					"presentation_rect" : [ 7.5, 19.5, 24.5, 70.0 ],
					"proportion" : 0.39,
					"rounded" : 0,
					"style" : ""
				}

			}
, 			{
				"box" : 				{
					"fontname" : "Arial",
					"fontsize" : 10.0,
					"id" : "obj-129",
					"maxclass" : "newobj",
					"numinlets" : 1,
					"numoutlets" : 1,
					"outlettype" : [ "" ],
					"patching_rect" : [ 641.0, 98.0, 126.0, 20.0 ],
					"style" : "",
					"text" : "nTbp_ #1 @name DELAY"
				}

			}
, 			{
				"box" : 				{
					"fontname" : "Arial",
					"fontsize" : 10.0,
					"id" : "obj-51",
					"maxclass" : "newobj",
					"numinlets" : 1,
					"numoutlets" : 2,
					"outlettype" : [ "", "" ],
					"patching_rect" : [ 601.0, 68.0, 122.0, 20.0 ],
					"style" : "",
					"text" : "MRrC #1 @r delayPreset"
				}

			}
, 			{
				"box" : 				{
					"fontname" : "Arial",
					"fontsize" : 10.0,
					"id" : "obj-48",
					"maxclass" : "newobj",
					"numinlets" : 1,
					"numoutlets" : 2,
					"outlettype" : [ "", "" ],
					"patching_rect" : [ 547.0, 44.0, 150.0, 20.0 ],
					"style" : "",
					"text" : "MRrC #1 @r writeDelayPresets"
				}

			}
, 			{
				"box" : 				{
					"fontname" : "Arial",
					"fontsize" : 10.0,
					"id" : "obj-130",
					"maxclass" : "newobj",
					"numinlets" : 1,
					"numoutlets" : 2,
					"outlettype" : [ "", "" ],
					"patching_rect" : [ 508.0, 18.0, 149.0, 20.0 ],
					"style" : "",
					"text" : "MRrC #1 @r readDelayPresets"
				}

			}
, 			{
				"box" : 				{
					"fontname" : "Arial",
					"fontsize" : 11.595187,
					"id" : "obj-50",
					"maxclass" : "newobj",
					"numinlets" : 4,
					"numoutlets" : 0,
					"patching_rect" : [ 377.0, 23.0, 113.0, 21.0 ],
					"style" : "",
					"text" : "bgcolor 0.8 0.8 1. 1."
				}

			}
, 			{
				"box" : 				{
					"handoff" : "",
					"id" : "obj-21",
					"maxclass" : "ubutton",
					"numinlets" : 1,
					"numoutlets" : 4,
					"outlettype" : [ "bang", "bang", "", "int" ],
					"patching_rect" : [ 223.0, 53.5, 28.0, 27.0 ],
					"presentation" : 1,
					"presentation_rect" : [ 162.0, 24.0, 28.0, 27.0 ]
				}

			}
, 			{
				"box" : 				{
					"fontname" : "Arial",
					"fontsize" : 9.0,
					"id" : "obj-1",
					"maxclass" : "message",
					"numinlets" : 2,
					"numoutlets" : 1,
					"outlettype" : [ "" ],
					"patching_rect" : [ 460.0, 240.0, 35.0, 19.0 ],
					"style" : "",
					"text" : "write"
				}

			}
, 			{
				"box" : 				{
					"fontname" : "Arial",
					"fontsize" : 9.0,
					"id" : "obj-3",
					"maxclass" : "newobj",
					"numinlets" : 1,
					"numoutlets" : 1,
					"outlettype" : [ "" ],
					"patching_rect" : [ 378.0, 215.0, 71.0, 19.0 ],
					"style" : "",
					"text" : "prepend read"
				}

			}
, 			{
				"box" : 				{
					"fontname" : "Arial",
					"fontsize" : 9.0,
					"id" : "obj-6",
					"maxclass" : "newobj",
					"numinlets" : 0,
					"numoutlets" : 1,
					"outlettype" : [ "" ],
					"patching_rect" : [ 304.0, 23.0, 61.0, 19.0 ],
					"style" : "",
					"text" : "r exDelayIn"
				}

			}
, 			{
				"box" : 				{
					"fontname" : "Arial",
					"fontsize" : 9.0,
					"id" : "obj-8",
					"maxclass" : "newobj",
					"numinlets" : 1,
					"numoutlets" : 0,
					"patching_rect" : [ 321.0, 102.0, 62.0, 19.0 ],
					"style" : "",
					"text" : "s passDelay"
				}

			}
, 			{
				"box" : 				{
					"fontname" : "Arial",
					"fontsize" : 10.0,
					"id" : "obj-9",
					"maxclass" : "comment",
					"numinlets" : 1,
					"numoutlets" : 0,
					"patching_rect" : [ 101.0, 23.0, 35.0, 18.0 ],
					"presentation" : 1,
					"presentation_rect" : [ 93.0, 2.0, 35.0, 18.0 ],
					"style" : "",
					"text" : "VOL"
				}

			}
, 			{
				"box" : 				{
					"comment" : "(int/float) Volume (0 -127)",
					"id" : "obj-10",
					"maxclass" : "inlet",
					"numinlets" : 0,
					"numoutlets" : 1,
					"outlettype" : [ "" ],
					"patching_rect" : [ 161.0, 6.0, 15.0, 15.0 ],
					"style" : ""
				}

			}
, 			{
				"box" : 				{
					"fontname" : "Arial",
					"fontsize" : 9.0,
					"id" : "obj-11",
					"maxclass" : "newobj",
					"numinlets" : 1,
					"numoutlets" : 1,
					"outlettype" : [ "" ],
					"patching_rect" : [ 253.0, 94.0, 45.0, 19.0 ],
					"style" : "",
					"text" : "pcontrol"
				}

			}
, 			{
				"box" : 				{
					"fontname" : "Arial",
					"fontsize" : 9.0,
					"id" : "obj-12",
					"maxclass" : "newobj",
					"numinlets" : 1,
					"numoutlets" : 3,
					"outlettype" : [ "", "", "" ],
					"patching_rect" : [ 253.0, 64.0, 87.0, 19.0 ],
					"style" : "",
					"text" : "muter"
				}

			}
, 			{
				"box" : 				{
					"fontname" : "Arial",
					"fontsize" : 10.0,
					"id" : "obj-13",
					"maxclass" : "comment",
					"numinlets" : 1,
					"numoutlets" : 0,
					"patching_rect" : [ 111.0, 58.0, 63.0, 18.0 ],
					"presentation" : 1,
					"presentation_rect" : [ 101.0, 34.0, 63.0, 18.0 ],
					"style" : "",
					"text" : "FEEDBACK"
				}

			}
, 			{
				"box" : 				{
					"fontname" : "Arial",
					"fontsize" : 9.0,
					"id" : "obj-15",
					"maxclass" : "message",
					"numinlets" : 2,
					"numoutlets" : 1,
					"outlettype" : [ "" ],
					"patching_rect" : [ 134.0, 28.0, 38.0, 19.0 ],
					"style" : "",
					"text" : "set $1"
				}

			}
, 			{
				"box" : 				{
					"fontname" : "Arial",
					"fontsize" : 9.0,
					"id" : "obj-19",
					"maxclass" : "newobj",
					"numinlets" : 1,
					"numoutlets" : 1,
					"outlettype" : [ "" ],
					"patching_rect" : [ 391.0, 104.0, 50.0, 19.0 ],
					"style" : "",
					"text" : "pcontrol"
				}

			}
, 			{
				"box" : 				{
					"autofit" : 1,
					"id" : "obj-18",
					"maxclass" : "fpic",
					"numinlets" : 1,
					"numoutlets" : 1,
					"outlettype" : [ "jit_matrix" ],
					"patching_rect" : [ 171.0, 49.0, 30.0, 30.0 ],
					"pic" : "info.png",
					"presentation" : 1,
					"presentation_rect" : [ 160.0, 23.0, 30.0, 30.0 ]
				}

			}
, 			{
				"box" : 				{
					"fontname" : "Arial",
					"fontsize" : 9.0,
					"id" : "obj-20",
					"maxclass" : "message",
					"numinlets" : 2,
					"numoutlets" : 1,
					"outlettype" : [ "" ],
					"patching_rect" : [ 391.0, 85.0, 39.0, 19.0 ],
					"style" : "",
					"text" : "open"
				}

			}
, 			{
				"box" : 				{
					"frames" : 1,
					"id" : "obj-22",
					"maxclass" : "pictctrl",
					"mode" : 1,
					"multiplier" : 1,
					"name" : "spiral01.png",
					"numinlets" : 1,
					"numoutlets" : 1,
					"outlettype" : [ "int" ],
					"parameter_enable" : 0,
					"patching_rect" : [ 311.0, 321.0, 20.0, 20.0 ],
					"presentation" : 1,
					"presentation_rect" : [ 197.0, 63.0, 20.0, 20.0 ],
					"range" : 201,
					"trackhorizontal" : 1,
					"tracking" : 1,
					"trackvertical" : 1
				}

			}
, 			{
				"box" : 				{
					"bkgndpict" : "WetDrySlider4.png",
					"bkgndsize" : 1,
					"bottommargin" : 1,
					"horizontaltracking" : 4.0,
					"id" : "obj-23",
					"inactiveimage" : 0,
					"knobpict" : "wetDryKnob2.png",
					"leftmargin" : 1,
					"maxclass" : "pictslider",
					"movevertical" : 0,
					"numinlets" : 2,
					"numoutlets" : 2,
					"outlettype" : [ "int", "int" ],
					"parameter_enable" : 0,
					"patching_rect" : [ 97.0, 379.0, 68.0, 16.0 ],
					"presentation" : 1,
					"presentation_rect" : [ 52.0, 111.0, 68.0, 16.0 ],
					"rightmargin" : 1,
					"rightvalue" : 1000,
					"style" : "",
					"topmargin" : 1,
					"topvalue" : 1000,
					"varname" : "pictslider",
					"verticaltracking" : 4.0
				}

			}
, 			{
				"box" : 				{
					"fontname" : "Arial",
					"fontsize" : 9.0,
					"id" : "obj-24",
					"maxclass" : "newobj",
					"numinlets" : 2,
					"numoutlets" : 1,
					"outlettype" : [ "float" ],
					"patching_rect" : [ 80.0, 314.0, 45.0, 19.0 ],
					"style" : "",
					"text" : "* 1000."
				}

			}
, 			{
				"box" : 				{
					"fontname" : "Arial",
					"fontsize" : 9.0,
					"id" : "obj-25",
					"maxclass" : "newobj",
					"numinlets" : 2,
					"numoutlets" : 1,
					"outlettype" : [ "float" ],
					"patching_rect" : [ 86.0, 427.5, 45.0, 19.0 ],
					"style" : "",
					"text" : "/ 1000."
				}

			}
, 			{
				"box" : 				{
					"fontname" : "Arial",
					"fontsize" : 9.0,
					"id" : "obj-26",
					"maxclass" : "newobj",
					"numinlets" : 1,
					"numoutlets" : 0,
					"patching_rect" : [ 391.0, 128.0, 51.0, 19.0 ],
					"style" : "",
					"text" : "delayInfo"
				}

			}
, 			{
				"box" : 				{
					"fontname" : "Arial",
					"fontsize" : 10.0,
					"id" : "obj-29",
					"maxclass" : "comment",
					"numinlets" : 1,
					"numoutlets" : 0,
					"patching_rect" : [ 167.0, 90.0, 43.0, 18.0 ],
					"presentation" : 1,
					"presentation_rect" : [ 154.5, 65.0, 43.0, 18.0 ],
					"style" : "",
					"text" : "CYCLE"
				}

			}
, 			{
				"box" : 				{
					"data" : [ 1952, "", "IBkSG0fBZn....PCIgDQRA...3A...fGHX....vNv3pn....DLmPIQEBHf.B7g.YHB..GbURDEDUHkXqVsGUSddG94KIbI.ARHDj6DfhgKN4hvXHhBHUcLamysgcv7bvoyU8ztZsc6rIbFXW6jVvJ1KmVasJLJmVIbwa.UpZBV4lJbHX.DDj6HzjfIP.x8u8G9ENHDP1N64bdO48xy6umume+9ky4k.+eB0We8t17UE91b4v9gL4Gx4RM0TMtR7Yr3M9vibD20zXi6vee8UmiYDWYojxanc0H7.cJ8ncc+1+KSqdZr8zVid.T3Jwml4IkVZoz+fW6Okwz28th8hFsyEefB9Z6dnphtmnK6xpQX4xFWfRclPK8NNx7uk4YNxANPS0bwxR94J7.C22t+AgkcdeLXZst6LGzk9YPXN59d59507ZqFgiM9jdKNd3y6wyGuuudCFr9123Zwb1BJnzxJ4KOnk3S27D1rr+Mrs+Q1P+PChya+Q82uU3e3Qi.XwIg04vf8bYoxjtRB+km+7Ook1jbybyM2ukvftWdMb4xahGONyVZroWJ+7eeiWnhKcKK53n1X781oU5glolAE1UqHYu7GkWZQfEG2QTgr876u4qF9pw4omd5OI9Mtow7zCOAO2cGZLPhO5D4c71uSCOSZedGelO6yGQxHC9RC2UGNSn0Hzvf.7YXCt2fciTR52vR9nCxNRm53FWRhJMqjvW+5WORFFL72cxQmrkFAMXhzHjISFwzpU6S4WopxyO+708LNNf.BXnid3idL5qKTSDj.2dfGAucdMXpGMHp8N2BdYkKuBOmC7cWIQanzRYNQ2s+dVascN4I+.vOI7vPLaJND8OKZTUkWLAEiNZrKIUC.DSLwHLiLNTZ2PsBsboYCNYK2FI4ev3d2pVLhhIQ7g7qOz32olksSkwrcjIiF+zcL2CpAzsBvfM1BuBd8JiH9jlynISn+gGNpkjpMiqboK0AcafQcVaZqtYzZP2DIBvNGQcszDjO5DDcMTuAlPBtciqUeeJW38546JJMMRpr.R8Zg5gjB8beA3RfgWajgsts5patUesUWUZwt4369aufvpWhiMiYUibmBZJ4IDFPGOdbTzC5.eS+cigGaDDHbLVEyY6atP98Kthfm59U8NFHMASDVAD4dfGgu4hcmGmzcyM2lvzry1gcLYZxIG3LgES0K.jDlLlYCyHuuZmYBnQiF75dtVr2suSnmu6ffksyGfgjJ0YUsW0WoQ9vAnR4bPI6fg+Iu2uvUWc8fAETPxA.lwnQs9F3Z0xyMWGY9xxxUuFXbLnKtfTkMm1bR1u.hnGUJ83.EeVZiPnRcPqyie..PjHQLT1zYKZlwdPryMmALN3BOieucxlkcY5me9Me2OKVrn8a+coeQF1Xi3mmiA.fb4n0olg7WlQAmNp1cDkW8PiMq2QsMGXG7K9WyKu2xdOT01aNcu2cm5znGxI3.tItu97Wff4cpYHQhjwWiGd7GEHPviLuGwxnIQokVJsTSMUiYmc1zBMzPI3wiGQ4k7EmoUkt7Gx6DYMl0OrpOxXCmK24lUKFSkQvXiG3wqey+7zCNP+DsRlwLVRWsYHTnP..TWc0QFRHgPXu81iWd2uR6sd2F2QG+HS+dwfcXKJePizUnRGj6cxHnMti7hX8gTjkLQ1YmMs5pqNxUyGzxhlEWalQusTIOU4RHanhOm7eexrHuSKRdmryN6EW1HVz3+cLXSWcC26j6sqx+3+AYfaNMxJaQAYqRZSRCMz.SKwWjHQLjJUp0V5rUr4hBD..MUc4dIqgRJd1w5MH18KBu9V8.YkU1XJlufuVYEhzRWLwDSznPgBMXoyV1Z7BDkr4h9Wb008MKiTwHaX1oTBUlrCb+o6ZDq0qX3u4ZR7NoTRIfMEWje+EEJb5EGfkq197bLYaWqbWIj29mQSsrMMq5owTFoAqi7WIienQ7pGZ+6aeNNiDEm5qpYKQEUrGu5pq1lmS7dFGwG.YPstP.L.0b9LYx7faKB9o76WuCgwlPKtRGOA8YhGlgAawhEey5..hZCQDlQlttqCm0mLaDdo+vOpSoe8BdnW3.XWKPu1.fX.nbgaPB.1K7qhqS18i.f7xuZDjUs+PH2ZjBHo3sjAaOVK422sJCR6p0znhi3kiK.3aNUqbQ+hZ9m64X9vwFd..VYRGjQyYvxGAlO+3.fPjHQVA.mIHHlR4X8fS8wESWOS+NAWtbuJ.1B.JB.bnxrb.vooFCXwZbG0WcDtwT6aa9ueSAVvln1sxd5o2Jnnj..xIwDSLK.TIIIoi7802Q0MfH7oWndeTnPQbzoSuS7zR3BM0QnFVt4hsWg5xzV4IGi5d5SpUK3Wfv1xNe+N6rygonvmR7DnbFTL4jkbr+79+tFp3z..vM2c2tUSylXPk6A.5axIcRTsU2LWmrmD.js0dWeBEubn3kyhtea.fLt3hNzhK574xfgUZobnkdfXAKbQgTATLdZpXWt3hKUB.RO8zy9kKWtiKRXwTyygJPJo1OAJdYPsVI04YPwcfEwaY6BaaQe0EZANlGOiSnDa.rz3kgExB.3oo6U0an+u.Ir3M9O.7J5HEj0o7sF.....IUjSD4pPfIH" ],
					"embed" : 1,
					"id" : "obj-32",
					"maxclass" : "fpic",
					"numinlets" : 1,
					"numoutlets" : 1,
					"outlettype" : [ "jit_matrix" ],
					"patching_rect" : [ 18.0, 131.0, 30.0, 30.0 ],
					"presentation" : 1,
					"presentation_rect" : [ 7.0, 110.0, 30.0, 30.0 ]
				}

			}
, 			{
				"box" : 				{
					"fontname" : "Arial Black",
					"fontsize" : 14.0,
					"id" : "obj-33",
					"maxclass" : "comment",
					"numinlets" : 1,
					"numoutlets" : 0,
					"patching_rect" : [ 86.0, 36.0, 90.0, 26.0 ],
					"presentation" : 1,
					"presentation_rect" : [ 78.0, 15.0, 90.0, 26.0 ],
					"style" : "",
					"text" : "DELAY"
				}

			}
, 			{
				"box" : 				{
					"fontname" : "Arial",
					"fontsize" : 10.0,
					"id" : "obj-34",
					"maxclass" : "comment",
					"numinlets" : 1,
					"numoutlets" : 0,
					"patching_rect" : [ 51.0, 58.0, 67.0, 18.0 ],
					"presentation" : 1,
					"presentation_rect" : [ 43.0, 34.0, 67.0, 18.0 ],
					"style" : "",
					"text" : "DELAY-MS"
				}

			}
, 			{
				"box" : 				{
					"fontname" : "Arial",
					"fontsize" : 10.0,
					"id" : "obj-35",
					"maxclass" : "comment",
					"numinlets" : 1,
					"numoutlets" : 0,
					"patching_rect" : [ 9.0, 163.0, 70.0, 18.0 ],
					"presentation" : 1,
					"presentation_rect" : [ 1.0, 142.0, 70.0, 18.0 ],
					"style" : "",
					"text" : "SIGNAL OUT",
					"textcolor" : [ 0.4, 0.4, 0.8, 1.0 ]
				}

			}
, 			{
				"box" : 				{
					"fontname" : "Arial",
					"fontsize" : 10.0,
					"id" : "obj-36",
					"maxclass" : "comment",
					"numinlets" : 1,
					"numoutlets" : 0,
					"patching_rect" : [ 14.0, 23.0, 61.0, 18.0 ],
					"presentation" : 1,
					"presentation_rect" : [ 6.0, 2.0, 61.0, 18.0 ],
					"style" : "",
					"text" : "SIGNAL IN",
					"textcolor" : [ 0.4, 0.4, 0.8, 1.0 ]
				}

			}
, 			{
				"box" : 				{
					"comment" : "(int) On/Off (0-1)",
					"id" : "obj-37",
					"maxclass" : "inlet",
					"numinlets" : 0,
					"numoutlets" : 1,
					"outlettype" : [ "" ],
					"patching_rect" : [ 198.0, 25.0, 15.0, 15.0 ],
					"style" : ""
				}

			}
, 			{
				"box" : 				{
					"comment" : "(signal) Output Audio",
					"id" : "obj-38",
					"maxclass" : "outlet",
					"numinlets" : 1,
					"numoutlets" : 0,
					"patching_rect" : [ 57.0, 169.0, 15.0, 15.0 ],
					"style" : ""
				}

			}
, 			{
				"box" : 				{
					"comment" : "(signal) Input Audio",
					"id" : "obj-39",
					"maxclass" : "inlet",
					"numinlets" : 0,
					"numoutlets" : 1,
					"outlettype" : [ "" ],
					"patching_rect" : [ 56.0, 32.0, 15.0, 15.0 ],
					"style" : ""
				}

			}
, 			{
				"box" : 				{
					"fontname" : "Arial",
					"fontsize" : 10.0,
					"id" : "obj-40",
					"maxclass" : "comment",
					"numinlets" : 1,
					"numoutlets" : 0,
					"patching_rect" : [ 53.0, 150.0, 34.0, 18.0 ],
					"presentation" : 1,
					"presentation_rect" : [ 45.0, 125.0, 34.0, 18.0 ],
					"style" : "",
					"text" : "DRY"
				}

			}
, 			{
				"box" : 				{
					"fontname" : "Arial",
					"fontsize" : 10.0,
					"id" : "obj-41",
					"maxclass" : "comment",
					"numinlets" : 1,
					"numoutlets" : 0,
					"patching_rect" : [ 105.0, 150.0, 33.0, 18.0 ],
					"presentation" : 1,
					"presentation_rect" : [ 94.0, 125.0, 33.0, 18.0 ],
					"style" : "",
					"text" : "WET"
				}

			}
, 			{
				"box" : 				{
					"fontname" : "Arial",
					"fontsize" : 10.0,
					"id" : "obj-42",
					"maxclass" : "comment",
					"numinlets" : 1,
					"numoutlets" : 0,
					"patching_rect" : [ 178.0, 23.0, 55.0, 18.0 ],
					"presentation" : 1,
					"presentation_rect" : [ 170.0, 2.0, 55.0, 18.0 ],
					"style" : "",
					"text" : "ON / OFF"
				}

			}
, 			{
				"box" : 				{
					"bgcolor" : [ 0.403922, 0.403922, 0.403922, 1.0 ],
					"coldcolor" : [ 0.0, 0.658824, 0.0, 1.0 ],
					"id" : "obj-43",
					"interval" : 100,
					"maxclass" : "meter~",
					"numinlets" : 1,
					"numoutlets" : 1,
					"outlettype" : [ "float" ],
					"patching_rect" : [ 142.0, 132.0, 80.0, 13.0 ],
					"presentation" : 1,
					"presentation_rect" : [ 141.0, 109.0, 78.0, 13.0 ],
					"style" : "",
					"tepidcolor" : [ 0.6, 0.729412, 0.0, 1.0 ],
					"warmcolor" : [ 0.85098, 0.85098, 0.0, 1.0 ]
				}

			}
, 			{
				"box" : 				{
					"bgcolor" : [ 0.862745, 0.870588, 0.878431, 1.0 ],
					"color" : [ 0.32549, 0.345098, 0.372549, 1.0 ],
					"fontname" : "Arial",
					"fontsize" : 9.0,
					"id" : "obj-44",
					"maxclass" : "newobj",
					"numinlets" : 8,
					"numoutlets" : 7,
					"outlettype" : [ "signal", "", "", "", "", "", "" ],
					"patching_rect" : [ 56.0, 115.0, 100.0, 19.0 ],
					"presentation" : 1,
					"presentation_rect" : [ 48.0, 89.0, 92.5, 19.0 ],
					"style" : "",
					"text" : "delayKH.maxpat #1",
					"textcolor" : [ 0.0, 0.0, 0.0, 1.0 ]
				}

			}
, 			{
				"box" : 				{
					"angle" : 313.303467,
					"border" : 1,
					"bordercolor" : [ 0.32549, 0.345098, 0.372549, 1.0 ],
					"grad1" : [ 1.0, 1.0, 1.0, 1.0 ],
					"grad2" : [ 0.65098, 0.666667, 0.662745, 1.0 ],
					"id" : "obj-46",
					"maxclass" : "panel",
					"mode" : 1,
					"numinlets" : 1,
					"numoutlets" : 0,
					"patching_rect" : [ 417.0, 620.0, 225.0, 160.0 ],
					"presentation" : 1,
					"presentation_rect" : [ 0.0, 0.0, 225.0, 160.0 ],
					"proportion" : 0.39,
					"pt1" : [ 0.009901, -0.008696 ],
					"pt2" : [ 0.985148, 1.026087 ],
					"rounded" : 5,
					"shadow" : 3,
					"style" : ""
				}

			}
 ],
		"lines" : [ 			{
				"patchline" : 				{
					"destination" : [ "obj-27", 0 ],
					"disabled" : 0,
					"hidden" : 0,
					"midpoints" : [ 469.5, 512.5, 170.5, 512.5 ],
					"source" : [ "obj-1", 0 ]
				}

			}
, 			{
				"patchline" : 				{
					"destination" : [ "obj-2", 1 ],
					"disabled" : 0,
					"hidden" : 0,
					"midpoints" : [ 170.0, 137.5, 58.5, 137.5 ],
					"source" : [ "obj-10", 0 ]
				}

			}
, 			{
				"patchline" : 				{
					"destination" : [ "obj-44", 0 ],
					"disabled" : 0,
					"hidden" : 0,
					"midpoints" : [ 262.5, 148.0, 181.0, 148.0, 181.0, 109.0, 65.5, 109.0 ],
					"source" : [ "obj-11", 0 ]
				}

			}
, 			{
				"patchline" : 				{
					"destination" : [ "obj-11", 0 ],
					"disabled" : 0,
					"hidden" : 0,
					"source" : [ "obj-12", 0 ]
				}

			}
, 			{
				"patchline" : 				{
					"destination" : [ "obj-44", 6 ],
					"disabled" : 0,
					"hidden" : 0,
					"midpoints" : [ 330.5, 91.0, 134.928574, 91.0 ],
					"source" : [ "obj-12", 2 ]
				}

			}
, 			{
				"patchline" : 				{
					"destination" : [ "obj-44", 7 ],
					"disabled" : 0,
					"hidden" : 0,
					"midpoints" : [ 296.5, 86.0, 146.5, 86.0 ],
					"source" : [ "obj-12", 1 ]
				}

			}
, 			{
				"patchline" : 				{
					"destination" : [ "obj-8", 0 ],
					"disabled" : 0,
					"hidden" : 0,
					"source" : [ "obj-12", 2 ]
				}

			}
, 			{
				"patchline" : 				{
					"destination" : [ "obj-33", 0 ],
					"disabled" : 0,
					"hidden" : 0,
					"midpoints" : [ 650.5, 124.0, 496.0, 124.0, 496.0, 7.0, 95.5, 7.0 ],
					"source" : [ "obj-129", 0 ]
				}

			}
, 			{
				"patchline" : 				{
					"destination" : [ "obj-3", 0 ],
					"disabled" : 0,
					"hidden" : 0,
					"midpoints" : [ 517.5, 181.0, 387.5, 181.0 ],
					"source" : [ "obj-130", 0 ]
				}

			}
, 			{
				"patchline" : 				{
					"destination" : [ "obj-145", 0 ],
					"disabled" : 0,
					"hidden" : 0,
					"source" : [ "obj-139", 0 ]
				}

			}
, 			{
				"patchline" : 				{
					"destination" : [ "obj-4", 0 ],
					"disabled" : 0,
					"hidden" : 0,
					"source" : [ "obj-14", 0 ]
				}

			}
, 			{
				"patchline" : 				{
					"destination" : [ "obj-146", 0 ],
					"disabled" : 0,
					"hidden" : 0,
					"source" : [ "obj-140", 0 ]
				}

			}
, 			{
				"patchline" : 				{
					"destination" : [ "obj-139", 0 ],
					"disabled" : 0,
					"hidden" : 0,
					"source" : [ "obj-141", 0 ]
				}

			}
, 			{
				"patchline" : 				{
					"destination" : [ "obj-140", 0 ],
					"disabled" : 0,
					"hidden" : 0,
					"source" : [ "obj-142", 0 ]
				}

			}
, 			{
				"patchline" : 				{
					"destination" : [ "obj-27", 0 ],
					"disabled" : 0,
					"hidden" : 0,
					"midpoints" : [ 573.0, 557.0, 170.5, 557.0 ],
					"source" : [ "obj-145", 0 ]
				}

			}
, 			{
				"patchline" : 				{
					"destination" : [ "obj-27", 0 ],
					"disabled" : 0,
					"hidden" : 0,
					"midpoints" : [ 533.5, 557.0, 170.5, 557.0 ],
					"source" : [ "obj-146", 0 ]
				}

			}
, 			{
				"patchline" : 				{
					"destination" : [ "obj-44", 4 ],
					"disabled" : 0,
					"hidden" : 0,
					"midpoints" : [ 531.5, 515.0, 321.642853, 515.0, 321.642853, 104.0, 111.785713, 104.0 ],
					"source" : [ "obj-17", 0 ]
				}

			}
, 			{
				"patchline" : 				{
					"destination" : [ "obj-26", 0 ],
					"disabled" : 0,
					"hidden" : 0,
					"source" : [ "obj-19", 0 ]
				}

			}
, 			{
				"patchline" : 				{
					"destination" : [ "obj-14", 0 ],
					"disabled" : 0,
					"hidden" : 0,
					"source" : [ "obj-2", 1 ]
				}

			}
, 			{
				"patchline" : 				{
					"destination" : [ "obj-7", 0 ],
					"disabled" : 0,
					"hidden" : 0,
					"source" : [ "obj-2", 1 ]
				}

			}
, 			{
				"patchline" : 				{
					"destination" : [ "obj-19", 0 ],
					"disabled" : 0,
					"hidden" : 0,
					"source" : [ "obj-20", 0 ]
				}

			}
, 			{
				"patchline" : 				{
					"destination" : [ "obj-20", 0 ],
					"disabled" : 0,
					"hidden" : 0,
					"midpoints" : [ 231.0, 195.0, 346.0, 195.0, 346.0, 66.0, 400.5, 66.0 ],
					"source" : [ "obj-21", 0 ]
				}

			}
, 			{
				"patchline" : 				{
					"destination" : [ "obj-44", 5 ],
					"disabled" : 0,
					"hidden" : 0,
					"midpoints" : [ 320.5, 351.0, 221.928574, 351.0, 221.928574, 104.0, 123.35714, 104.0 ],
					"source" : [ "obj-22", 0 ]
				}

			}
, 			{
				"patchline" : 				{
					"destination" : [ "obj-25", 0 ],
					"disabled" : 0,
					"hidden" : 0,
					"midpoints" : [ 106.5, 415.25, 95.5, 415.25 ],
					"source" : [ "obj-23", 0 ]
				}

			}
, 			{
				"patchline" : 				{
					"destination" : [ "obj-23", 0 ],
					"disabled" : 0,
					"hidden" : 0,
					"midpoints" : [ 89.5, 355.5, 106.5, 355.5 ],
					"source" : [ "obj-24", 0 ]
				}

			}
, 			{
				"patchline" : 				{
					"destination" : [ "obj-44", 3 ],
					"disabled" : 0,
					"hidden" : 0,
					"midpoints" : [ 95.5, 465.5, 130.857147, 465.5, 130.857147, 104.0, 100.214287, 104.0 ],
					"source" : [ "obj-25", 0 ]
				}

			}
, 			{
				"patchline" : 				{
					"destination" : [ "obj-27", 0 ],
					"disabled" : 0,
					"hidden" : 0,
					"midpoints" : [ 387.5, 500.0, 170.5, 500.0 ],
					"source" : [ "obj-3", 0 ]
				}

			}
, 			{
				"patchline" : 				{
					"destination" : [ "obj-16", 0 ],
					"disabled" : 0,
					"hidden" : 0,
					"source" : [ "obj-30", 0 ]
				}

			}
, 			{
				"patchline" : 				{
					"destination" : [ "obj-30", 0 ],
					"disabled" : 0,
					"hidden" : 0,
					"source" : [ "obj-31", 0 ]
				}

			}
, 			{
				"patchline" : 				{
					"destination" : [ "obj-67", 0 ],
					"disabled" : 0,
					"hidden" : 0,
					"midpoints" : [ 207.0, 184.5, 451.0, 184.5 ],
					"source" : [ "obj-37", 0 ]
				}

			}
, 			{
				"patchline" : 				{
					"destination" : [ "obj-44", 0 ],
					"disabled" : 0,
					"hidden" : 0,
					"source" : [ "obj-39", 0 ]
				}

			}
, 			{
				"patchline" : 				{
					"destination" : [ "obj-17", 0 ],
					"disabled" : 0,
					"hidden" : 0,
					"midpoints" : [ 119.5, 184.0, 186.0, 184.0, 186.0, 24.0, 531.5, 24.0 ],
					"source" : [ "obj-44", 4 ]
				}

			}
, 			{
				"patchline" : 				{
					"destination" : [ "obj-2", 1 ],
					"disabled" : 0,
					"hidden" : 0,
					"midpoints" : [ 92.5, 220.0, 58.5, 220.0 ],
					"source" : [ "obj-44", 2 ]
				}

			}
, 			{
				"patchline" : 				{
					"destination" : [ "obj-22", 0 ],
					"disabled" : 0,
					"hidden" : 0,
					"midpoints" : [ 133.0, 183.0, 248.0, 183.0, 248.0, 233.0, 320.5, 233.0 ],
					"source" : [ "obj-44", 5 ]
				}

			}
, 			{
				"patchline" : 				{
					"destination" : [ "obj-24", 0 ],
					"disabled" : 0,
					"hidden" : 0,
					"midpoints" : [ 106.0, 213.0, 89.5, 213.0 ],
					"source" : [ "obj-44", 3 ]
				}

			}
, 			{
				"patchline" : 				{
					"destination" : [ "obj-38", 0 ],
					"disabled" : 0,
					"hidden" : 0,
					"source" : [ "obj-44", 0 ]
				}

			}
, 			{
				"patchline" : 				{
					"destination" : [ "obj-43", 0 ],
					"disabled" : 0,
					"hidden" : 0,
					"midpoints" : [ 65.5, 151.0, 151.5, 151.0 ],
					"source" : [ "obj-44", 0 ]
				}

			}
, 			{
				"patchline" : 				{
					"destination" : [ "obj-55", 0 ],
					"disabled" : 0,
					"hidden" : 0,
					"midpoints" : [ 79.0, 286.5, 473.5, 286.5 ],
					"source" : [ "obj-44", 1 ]
				}

			}
, 			{
				"patchline" : 				{
					"destination" : [ "obj-67", 0 ],
					"disabled" : 0,
					"hidden" : 0,
					"midpoints" : [ 146.5, 181.0, 287.0, 181.0, 287.0, 30.0, 451.0, 30.0 ],
					"source" : [ "obj-44", 6 ]
				}

			}
, 			{
				"patchline" : 				{
					"destination" : [ "obj-1", 0 ],
					"disabled" : 0,
					"hidden" : 0,
					"midpoints" : [ 556.5, 213.0, 469.5, 213.0 ],
					"source" : [ "obj-48", 0 ]
				}

			}
, 			{
				"patchline" : 				{
					"destination" : [ "obj-30", 0 ],
					"disabled" : 0,
					"hidden" : 0,
					"source" : [ "obj-5", 0 ]
				}

			}
, 			{
				"patchline" : 				{
					"destination" : [ "obj-28", 0 ],
					"disabled" : 0,
					"hidden" : 0,
					"midpoints" : [ 610.5, 251.75, 188.5, 251.75 ],
					"source" : [ "obj-51", 0 ]
				}

			}
, 			{
				"patchline" : 				{
					"destination" : [ "obj-44", 1 ],
					"disabled" : 0,
					"hidden" : 0,
					"midpoints" : [ 473.5, 497.0, 275.285706, 497.0, 275.285706, 104.0, 77.071426, 104.0 ],
					"source" : [ "obj-55", 0 ]
				}

			}
, 			{
				"patchline" : 				{
					"destination" : [ "obj-17", 0 ],
					"disabled" : 0,
					"hidden" : 0,
					"midpoints" : [ 201.75, 734.0, 323.5, 734.0, 323.5, 447.0, 531.5, 447.0 ],
					"source" : [ "obj-57", 0 ]
				}

			}
, 			{
				"patchline" : 				{
					"destination" : [ "obj-23", 0 ],
					"disabled" : 0,
					"hidden" : 0,
					"midpoints" : [ 201.75, 734.0, 27.0, 734.0, 27.0, 344.0, 106.5, 344.0 ],
					"source" : [ "obj-57", 0 ]
				}

			}
, 			{
				"patchline" : 				{
					"destination" : [ "obj-55", 0 ],
					"disabled" : 0,
					"hidden" : 0,
					"midpoints" : [ 201.75, 734.0, 294.5, 734.0, 294.5, 429.0, 473.5, 429.0 ],
					"source" : [ "obj-57", 0 ]
				}

			}
, 			{
				"patchline" : 				{
					"destination" : [ "obj-28", 0 ],
					"disabled" : 0,
					"hidden" : 0,
					"source" : [ "obj-59", 0 ]
				}

			}
, 			{
				"patchline" : 				{
					"destination" : [ "obj-2", 1 ],
					"disabled" : 0,
					"hidden" : 0,
					"midpoints" : [ 313.5, 148.0, 58.5, 148.0 ],
					"source" : [ "obj-6", 0 ]
				}

			}
, 			{
				"patchline" : 				{
					"destination" : [ "obj-59", 0 ],
					"disabled" : 0,
					"hidden" : 0,
					"midpoints" : [ 188.5, 362.0, 188.5, 362.0 ],
					"source" : [ "obj-60", 0 ]
				}

			}
, 			{
				"patchline" : 				{
					"destination" : [ "obj-12", 0 ],
					"disabled" : 0,
					"hidden" : 0,
					"midpoints" : [ 451.0, 372.0, 356.75, 372.0, 356.75, 61.0, 262.5, 61.0 ],
					"source" : [ "obj-67", 0 ]
				}

			}
, 			{
				"patchline" : 				{
					"destination" : [ "obj-44", 2 ],
					"disabled" : 0,
					"hidden" : 0,
					"midpoints" : [ 70.5, 408.0, 25.0, 408.0, 25.0, 94.0, 88.64286, 94.0 ],
					"source" : [ "obj-7", 0 ]
				}

			}
 ],
		"dependency_cache" : [ 			{
				"name" : "delayKH.maxpat",
				"bootpath" : "~/Documents/Max 7/Library/UBCToolbox_1.02/Modules/Effects/delay/lib",
				"type" : "JSON",
				"implicit" : 1
			}
, 			{
				"name" : "mixKH.abs.maxpat",
				"bootpath" : "~/Documents/Max 7/Library/UBCToolbox_1.02/ubcLib",
				"type" : "JSON",
				"implicit" : 1
			}
, 			{
				"name" : "gainScale.maxpat",
				"bootpath" : "~/Documents/Max 7/Library/UBCToolbox_1.02/ubcLib",
				"type" : "JSON",
				"implicit" : 1
			}
, 			{
				"name" : "lineKH.maxpat",
				"bootpath" : "~/Desktop/colab2018/jitter.Pal Library/Library",
				"type" : "JSON",
				"implicit" : 1
			}
, 			{
				"name" : "MRrC.maxpat",
				"bootpath" : "~/Desktop/colab2018/jitter.Pal Library/Library",
				"type" : "JSON",
				"implicit" : 1
			}
, 			{
				"name" : "multiName_.maxpat",
				"bootpath" : "~/Desktop/colab2018/jitter.Pal Library/Library",
				"type" : "JSON",
				"implicit" : 1
			}
, 			{
				"name" : "multiNameNonZero.maxpat",
				"bootpath" : "~/Desktop/colab2018/jitter.Pal Library/Library",
				"type" : "JSON",
				"implicit" : 1
			}
, 			{
				"name" : "delayInfo.maxpat",
				"bootpath" : "~/Documents/Max 7/Library/UBCToolbox_1.02/Modules/Effects/delay/lib",
				"type" : "JSON",
				"implicit" : 1
			}
, 			{
				"name" : "WetDrySlider4.png",
				"bootpath" : "~/Documents/Max 7/Library/UBCToolbox_1.02/picts",
				"type" : "PNG ",
				"implicit" : 1
			}
, 			{
				"name" : "wetDryKnob2.png",
				"bootpath" : "~/Documents/Max 7/Library/UBCToolbox_1.02/picts",
				"type" : "PNG ",
				"implicit" : 1
			}
, 			{
				"name" : "spiral01.png",
				"bootpath" : "~/Documents/Max 7/Library/UBCToolbox_1.02/picts",
				"type" : "PNG ",
				"implicit" : 1
			}
, 			{
				"name" : "info.png",
				"bootpath" : "~/Documents/Max 7/Library/UBCToolbox_1.02/picts",
				"type" : "PNG ",
				"implicit" : 1
			}
, 			{
				"name" : "muter.maxpat",
				"bootpath" : "~/Documents/Max 7/Library/UBCToolbox_1.02/ubcLib",
				"type" : "JSON",
				"implicit" : 1
			}
, 			{
				"name" : "nTbp_.maxpat",
				"bootpath" : "~/Desktop/colab2018/jitter.Pal Library/Library",
				"type" : "JSON",
				"implicit" : 1
			}
, 			{
				"name" : "sliderTrack6.png",
				"bootpath" : "~/Documents/Max 7/Library/UBCToolbox_1.02/picts",
				"type" : "PNG ",
				"implicit" : 1
			}
, 			{
				"name" : "sliderKnob3.png",
				"bootpath" : "~/Documents/Max 7/Library/UBCToolbox_1.02/picts",
				"type" : "PNG ",
				"implicit" : 1
			}
, 			{
				"name" : "powerButton03.png",
				"bootpath" : "~/Documents/Max 7/Library/UBCToolbox_1.02/picts",
				"type" : "PNG ",
				"implicit" : 1
			}
, 			{
				"name" : "ol.pngknob.js",
				"bootpath" : "~/Documents/Max 7/Library/UBCToolbox_1.02/picts",
				"type" : "TEXT",
				"implicit" : 1
			}
, 			{
				"name" : "write01.png",
				"bootpath" : "~/Documents/Max 7/Library/UBCToolbox_1.02/picts",
				"type" : "PNG ",
				"implicit" : 1
			}
, 			{
				"name" : "read01.png",
				"bootpath" : "~/Documents/Max 7/Library/UBCToolbox_1.02/picts",
				"type" : "PNG ",
				"implicit" : 1
			}
 ],
		"autosave" : 0,
		"styles" : [ 			{
				"name" : "newobjYellow-1",
				"default" : 				{
					"fontsize" : [ 12.059008 ],
					"accentcolor" : [ 0.82517, 0.78181, 0.059545, 1.0 ]
				}
,
				"parentstyle" : "",
				"multi" : 0
			}
, 			{
				"name" : "numberGold-1",
				"default" : 				{
					"accentcolor" : [ 0.764706, 0.592157, 0.101961, 1.0 ]
				}
,
				"parentstyle" : "",
				"multi" : 0
			}
, 			{
				"name" : "rsliderGold",
				"default" : 				{
					"color" : [ 0.646639, 0.821777, 0.854593, 1.0 ],
					"bgcolor" : [ 0.764706, 0.592157, 0.101961, 1.0 ]
				}
,
				"parentstyle" : "",
				"multi" : 0
			}
 ]
	}

}
