{
	"patcher" : 	{
		"fileversion" : 1,
		"appversion" : 		{
			"major" : 8,
			"minor" : 1,
			"revision" : 8,
			"architecture" : "x64",
			"modernui" : 1
		}
,
		"classnamespace" : "box",
		"rect" : [ 188.0, 85.0, 1014.0, 913.0 ],
		"bglocked" : 0,
		"openinpresentation" : 1,
		"default_fontsize" : 12.0,
		"default_fontface" : 0,
		"default_fontname" : "Arial",
		"gridonopen" : 1,
		"gridsize" : [ 15.0, 15.0 ],
		"gridsnaponopen" : 1,
		"objectsnaponopen" : 1,
		"statusbarvisible" : 2,
		"toolbarvisible" : 1,
		"lefttoolbarpinned" : 0,
		"toptoolbarpinned" : 0,
		"righttoolbarpinned" : 0,
		"bottomtoolbarpinned" : 0,
		"toolbars_unpinned_last_save" : 0,
		"tallnewobj" : 0,
		"boxanimatetime" : 200,
		"enablehscroll" : 1,
		"enablevscroll" : 1,
		"devicewidth" : 0.0,
		"description" : "",
		"digest" : "",
		"tags" : "",
		"style" : "",
		"subpatcher_template" : "",
		"assistshowspatchername" : 0,
		"boxes" : [ 			{
				"box" : 				{
					"fontname" : "Arial",
					"fontsize" : 10.0,
					"id" : "obj-4",
					"maxclass" : "comment",
					"numinlets" : 1,
					"numoutlets" : 0,
					"patching_rect" : [ 138.0, 70.0, 58.0, 18.0 ],
					"presentation" : 1,
					"presentation_rect" : [ 31.300003000000004, 40.699997000000003, 53.400002000000001, 18.0 ],
					"text" : "RELOAD"
				}

			}
, 			{
				"box" : 				{
					"frames" : 1,
					"id" : "obj-87",
					"imagemask" : 1,
					"maxclass" : "pictctrl",
					"multiplier" : 1,
					"name" : "counterclockwise.png",
					"numinlets" : 1,
					"numoutlets" : 1,
					"outlettype" : [ "int" ],
					"parameter_enable" : 0,
					"patching_rect" : [ 461.0, 276.869141000000013, 18.0, 18.0 ],
					"presentation" : 1,
					"presentation_rect" : [ 40.099997999999999, 54.5, 18.0, 18.0 ],
					"range" : 201,
					"trackhorizontal" : 1,
					"tracking" : 1,
					"trackvertical" : 1
				}

			}
, 			{
				"box" : 				{
					"fontface" : 0,
					"fontsize" : 9.0,
					"id" : "obj-41",
					"maxclass" : "newobj",
					"numinlets" : 9,
					"numoutlets" : 4,
					"outlettype" : [ "bang", "bang", "bang", "bang" ],
					"patching_rect" : [ 523.0, 244.0, 245.0, 19.0 ],
					"presentation" : 1,
					"presentation_rect" : [ 6.0, 100.900002000000001, 93.0, 19.0 ],
					"text" : "ezOSCSenderMD #1"
				}

			}
, 			{
				"box" : 				{
					"fontname" : "Arial",
					"fontsize" : 10.0,
					"id" : "obj-5",
					"maxclass" : "comment",
					"numinlets" : 1,
					"numoutlets" : 0,
					"patching_rect" : [ 123.0, 55.0, 58.0, 18.0 ],
					"presentation" : 1,
					"presentation_rect" : [ 115.299999000000014, 40.699997000000003, 53.400002000000001, 18.0 ],
					"text" : "TARGET"
				}

			}
, 			{
				"box" : 				{
					"fontname" : "Arial",
					"fontsize" : 10.0,
					"id" : "obj-1",
					"maxclass" : "comment",
					"numinlets" : 1,
					"numoutlets" : 0,
					"patching_rect" : [ 123.0, 55.0, 58.0, 18.0 ],
					"presentation" : 1,
					"presentation_linecount" : 2,
					"presentation_rect" : [ 3.799999, 73.699996999999996, 37.299999, 29.0 ],
					"text" : "DATA OUT",
					"textjustification" : 2
				}

			}
, 			{
				"box" : 				{
					"fontname" : "Arial",
					"fontsize" : 10.0,
					"id" : "obj-53",
					"linecount" : 2,
					"maxclass" : "comment",
					"numinlets" : 1,
					"numoutlets" : 0,
					"patching_rect" : [ 138.0, 70.0, 58.0, 29.0 ],
					"presentation" : 1,
					"presentation_linecount" : 2,
					"presentation_rect" : [ 121.0, 95.400002000000001, 42.0, 29.0 ],
					"text" : "Bundle Mode"
				}

			}
, 			{
				"box" : 				{
					"fontname" : "Arial",
					"fontsize" : 10.0,
					"id" : "obj-49",
					"maxclass" : "comment",
					"numinlets" : 1,
					"numoutlets" : 0,
					"patching_rect" : [ 123.0, 55.0, 58.0, 18.0 ],
					"presentation" : 1,
					"presentation_rect" : [ 160.0, 100.900002000000001, 30.400002000000001, 18.0 ],
					"text" : "Port:"
				}

			}
, 			{
				"box" : 				{
					"fontname" : "Arial",
					"fontsize" : 10.0,
					"id" : "obj-48",
					"maxclass" : "comment",
					"numinlets" : 1,
					"numoutlets" : 0,
					"patching_rect" : [ 108.0, 40.0, 58.0, 18.0 ],
					"presentation" : 1,
					"presentation_rect" : [ 62.800002999999997, 76.699996999999996, 32.0, 18.0 ],
					"text" : "Host:"
				}

			}
, 			{
				"box" : 				{
					"fontname" : "Arial",
					"fontsize" : 9.0,
					"id" : "obj-47",
					"maxclass" : "newobj",
					"numinlets" : 1,
					"numoutlets" : 1,
					"outlettype" : [ "int" ],
					"patching_rect" : [ 50.0, 80.0, 45.0, 19.0 ],
					"text" : "bControl"
				}

			}
, 			{
				"box" : 				{
					"bgcolor" : [ 0.862745, 0.870588, 0.878431, 1.0 ],
					"checkedcolor" : [ 0.0, 0.0, 0.0, 1.0 ],
					"id" : "obj-66",
					"maxclass" : "toggle",
					"numinlets" : 1,
					"numoutlets" : 1,
					"outlettype" : [ "int" ],
					"parameter_enable" : 0,
					"patching_rect" : [ 788.0, 196.869141000000013, 16.0, 16.0 ],
					"presentation" : 1,
					"presentation_rect" : [ 106.0, 101.900002000000001, 16.0, 16.0 ],
					"uncheckedcolor" : [ 0.65098, 0.666667, 0.662745, 1.0 ]
				}

			}
, 			{
				"box" : 				{
					"fontface" : 0,
					"fontname" : "Arial",
					"fontsize" : 10.0,
					"id" : "obj-17",
					"maxclass" : "newobj",
					"numinlets" : 1,
					"numoutlets" : 2,
					"outlettype" : [ "", "" ],
					"patching_rect" : [ 711.5, 144.599990999999989, 155.0, 20.0 ],
					"text" : "MRrC #1 @r ezOSCSenderData"
				}

			}
, 			{
				"box" : 				{
					"fontface" : 0,
					"fontname" : "Arial",
					"fontsize" : 10.0,
					"id" : "obj-30",
					"maxclass" : "newobj",
					"numinlets" : 1,
					"numoutlets" : 2,
					"outlettype" : [ "", "" ],
					"patching_rect" : [ 705.0, 115.0, 152.0, 20.0 ],
					"text" : "MRrC #1 @r ezOSCSenderPort"
				}

			}
, 			{
				"box" : 				{
					"fontface" : 0,
					"fontname" : "Arial",
					"fontsize" : 10.0,
					"id" : "obj-29",
					"maxclass" : "newobj",
					"numinlets" : 1,
					"numoutlets" : 2,
					"outlettype" : [ "", "" ],
					"patching_rect" : [ 696.90002400000003, 87.199996999999996, 155.0, 20.0 ],
					"text" : "MRrC #1 @r ezOSCSenderHost"
				}

			}
, 			{
				"box" : 				{
					"fontface" : 0,
					"fontname" : "Arial",
					"fontsize" : 10.0,
					"id" : "obj-36",
					"maxclass" : "newobj",
					"numinlets" : 1,
					"numoutlets" : 2,
					"outlettype" : [ "", "" ],
					"patching_rect" : [ 661.5, 7.0, 162.0, 20.0 ],
					"text" : "MRrC #1 @r ezOSCSenderTarget"
				}

			}
, 			{
				"box" : 				{
					"bgcolor" : [ 0.862745, 0.870588, 0.878431, 1.0 ],
					"bordercolor" : [ 0.65098, 0.666667, 0.662745, 1.0 ],
					"fontsize" : 10.0,
					"id" : "obj-42",
					"maxclass" : "textedit",
					"numinlets" : 1,
					"numoutlets" : 4,
					"outlettype" : [ "", "int", "", "" ],
					"parameter_enable" : 0,
					"patching_rect" : [ 788.0, 245.0, 47.0, 18.0 ],
					"presentation" : 1,
					"presentation_rect" : [ 187.925003000000004, 100.800003000000004, 41.0, 18.200001 ],
					"textcolor" : [ 0.0, 0.0, 0.0, 1.0 ]
				}

			}
, 			{
				"box" : 				{
					"bgcolor" : [ 0.862745, 0.870588, 0.878431, 1.0 ],
					"bordercolor" : [ 0.65098, 0.666667, 0.662745, 1.0 ],
					"fontsize" : 10.0,
					"id" : "obj-43",
					"maxclass" : "textedit",
					"numinlets" : 1,
					"numoutlets" : 4,
					"outlettype" : [ "", "int", "", "" ],
					"parameter_enable" : 0,
					"patching_rect" : [ 660.5, 276.869141000000013, 151.0, 17.0 ],
					"presentation" : 1,
					"presentation_rect" : [ 93.0, 76.699996999999996, 135.0, 20.0 ],
					"textcolor" : [ 0.0, 0.0, 0.0, 1.0 ]
				}

			}
, 			{
				"box" : 				{
					"frames" : 1,
					"id" : "obj-247",
					"maxclass" : "pictctrl",
					"mode" : 1,
					"multiplier" : 1,
					"name" : "powerButton03.png",
					"numinlets" : 1,
					"numoutlets" : 1,
					"outlettype" : [ "int" ],
					"parameter_enable" : 0,
					"patching_rect" : [ 254.555556999999993, 55.0, 32.0, 32.0 ],
					"presentation" : 1,
					"presentation_rect" : [ 194.0, 19.0, 32.0, 32.0 ],
					"range" : 201,
					"threshold" : 0.94,
					"trackhorizontal" : 1,
					"tracking" : 1,
					"trackvertical" : 1,
					"varname" : "pictctrl"
				}

			}
, 			{
				"box" : 				{
					"fontname" : "Arial",
					"fontsize" : 10.0,
					"id" : "obj-129",
					"maxclass" : "newobj",
					"numinlets" : 1,
					"numoutlets" : 1,
					"outlettype" : [ "" ],
					"patching_rect" : [ 689.0, 55.0, 135.0, 20.0 ],
					"text" : "nTbp_ #1 @name SENDER"
				}

			}
, 			{
				"box" : 				{
					"fontface" : 0,
					"fontname" : "Arial",
					"fontsize" : 10.0,
					"id" : "obj-51",
					"maxclass" : "newobj",
					"numinlets" : 1,
					"numoutlets" : 2,
					"outlettype" : [ "", "" ],
					"patching_rect" : [ 667.0, 32.0, 161.0, 20.0 ],
					"text" : "MRrC #1 @r ezOSCSenderOnOff"
				}

			}
, 			{
				"box" : 				{
					"fontname" : "Arial",
					"fontsize" : 11.595186999999999,
					"id" : "obj-52",
					"maxclass" : "newobj",
					"numinlets" : 4,
					"numoutlets" : 0,
					"patching_rect" : [ 40.0, 298.0, 113.0, 22.0 ],
					"text" : "bgcolor 0.8 0.8 1. 1."
				}

			}
, 			{
				"box" : 				{
					"fontname" : "Arial",
					"fontsize" : 10.0,
					"id" : "obj-2",
					"maxclass" : "comment",
					"numinlets" : 1,
					"numoutlets" : 0,
					"patching_rect" : [ 5.0, 25.0, 50.0, 18.0 ],
					"presentation" : 1,
					"presentation_rect" : [ 5.0, 4.0, 50.0, 18.0 ],
					"text" : "TARGET"
				}

			}
, 			{
				"box" : 				{
					"fontname" : "Arial",
					"fontsize" : 10.0,
					"id" : "obj-3",
					"maxclass" : "comment",
					"numinlets" : 1,
					"numoutlets" : 0,
					"patching_rect" : [ 78.5, 25.0, 73.0, 18.0 ],
					"presentation" : 1,
					"presentation_rect" : [ 88.0, 4.0, 72.0, 18.0 ],
					"text" : "MESSAGE IN"
				}

			}
, 			{
				"box" : 				{
					"bgfillcolor_angle" : 270.0,
					"bgfillcolor_autogradient" : 0,
					"bgfillcolor_color" : [ 0.290196, 0.309804, 0.301961, 1.0 ],
					"bgfillcolor_color1" : [ 1.0, 1.0, 1.0, 1.0 ],
					"bgfillcolor_color2" : [ 0.65098, 0.666667, 0.662745, 1.0 ],
					"bgfillcolor_proportion" : 0.39,
					"bgfillcolor_type" : "gradient",
					"fontsize" : 9.0,
					"id" : "obj-11",
					"items" : [ "Select a target, or enter manually...", ",", "blackhole" ],
					"labelclick" : 1,
					"maxclass" : "umenu",
					"numinlets" : 1,
					"numoutlets" : 3,
					"outlettype" : [ "int", "", "" ],
					"parameter_enable" : 0,
					"patching_rect" : [ 490.0, 276.869141000000013, 136.0, 19.0 ],
					"presentation" : 1,
					"presentation_rect" : [ 62.199997000000003, 54.5, 163.800003000000004, 19.0 ],
					"textcolor" : [ 0.0, 0.0, 0.0, 1.0 ]
				}

			}
, 			{
				"box" : 				{
					"comment" : "(symbol target) name of target (from drop down list) to connect to",
					"id" : "obj-12",
					"index" : 0,
					"maxclass" : "inlet",
					"numinlets" : 0,
					"numoutlets" : 1,
					"outlettype" : [ "" ],
					"patching_rect" : [ 5.0, 25.0, 26.0, 26.0 ]
				}

			}
, 			{
				"box" : 				{
					"comment" : "(symbol data) network message to send",
					"id" : "obj-13",
					"index" : 0,
					"maxclass" : "inlet",
					"numinlets" : 0,
					"numoutlets" : 1,
					"outlettype" : [ "" ],
					"patching_rect" : [ 214.0, 214.0, 26.0, 26.0 ]
				}

			}
, 			{
				"box" : 				{
					"frames" : 1,
					"id" : "obj-15",
					"imagemask" : 1,
					"maxclass" : "pictctrl",
					"mode" : 1,
					"multiplier" : 1,
					"name" : "largeGreenButton6.png",
					"numinlets" : 1,
					"numoutlets" : 1,
					"outlettype" : [ "int" ],
					"parameter_enable" : 0,
					"patching_rect" : [ 7.0, 70.0, 30.0, 32.0 ],
					"presentation" : 1,
					"presentation_rect" : [ 40.099997999999999, 76.699996999999996, 19.599997999999999, 20.5 ],
					"range" : 201,
					"trackhorizontal" : 1,
					"tracking" : 1,
					"trackvertical" : 1
				}

			}
, 			{
				"box" : 				{
					"fontname" : "Arial",
					"fontsize" : 9.0,
					"id" : "obj-19",
					"maxclass" : "newobj",
					"numinlets" : 1,
					"numoutlets" : 1,
					"outlettype" : [ "int" ],
					"patching_rect" : [ 35.0, 265.0, 45.0, 19.0 ],
					"text" : "bControl"
				}

			}
, 			{
				"box" : 				{
					"fontname" : "Arial",
					"fontsize" : 10.0,
					"id" : "obj-20",
					"maxclass" : "comment",
					"numinlets" : 1,
					"numoutlets" : 0,
					"patching_rect" : [ 177.0, 25.0, 52.0, 18.0 ],
					"presentation" : 1,
					"presentation_rect" : [ 178.0, 4.0, 52.0, 18.0 ],
					"text" : "ON / OFF"
				}

			}
, 			{
				"box" : 				{
					"fontname" : "Arial Black",
					"fontsize" : 14.0,
					"id" : "obj-21",
					"maxclass" : "comment",
					"numinlets" : 1,
					"numoutlets" : 0,
					"patching_rect" : [ 14.0, 34.0, 110.0, 26.0 ],
					"presentation" : 1,
					"presentation_rect" : [ 8.799999, 19.5, 58.0, 26.0 ],
					"text" : "ezOSC"
				}

			}
, 			{
				"box" : 				{
					"fontname" : "Arial",
					"fontsize" : 9.0,
					"id" : "obj-22",
					"maxclass" : "newobj",
					"numinlets" : 1,
					"numoutlets" : 1,
					"outlettype" : [ "" ],
					"patching_rect" : [ 289.0, 220.0, 50.0, 19.0 ],
					"text" : "pcontrol"
				}

			}
, 			{
				"box" : 				{
					"fontname" : "Arial",
					"fontsize" : 9.0,
					"id" : "obj-23",
					"maxclass" : "message",
					"numinlets" : 2,
					"numoutlets" : 1,
					"outlettype" : [ "" ],
					"patching_rect" : [ 289.0, 201.0, 29.0, 19.0 ],
					"text" : "open"
				}

			}
, 			{
				"box" : 				{
					"fontface" : 0,
					"fontname" : "Arial",
					"fontsize" : 9.0,
					"id" : "obj-24",
					"maxclass" : "newobj",
					"numinlets" : 1,
					"numoutlets" : 0,
					"patching_rect" : [ 289.0, 244.0, 84.0, 19.0 ],
					"text" : "ezOSCSenderInfo"
				}

			}
, 			{
				"box" : 				{
					"comment" : "",
					"id" : "obj-25",
					"index" : 0,
					"maxclass" : "inlet",
					"numinlets" : 0,
					"numoutlets" : 1,
					"outlettype" : [ "" ],
					"patching_rect" : [ 244.0, 12.0, 15.0, 15.0 ]
				}

			}
, 			{
				"box" : 				{
					"fontname" : "Arial Black",
					"fontsize" : 14.0,
					"id" : "obj-26",
					"maxclass" : "comment",
					"numinlets" : 1,
					"numoutlets" : 0,
					"patching_rect" : [ 71.0, 40.0, 110.0, 26.0 ],
					"presentation" : 1,
					"presentation_rect" : [ 62.199997000000003, 19.5, 105.0, 26.0 ],
					"text" : "SENDER"
				}

			}
, 			{
				"box" : 				{
					"frames" : 1,
					"id" : "obj-27",
					"imagemask" : 1,
					"maxclass" : "pictctrl",
					"multiplier" : 1,
					"name" : "largeGreen.png",
					"numinlets" : 1,
					"numoutlets" : 1,
					"outlettype" : [ "int" ],
					"parameter_enable" : 0,
					"patching_rect" : [ 148.0, 25.0, 18.0, 18.0 ],
					"presentation" : 1,
					"presentation_rect" : [ 72.199996999999996, 3.0, 18.0, 18.0 ],
					"range" : 201,
					"trackhorizontal" : 1,
					"tracking" : 1,
					"trackvertical" : 1
				}

			}
, 			{
				"box" : 				{
					"fontname" : "Arial",
					"fontsize" : 9.0,
					"id" : "obj-28",
					"maxclass" : "newobj",
					"numinlets" : 2,
					"numoutlets" : 1,
					"outlettype" : [ "" ],
					"patching_rect" : [ 35.0, 165.0, 43.0, 19.0 ],
					"text" : "gate"
				}

			}
, 			{
				"box" : 				{
					"data" : [ 1962, "", "IBkSG0fBZn....PCIgDQRA...3A....HHX....PA.g7e....DLmPIQEBHf.B7g.YHB..GDVRDEDUHkXwVsGTTccG96t6xiEXgcYYQX40BDb4gUdHTJhn.RTK0jZssXJTmAqVazIowXR6zJLELsoRJXEyiIwDiBkvjHKO7EPjntKFYATggEW.AA4MBgcwc44991+v6xfvBRyjY52LmYO2y467669862u6rGf+OAhenBTc0UmqMdUQuMWNreHSAAetTRIEiqDeFKdg+8QNh6Zpu9c3mO9nywziszjS9MztZDtu1kezNteq+ooldJr8TWid.TvJwml4IkTRIz+Wu1eH8ot6ck3IMZmKt.D9E18P0EdOwW1kUivJFeTgpzYBM08nHi+RFm4HG3.MT8EKMomqv8MXO69aEU5481fo05tybPG5mAg5n66oyqW8qsZDNl3R7s3v262km2dce8FLX8suw0h9r4meIkV7mcPKwmt4IrYY+aXauCsgdgFDqW9g5teyvuvhB9yhS7qyg965xxGW9JI7mc9y+jlZQ1MyImb9JBC5d40vkKuwd7nLap9Fdo7x68Ldgxuzsrniibiw0c6VoGZlbFTPGMij7zOTVIEBVbbGQF71yq2FuZXqFmmVZo8j313lFwC9d.dt6NzXfDu+Ix83sdGoOSZedGelO9SFR1P8+RC1QaNSn0Hzvf.BXXCtW+chjS7WwRwv8yNBmZ6FWRlZMqjvW+5WOBFFL7WcxQmrkFAMXhzHFe7wIlZ5o8trqTYY4kWd5dFG6u+9OvQO7QOF80EhIBRfa22ifWNuFL4i5G0bmaAOsxkWgmyA7OVIQkVRILGqyVeWqs1Nm7Pf+3GEVnH5MEKh5mDEprhKFuxgGNlkjpA.hN5nEkd5GJ0aLsRsboYCNYS2FI5WP3d2pFLjxIPbA+KOzn2o5ksSkwrskAi5+ncL2CpFzsBvfM1BOCZ8pBOtDmynISn2AGLxkjpMiqboK0FcafQcVaZqtYzZP2DI72NGQsM0.TL7XDcLP2ADe7tciqUWOpV3455qKLUMxpHeR8ZwzCHG549Bvk.BqlHBcca0U2bqtZppxTiYyw04WcAQUsDGaFyNMxYRno3mPX.s83QQgOnM7k81IFbjgP.vwXTNmsu4B42qjxCZx6W46XfzDLQXEPD6A7CayE4NONo4latMloYmsM6XxzjSNvYLKlpW.HILYLCoynnmZlYLnQiF75drVr2suSnWf6ffksyGfAjK2Y0sV4mqQwf9qV0bPE6ffeIs2O0UWc8fAFXfJ..lwnQs9DvZ0xyMWGZ9xxxUu5aTzuKtfTFeNsYmju9GdWpUw+.EcVZCQnd5.WG+uE.PrXwLT0vYKblQdPLyMmALJ3BOhausylkcY3qu9Ne2OKVrn8q+MocQF1XijmmiA.fBEn4Img7mmd9mNxVcDkU0.iLqWQtMGXGzK9myM22xd9pa4Mmp66tScZzCEDb.2D1WO9IT37N0LjIS1nqgO+euPgBej40Vt+chnjRJgVJojhwrxJKZgDRHD73winrh+zyzrJW9c4dhLGw5GV46aT54xYtY0hQTaDL13Ad7527OMsfBvWwqjYLikzUaFhDIB..0VasjAGbvD1au83k28qzZy2s9cz12wz2WLHG1hpGTOckp0AEdkDBbi6H2vWevEZISjUVYQq1Zqkb07BsrnQI0jQTaKExSUlLRok+Ij+mSlI4cZR16jUVYs3xFwhFe+Q+Mb0MbuSt2NJ6C9ajAr4TIqnIkjMKqEYRkJkok3KVrXFxkK2ZKs2J1bQAB.fFppLOGWZwEM6HcGH6dEiWeq7QlYlElj4K3iUVgHrzASHgDLJRjHCVZuksFu.QIarv+IWccdyRIUNzFlcRUPsI6.2e7tFxZ8JG7KulLuRL4j8eSwFw2bQQhlZwAX4psOOGS1x0JyUBEs9wzld7MM6zSgIMRCVGwuXbAgD9qdn8uu843LxTdpOu5sDYjwb7pppJadNw6Ybj..jN0yE.f9nlKfISlGbagKH4e65cHT1DZwUZ6InGS7vLLXKQhjaVK.PjaH7PMxz0cc3L+vYC2S8G9QsK+KVvE8BC.6ZA50B.j..UKbAR.vdguUbcxtuC.jW9UCmrx8GL4ViPHIEukLXyesjeSmpMHuilSkJNRVNt.Pf4TspE8Kp9uumi4MGa3A.XkIcXbZNCVdKz79GG.DhEK1J.3LAAwjpFoKbpOnH55Y56I3xk6UAvV.Pg.fCUlkC.NM0nOKViaqtpB2MlZeaye9MIXAahb2p5pqtKmhR7.H6DRHgLAPEjjjNJvGeFVWehwGcg57VoRkwRmN81wSKgKzTGgZX4lK1dFhKSYkGbLp6oWodZg+LD5V1460d6sOHEEAThGOkyfxIln3i8G2+WKs7SC..2b2c6VMMaR.UtG.nmIlvIw0TUibcxdR.P1Rqc7gT7xlhW1K57s..xXiMpPJpvymCCFVokxgV5Bh4uvGJfJfRvSSE6xEWboB.P5gGdzqBEJbbQBKgZd1TARE05wSwKcpmUQse5Tb6aQ7V1tvVVzacAVfi4wy3DJw5CKMdoagr..dZ5dUcG5+GP7+.Guu+3+BrzciTPWF9AV.....jTQNQjqBAlf" ],
					"embed" : 1,
					"id" : "obj-31",
					"maxclass" : "fpic",
					"numinlets" : 1,
					"numoutlets" : 1,
					"outlettype" : [ "jit_matrix" ],
					"patching_rect" : [ 7.0, 105.0, 30.0, 32.0 ],
					"presentation" : 1,
					"presentation_rect" : [ 5.0, 40.699997000000003, 30.0, 32.0 ]
				}

			}
, 			{
				"box" : 				{
					"fontface" : 0,
					"fontname" : "Arial",
					"fontsize" : 9.0,
					"id" : "obj-32",
					"maxclass" : "newobj",
					"numinlets" : 1,
					"numoutlets" : 2,
					"outlettype" : [ "bang", "" ],
					"patching_rect" : [ 35.0, 188.0, 29.5, 19.0 ],
					"text" : "t b l"
				}

			}
, 			{
				"box" : 				{
					"handoff" : "",
					"id" : "obj-34",
					"maxclass" : "ubutton",
					"numinlets" : 1,
					"numoutlets" : 4,
					"outlettype" : [ "bang", "bang", "", "int" ],
					"parameter_enable" : 0,
					"patching_rect" : [ 148.0, 34.0, 28.0, 27.0 ],
					"presentation" : 1,
					"presentation_rect" : [ 162.0, 21.5, 28.0, 27.0 ]
				}

			}
, 			{
				"box" : 				{
					"autofit" : 1,
					"id" : "obj-248",
					"maxclass" : "fpic",
					"numinlets" : 1,
					"numoutlets" : 1,
					"outlettype" : [ "jit_matrix" ],
					"patching_rect" : [ 299.555542000000003, 38.0, 28.888888999999999, 30.0 ],
					"pic" : "info.png",
					"presentation" : 1,
					"presentation_rect" : [ 162.0, 19.5, 30.0, 30.0 ]
				}

			}
, 			{
				"box" : 				{
					"angle" : 314.190001999999993,
					"border" : 1,
					"bordercolor" : [ 0.239216, 0.254902, 0.278431, 1.0 ],
					"grad1" : [ 1.0, 1.0, 1.0, 1.0 ],
					"grad2" : [ 1.0, 0.67584, 0.156863, 0.5 ],
					"id" : "obj-35",
					"maxclass" : "panel",
					"mode" : 1,
					"numinlets" : 1,
					"numoutlets" : 0,
					"patching_rect" : [ 0.0, 20.0, 230.0, 124.0 ],
					"presentation" : 1,
					"presentation_rect" : [ 0.0, 0.0, 230.0, 124.0 ],
					"proportion" : 0.39,
					"pt1" : [ 0.049505, 0.06087 ],
					"pt2" : [ 0.945545, 0.982609 ],
					"rounded" : 5,
					"shadow" : 3
				}

			}
 ],
		"lines" : [ 			{
				"patchline" : 				{
					"destination" : [ "obj-41", 1 ],
					"source" : [ "obj-11", 1 ]
				}

			}
, 			{
				"patchline" : 				{
					"destination" : [ "obj-41", 0 ],
					"source" : [ "obj-12", 0 ]
				}

			}
, 			{
				"patchline" : 				{
					"destination" : [ "obj-26", 0 ],
					"midpoints" : [ 698.5, 91.0, 650.0, 91.0, 650.0, 5.0, 80.5, 5.0 ],
					"source" : [ "obj-129", 0 ]
				}

			}
, 			{
				"patchline" : 				{
					"destination" : [ "obj-28", 1 ],
					"midpoints" : [ 223.5, 193.0, 68.5, 193.0 ],
					"source" : [ "obj-13", 0 ]
				}

			}
, 			{
				"patchline" : 				{
					"destination" : [ "obj-28", 1 ],
					"source" : [ "obj-17", 0 ]
				}

			}
, 			{
				"patchline" : 				{
					"destination" : [ "obj-27", 0 ],
					"midpoints" : [ 44.5, 287.0, 62.0, 287.0, 62.0, 73.0, 157.5, 73.0 ],
					"source" : [ "obj-19", 0 ]
				}

			}
, 			{
				"patchline" : 				{
					"destination" : [ "obj-24", 0 ],
					"source" : [ "obj-22", 0 ]
				}

			}
, 			{
				"patchline" : 				{
					"destination" : [ "obj-22", 0 ],
					"source" : [ "obj-23", 0 ]
				}

			}
, 			{
				"patchline" : 				{
					"destination" : [ "obj-28", 0 ],
					"midpoints" : [ 264.055557000000022, 121.0, 44.5, 121.0 ],
					"source" : [ "obj-247", 0 ]
				}

			}
, 			{
				"patchline" : 				{
					"destination" : [ "obj-247", 0 ],
					"midpoints" : [ 253.0, 40.5, 264.055557000000022, 40.5 ],
					"source" : [ "obj-25", 0 ]
				}

			}
, 			{
				"patchline" : 				{
					"destination" : [ "obj-32", 0 ],
					"source" : [ "obj-28", 0 ]
				}

			}
, 			{
				"patchline" : 				{
					"destination" : [ "obj-41", 4 ],
					"source" : [ "obj-29", 0 ]
				}

			}
, 			{
				"patchline" : 				{
					"destination" : [ "obj-41", 5 ],
					"source" : [ "obj-30", 0 ]
				}

			}
, 			{
				"patchline" : 				{
					"destination" : [ "obj-19", 0 ],
					"source" : [ "obj-32", 0 ]
				}

			}
, 			{
				"patchline" : 				{
					"destination" : [ "obj-41", 3 ],
					"source" : [ "obj-32", 1 ]
				}

			}
, 			{
				"patchline" : 				{
					"destination" : [ "obj-23", 0 ],
					"midpoints" : [ 156.0, 154.0, 283.0, 154.0, 283.0, 154.0, 298.5, 154.0 ],
					"source" : [ "obj-34", 0 ]
				}

			}
, 			{
				"patchline" : 				{
					"destination" : [ "obj-41", 0 ],
					"source" : [ "obj-36", 0 ]
				}

			}
, 			{
				"patchline" : 				{
					"destination" : [ "obj-11", 0 ],
					"source" : [ "obj-41", 1 ]
				}

			}
, 			{
				"patchline" : 				{
					"destination" : [ "obj-42", 0 ],
					"source" : [ "obj-41", 3 ]
				}

			}
, 			{
				"patchline" : 				{
					"destination" : [ "obj-43", 0 ],
					"source" : [ "obj-41", 2 ]
				}

			}
, 			{
				"patchline" : 				{
					"destination" : [ "obj-47", 0 ],
					"source" : [ "obj-41", 0 ]
				}

			}
, 			{
				"patchline" : 				{
					"destination" : [ "obj-41", 7 ],
					"source" : [ "obj-42", 0 ]
				}

			}
, 			{
				"patchline" : 				{
					"destination" : [ "obj-41", 2 ],
					"source" : [ "obj-43", 0 ]
				}

			}
, 			{
				"patchline" : 				{
					"destination" : [ "obj-15", 0 ],
					"source" : [ "obj-47", 0 ]
				}

			}
, 			{
				"patchline" : 				{
					"destination" : [ "obj-247", 0 ],
					"midpoints" : [ 676.5, 81.0, 658.0, 81.0, 658.0, 9.0, 264.055557000000022, 9.0 ],
					"source" : [ "obj-51", 0 ]
				}

			}
, 			{
				"patchline" : 				{
					"destination" : [ "obj-41", 6 ],
					"source" : [ "obj-66", 0 ]
				}

			}
, 			{
				"patchline" : 				{
					"destination" : [ "obj-41", 8 ],
					"source" : [ "obj-87", 0 ]
				}

			}
 ],
		"dependency_cache" : [ 			{
				"name" : "info.png",
				"bootpath" : "~/Documents/Max 8/Library/UBCToolbox_1.05/picts",
				"patcherrelativepath" : "../../UBCToolbox_1.05/picts",
				"type" : "PNG",
				"implicit" : 1
			}
, 			{
				"name" : "largeGreen.png",
				"bootpath" : "~/Documents/Max 8/Library/UBCToolbox_1.05/picts",
				"patcherrelativepath" : "../../UBCToolbox_1.05/picts",
				"type" : "PNG",
				"implicit" : 1
			}
, 			{
				"name" : "ezOSCSenderInfo.maxpat",
				"bootpath" : "~/Documents/Max 8/Library/Common - Personal Utility Modules/ezOSC/lib",
				"patcherrelativepath" : "./lib",
				"type" : "JSON",
				"implicit" : 1
			}
, 			{
				"name" : "bControl.maxpat",
				"bootpath" : "~/Documents/Max 8/Library/UBCToolbox_1.05/ubcLib",
				"patcherrelativepath" : "../../UBCToolbox_1.05/ubcLib",
				"type" : "JSON",
				"implicit" : 1
			}
, 			{
				"name" : "largeGreenButton6.png",
				"bootpath" : "~/Documents/Max 8/Library/UBCToolbox_1.05/picts",
				"patcherrelativepath" : "../../UBCToolbox_1.05/picts",
				"type" : "PNG",
				"implicit" : 1
			}
, 			{
				"name" : "MRrC.maxpat",
				"bootpath" : "~/Documents/Max 8/Library/UBCToolbox_1.05/ubcLib",
				"patcherrelativepath" : "../../UBCToolbox_1.05/ubcLib",
				"type" : "JSON",
				"implicit" : 1
			}
, 			{
				"name" : "multiName_.maxpat",
				"bootpath" : "~/Documents/Max 8/Library/UBCToolbox_1.05/ubcLib",
				"patcherrelativepath" : "../../UBCToolbox_1.05/ubcLib",
				"type" : "JSON",
				"implicit" : 1
			}
, 			{
				"name" : "multiNameNonZero.maxpat",
				"bootpath" : "~/Documents/Max 8/Library/UBCToolbox_1.05/ubcLib",
				"patcherrelativepath" : "../../UBCToolbox_1.05/ubcLib",
				"type" : "JSON",
				"implicit" : 1
			}
, 			{
				"name" : "nTbp_.maxpat",
				"bootpath" : "~/Documents/Max 8/Library/UBCToolbox_1.05/ubcLib",
				"patcherrelativepath" : "../../UBCToolbox_1.05/ubcLib",
				"type" : "JSON",
				"implicit" : 1
			}
, 			{
				"name" : "powerButton03.png",
				"bootpath" : "~/Documents/Max 8/Library/UBCToolbox_1.05/picts",
				"patcherrelativepath" : "../../UBCToolbox_1.05/picts",
				"type" : "PNG",
				"implicit" : 1
			}
, 			{
				"name" : "ezOSCSenderMD.maxpat",
				"bootpath" : "~/Documents/Max 8/Library/Common - Personal Utility Modules/ezOSC/lib",
				"patcherrelativepath" : "./lib",
				"type" : "JSON",
				"implicit" : 1
			}
, 			{
				"name" : "counterclockwise.png",
				"bootpath" : "~/Documents/Max 8/Library/UBCToolbox_1.05/picts",
				"patcherrelativepath" : "../../UBCToolbox_1.05/picts",
				"type" : "PNG",
				"implicit" : 1
			}
, 			{
				"name" : "zero.browse.mxe64",
				"type" : "mx64"
			}
, 			{
				"name" : "OpenSoundControl.mxe64",
				"type" : "mx64"
			}
, 			{
				"name" : "zero.resolve.mxe64",
				"type" : "mx64"
			}
 ],
		"autosave" : 0,
		"styles" : [ 			{
				"name" : "newobjYellow-1",
				"default" : 				{
					"fontsize" : [ 12.059008 ],
					"accentcolor" : [ 0.82517, 0.78181, 0.059545, 1.0 ]
				}
,
				"parentstyle" : "",
				"multi" : 0
			}
, 			{
				"name" : "numberGold-1",
				"default" : 				{
					"accentcolor" : [ 0.764706, 0.592157, 0.101961, 1.0 ]
				}
,
				"parentstyle" : "",
				"multi" : 0
			}
, 			{
				"name" : "rsliderGold",
				"default" : 				{
					"color" : [ 0.646639, 0.821777, 0.854593, 1.0 ],
					"bgcolor" : [ 0.764706, 0.592157, 0.101961, 1.0 ]
				}
,
				"parentstyle" : "",
				"multi" : 0
			}
, 			{
				"name" : "utb001",
				"parentstyle" : "",
				"multi" : 0
			}
 ],
		"bgcolor" : [ 0.8, 0.8, 1.0, 1.0 ]
	}

}
