{
	"patcher" : 	{
		"fileversion" : 1,
		"appversion" : 		{
			"major" : 8,
			"minor" : 1,
			"revision" : 8,
			"architecture" : "x64",
			"modernui" : 1
		}
,
		"classnamespace" : "box",
		"rect" : [ 42.0, 86.0, 1430.0, 911.0 ],
		"bglocked" : 0,
		"openinpresentation" : 1,
		"default_fontsize" : 12.0,
		"default_fontface" : 0,
		"default_fontname" : "Arial",
		"gridonopen" : 1,
		"gridsize" : [ 15.0, 15.0 ],
		"gridsnaponopen" : 1,
		"objectsnaponopen" : 1,
		"statusbarvisible" : 2,
		"toolbarvisible" : 1,
		"lefttoolbarpinned" : 0,
		"toptoolbarpinned" : 0,
		"righttoolbarpinned" : 0,
		"bottomtoolbarpinned" : 0,
		"toolbars_unpinned_last_save" : 0,
		"tallnewobj" : 0,
		"boxanimatetime" : 200,
		"enablehscroll" : 1,
		"enablevscroll" : 1,
		"devicewidth" : 0.0,
		"description" : "",
		"digest" : "",
		"tags" : "",
		"style" : "",
		"subpatcher_template" : "",
		"assistshowspatchername" : 0,
		"boxes" : [ 			{
				"box" : 				{
					"fontface" : 0,
					"fontsize" : 9.0,
					"id" : "obj-44",
					"maxclass" : "newobj",
					"numinlets" : 7,
					"numoutlets" : 7,
					"outlettype" : [ "bang", "bang", "int", "", "", "", "" ],
					"patching_rect" : [ 70.0, 316.0, 480.0, 19.0 ],
					"presentation" : 1,
					"presentation_rect" : [ 8.0, 89.0, 100.0, 19.0 ],
					"text" : "ezOSCReceiverMD #1"
				}

			}
, 			{
				"box" : 				{
					"fontname" : "Arial",
					"fontsize" : 10.0,
					"id" : "obj-12",
					"maxclass" : "comment",
					"numinlets" : 1,
					"numoutlets" : 0,
					"patching_rect" : [ 15.0, 143.0, 106.0, 18.0 ],
					"presentation" : 1,
					"presentation_rect" : [ 143.800003000000004, 108.0, 90.199996999999996, 18.0 ],
					"text" : "MY IP AND PORT",
					"textcolor" : [ 0.4, 0.4, 0.8, 1.0 ]
				}

			}
, 			{
				"box" : 				{
					"comment" : "(list) Selected Interface IP Address and Port Number",
					"id" : "obj-5",
					"index" : 0,
					"maxclass" : "outlet",
					"numinlets" : 1,
					"numoutlets" : 0,
					"patching_rect" : [ 579.0, 377.658690999999976, 20.341308999999999, 20.341308999999999 ]
				}

			}
, 			{
				"box" : 				{
					"fontface" : 0,
					"fontname" : "Arial",
					"fontsize" : 10.0,
					"id" : "obj-4",
					"maxclass" : "newobj",
					"numinlets" : 1,
					"numoutlets" : 2,
					"outlettype" : [ "", "" ],
					"patching_rect" : [ 321.0, 273.0, 161.0, 20.0 ],
					"text" : "MRrC #1 @r ezOSCReceiverIpInt"
				}

			}
, 			{
				"box" : 				{
					"bgfillcolor_angle" : 270.0,
					"bgfillcolor_autogradient" : 0,
					"bgfillcolor_color" : [ 0.290196, 0.309804, 0.301961, 1.0 ],
					"bgfillcolor_color1" : [ 1.0, 1.0, 1.0, 1.0 ],
					"bgfillcolor_color2" : [ 0.65098, 0.666667, 0.662745, 1.0 ],
					"bgfillcolor_proportion" : 0.39,
					"bgfillcolor_type" : "gradient",
					"fontsize" : 8.0,
					"id" : "obj-1",
					"items" : [ "Refresh Interface List...", ",", "eth11", ",", "eth14" ],
					"maxclass" : "umenu",
					"numinlets" : 1,
					"numoutlets" : 3,
					"outlettype" : [ "int", "", "" ],
					"parameter_enable" : 0,
					"patching_rect" : [ 30.5, 380.0, 36.0, 18.0 ],
					"presentation" : 1,
					"presentation_rect" : [ 43.0, 28.5, 40.020746827125549, 18.0 ],
					"textcolor" : [ 0.0, 0.0, 0.0, 1.0 ]
				}

			}
, 			{
				"box" : 				{
					"fontname" : "Arial",
					"fontsize" : 10.0,
					"id" : "obj-49",
					"maxclass" : "comment",
					"numinlets" : 1,
					"numoutlets" : 0,
					"patching_rect" : [ 168.0, 100.0, 58.0, 18.0 ],
					"presentation" : 1,
					"presentation_rect" : [ 144.800003000000004, 87.0, 30.0, 18.0 ],
					"text" : "Port:"
				}

			}
, 			{
				"box" : 				{
					"frames" : 1,
					"id" : "obj-41",
					"imagemask" : 1,
					"maxclass" : "pictctrl",
					"mode" : 1,
					"multiplier" : 1,
					"name" : "largeGreenButton6.png",
					"numinlets" : 1,
					"numoutlets" : 1,
					"outlettype" : [ "int" ],
					"parameter_enable" : 0,
					"patching_rect" : [ 161.0, 160.0, 30.0, 32.0 ],
					"presentation" : 1,
					"presentation_rect" : [ 112.0, 89.0, 29.800003, 29.868964999999999 ],
					"range" : 201,
					"trackhorizontal" : 1,
					"tracking" : 1,
					"trackvertical" : 1
				}

			}
, 			{
				"box" : 				{
					"fontname" : "Arial",
					"fontsize" : 10.0,
					"id" : "obj-40",
					"maxclass" : "comment",
					"numinlets" : 1,
					"numoutlets" : 0,
					"patching_rect" : [ 138.0, 70.0, 58.0, 18.0 ],
					"presentation" : 1,
					"presentation_rect" : [ 8.0, 28.5, 41.0, 18.0 ],
					"text" : "My IP:"
				}

			}
, 			{
				"box" : 				{
					"fontname" : "Arial",
					"fontsize" : 10.0,
					"id" : "obj-48",
					"linecount" : 3,
					"maxclass" : "comment",
					"numinlets" : 1,
					"numoutlets" : 0,
					"patching_rect" : [ 123.0, 55.0, 58.0, 41.0 ],
					"presentation" : 1,
					"presentation_rect" : [ 41.0, 49.5, 157.399993999999992, 18.0 ],
					"text" : "Instance Name (for Discovery)"
				}

			}
, 			{
				"box" : 				{
					"fontface" : 0,
					"fontname" : "Arial",
					"fontsize" : 10.0,
					"id" : "obj-16",
					"maxclass" : "newobj",
					"numinlets" : 1,
					"numoutlets" : 2,
					"outlettype" : [ "", "" ],
					"patching_rect" : [ 662.5, 100.0, 168.0, 20.0 ],
					"text" : "MRrC #1 @r ezOSCReceiverName"
				}

			}
, 			{
				"box" : 				{
					"fontface" : 1,
					"fontsize" : 10.0,
					"id" : "obj-17",
					"maxclass" : "comment",
					"numinlets" : 1,
					"numoutlets" : 0,
					"patching_rect" : [ 324.5, 380.0, 128.0, 18.0 ],
					"presentation" : 1,
					"presentation_rect" : [ 81.874691822031011, 28.5, 79.250616355937979, 18.0 ],
					"text" : "172.18.102.177"
				}

			}
, 			{
				"box" : 				{
					"fontface" : 0,
					"fontname" : "Arial",
					"fontsize" : 10.0,
					"id" : "obj-24",
					"maxclass" : "newobj",
					"numinlets" : 1,
					"numoutlets" : 2,
					"outlettype" : [ "", "" ],
					"patching_rect" : [ 662.5, 143.0, 160.0, 20.0 ],
					"text" : "MRrC #1 @r ezOSCReceiverPort"
				}

			}
, 			{
				"box" : 				{
					"bgcolor" : [ 0.862745, 0.870588, 0.878431, 1.0 ],
					"bordercolor" : [ 0.65098, 0.666667, 0.662745, 1.0 ],
					"fontsize" : 10.0,
					"id" : "obj-37",
					"maxclass" : "textedit",
					"numinlets" : 1,
					"numoutlets" : 4,
					"outlettype" : [ "", "int", "", "" ],
					"parameter_enable" : 0,
					"patching_rect" : [ 205.0, 380.0, 93.0, 18.0 ],
					"presentation" : 1,
					"presentation_rect" : [ 172.0, 87.0, 50.0, 17.0 ],
					"text" : "3000",
					"textcolor" : [ 0.0, 0.0, 0.0, 1.0 ]
				}

			}
, 			{
				"box" : 				{
					"bgcolor" : [ 0.862745, 0.870588, 0.878431, 1.0 ],
					"bordercolor" : [ 0.65098, 0.666667, 0.662745, 1.0 ],
					"fontsize" : 10.0,
					"id" : "obj-38",
					"maxclass" : "textedit",
					"numinlets" : 1,
					"numoutlets" : 4,
					"outlettype" : [ "", "int", "", "" ],
					"parameter_enable" : 0,
					"patching_rect" : [ 86.0, 380.0, 101.0, 17.0 ],
					"presentation" : 1,
					"presentation_rect" : [ 41.0, 65.0, 181.0, 17.0 ],
					"textcolor" : [ 0.0, 0.0, 0.0, 1.0 ]
				}

			}
, 			{
				"box" : 				{
					"frames" : 1,
					"id" : "obj-247",
					"maxclass" : "pictctrl",
					"mode" : 1,
					"multiplier" : 1,
					"name" : "powerButton03.png",
					"numinlets" : 1,
					"numoutlets" : 1,
					"outlettype" : [ "int" ],
					"parameter_enable" : 0,
					"patching_rect" : [ 279.0, 20.0, 32.0, 32.0 ],
					"presentation" : 1,
					"presentation_rect" : [ 194.0, 19.0, 32.0, 32.0 ],
					"range" : 201,
					"threshold" : 0.94,
					"trackhorizontal" : 1,
					"tracking" : 1,
					"trackvertical" : 1,
					"varname" : "pictctrl"
				}

			}
, 			{
				"box" : 				{
					"fontface" : 0,
					"fontname" : "Arial",
					"fontsize" : 10.0,
					"id" : "obj-129",
					"maxclass" : "newobj",
					"numinlets" : 1,
					"numoutlets" : 1,
					"outlettype" : [ "" ],
					"patching_rect" : [ 674.0, 68.0, 145.0, 20.0 ],
					"text" : "nTbp_ #1 @name RECEIVER"
				}

			}
, 			{
				"box" : 				{
					"fontface" : 0,
					"fontname" : "Arial",
					"fontsize" : 10.0,
					"id" : "obj-55",
					"maxclass" : "newobj",
					"numinlets" : 1,
					"numoutlets" : 2,
					"outlettype" : [ "", "" ],
					"patching_rect" : [ 634.0, 38.0, 168.0, 20.0 ],
					"text" : "MRrC #1 @r ezOSCReceiverOnOff"
				}

			}
, 			{
				"box" : 				{
					"fontname" : "Arial",
					"fontsize" : 10.0,
					"id" : "obj-53",
					"maxclass" : "newobj",
					"numinlets" : 4,
					"numoutlets" : 0,
					"patching_rect" : [ 308.0, 62.0, 99.0, 20.0 ],
					"text" : "bgcolor 0.8 0.8 1. 1."
				}

			}
, 			{
				"box" : 				{
					"fontname" : "Arial",
					"fontsize" : 10.0,
					"id" : "obj-6",
					"maxclass" : "comment",
					"numinlets" : 1,
					"numoutlets" : 0,
					"patching_rect" : [ 0.0, 128.0, 37.0, 18.0 ],
					"presentation" : 1,
					"presentation_rect" : [ 0.0, 108.0, 37.0, 18.0 ],
					"text" : "DATA",
					"textcolor" : [ 0.4, 0.4, 0.8, 1.0 ]
				}

			}
, 			{
				"box" : 				{
					"comment" : "(list) OSC data out",
					"id" : "obj-13",
					"index" : 0,
					"maxclass" : "outlet",
					"numinlets" : 1,
					"numoutlets" : 0,
					"patching_rect" : [ 494.166655999999989, 380.0, 18.0, 18.0 ]
				}

			}
, 			{
				"box" : 				{
					"fontname" : "Arial",
					"fontsize" : 9.0,
					"id" : "obj-25",
					"maxclass" : "newobj",
					"numinlets" : 1,
					"numoutlets" : 1,
					"outlettype" : [ "int" ],
					"patching_rect" : [ 38.0, 237.0, 45.0, 19.0 ],
					"text" : "bControl"
				}

			}
, 			{
				"box" : 				{
					"fontname" : "Arial",
					"fontsize" : 10.0,
					"id" : "obj-27",
					"maxclass" : "comment",
					"numinlets" : 1,
					"numoutlets" : 0,
					"patching_rect" : [ 178.0, 23.0, 52.0, 18.0 ],
					"presentation" : 1,
					"presentation_rect" : [ 178.0, 3.0, 52.0, 18.0 ],
					"text" : "ON / OFF"
				}

			}
, 			{
				"box" : 				{
					"fontname" : "Arial Black",
					"fontsize" : 14.0,
					"id" : "obj-28",
					"maxclass" : "comment",
					"numinlets" : 1,
					"numoutlets" : 0,
					"patching_rect" : [ 5.0, 30.0, 110.0, 26.0 ],
					"presentation" : 1,
					"presentation_rect" : [ 8.0, 2.5, 110.0, 26.0 ],
					"text" : "ezOSC"
				}

			}
, 			{
				"box" : 				{
					"fontname" : "Arial",
					"fontsize" : 9.0,
					"id" : "obj-29",
					"maxclass" : "newobj",
					"numinlets" : 1,
					"numoutlets" : 1,
					"outlettype" : [ "" ],
					"patching_rect" : [ 311.0, 129.0, 50.0, 19.0 ],
					"text" : "pcontrol"
				}

			}
, 			{
				"box" : 				{
					"fontname" : "Arial",
					"fontsize" : 9.0,
					"id" : "obj-30",
					"maxclass" : "message",
					"numinlets" : 2,
					"numoutlets" : 1,
					"outlettype" : [ "" ],
					"patching_rect" : [ 311.0, 110.0, 29.0, 19.0 ],
					"text" : "open"
				}

			}
, 			{
				"box" : 				{
					"fontface" : 0,
					"fontname" : "Arial",
					"fontsize" : 9.0,
					"id" : "obj-31",
					"maxclass" : "newobj",
					"numinlets" : 1,
					"numoutlets" : 0,
					"patching_rect" : [ 311.0, 153.0, 90.0, 19.0 ],
					"text" : "ezOSCReceiverInfo"
				}

			}
, 			{
				"box" : 				{
					"comment" : "(int) On/Off (0-1)",
					"id" : "obj-32",
					"index" : 0,
					"maxclass" : "inlet",
					"numinlets" : 0,
					"numoutlets" : 1,
					"outlettype" : [ "" ],
					"patching_rect" : [ 238.0, 23.0, 15.0, 15.0 ]
				}

			}
, 			{
				"box" : 				{
					"fontname" : "Arial Black",
					"fontsize" : 14.0,
					"id" : "obj-33",
					"maxclass" : "comment",
					"numinlets" : 1,
					"numoutlets" : 0,
					"patching_rect" : [ 5.0, 44.0, 127.0, 26.0 ],
					"presentation" : 1,
					"presentation_rect" : [ 61.0, 2.5, 121.0, 26.0 ],
					"text" : "RECEIVER"
				}

			}
, 			{
				"box" : 				{
					"fontname" : "Arial",
					"fontsize" : 9.0,
					"id" : "obj-35",
					"maxclass" : "newobj",
					"numinlets" : 2,
					"numoutlets" : 1,
					"outlettype" : [ "" ],
					"patching_rect" : [ 38.0, 145.0, 43.0, 19.0 ],
					"text" : "gate"
				}

			}
, 			{
				"box" : 				{
					"data" : [ 1962, "", "IBkSG0fBZn....PCIgDQRA...3A....HHX....PA.g7e....DLmPIQEBHf.B7g.YHB..GDVRDEDUHkXwVsGTTccG96t6xiEXgcYYQX40BDb4gUdHTJhn.RTK0jZssXJTmAqVazIowXR6zJLELsoRJXEyiIwDiBkvjHKO7EPjntKFYATggEW.AA4MBgcwc44991+v6xfvBRyjY52LmYO2y467669862u6rGf+OAhenBTc0UmqMdUQuMWNreHSAAetTRIEiqDeFKdg+8QNh6Zpu9c3mO9nywziszjS9MztZDtu1kezNteq+ooldJr8TWid.TvJwml4IkTRIz+Wu1eH8ot6ck3IMZmKt.D9E18P0EdOwW1kUivJFeTgpzYBM08nHi+RFm4HG3.MT8EKMomqv8MXO69aEU5481fo05tybPG5mAg5n66oyqW8qsZDNl3R7s3v262km2dce8FLX8suw0h9r4meIkV7mcPKwmt4IrYY+aXauCsgdgFDqW9g5teyvuvhB9yhS7qyg965xxGW9JI7mc9y+jlZQ1MyImb9JBC5d40vkKuwd7nLap9Fdo7x68Ldgxuzsrniibiw0c6VoGZlbFTPGMij7zOTVIEBVbbGQF71yq2FuZXqFmmVZo8j313lFwC9d.dt6NzXfDu+Ix83sdGoOSZedGelO9SFR1P8+RC1QaNSn0Hzvf.BXXCtW+chjS7WwRwv8yNBmZ6FWRlZMqjvW+5WOBFFL7WcxQmrkFAMXhzHFe7wIlZ5o8trqTYY4kWd5dFG6u+9OvQO7QOF80EhIBRfa22ifWNuFL4i5G0bmaAOsxkWgmyA7OVIQkVRILGqyVeWqs1Nm7Pf+3GEVnH5MEKh5mDEprhKFuxgGNlkjpA.hN5nEkd5GJ0aLsRsboYCNYS2FI5WP3d2pFLjxIPbA+KOzn2o5ksSkwrskAi5+ncL2CpFzsBvfM1BOCZ8pBOtDmynISn2AGLxkjpMiqboK0FcafQcVaZqtYzZP2DI72NGQsM0.TL7XDcLP2ADe7tciqUWOpV3455qKLUMxpHeR8ZwzCHG549Bvk.BqlHBcca0U2bqtZppxTiYyw04WcAQUsDGaFyNMxYRno3mPX.s83QQgOnM7k81IFbjgP.vwXTNmsu4B42qjxCZx6W46XfzDLQXEPD6A7CayE4NONo4latMloYmsM6XxzjSNvYLKlpW.HILYLCoynnmZlYLnQiF75drVr2suSnWf6ffksyGfAjK2Y0sV4mqQwf9qV0bPE6ffeIs2O0UWc8fAFXfJ..lwnQs9DvZ0xyMWGZ9xxxUu5aTzuKtfTFeNsYmju9GdWpUw+.EcVZCQnd5.WG+uE.PrXwLT0vYKblQdPLyMmALJ3BOhausylkcY3qu9Ne2OKVrn8q+MocQF1XijmmiA.fBEn4Img7mmd9mNxVcDkU0.iLqWQtMGXGzK9myM22xd9pa4Mmp66tScZzCEDb.2D1WO9IT37N0LjIS1nqgO+euPgBej40Vt+chnjRJgVJojhwrxJKZgDRHD73winrh+zyzrJW9c4dhLGw5GV46aT54xYtY0hQTaDL13Ad7527OMsfBvWwqjYLikzUaFhDIB..0VasjAGbvD1au83k28qzZy2s9cz12wz2WLHG1hpGTOckp0AEdkDBbi6H2vWevEZISjUVYQq1Zqkb07BsrnQI0jQTaKExSUlLRok+Ij+mSlI4cZR16jUVYs3xFwhFe+Q+Mb0MbuSt2NJ6C9ajAr4TIqnIkjMKqEYRkJkok3KVrXFxkK2ZKs2J1bQAB.fFppLOGWZwEM6HcGH6dEiWeq7QlYlElj4K3iUVgHrzASHgDLJRjHCVZuksFu.QIarv+IWccdyRIUNzFlcRUPsI6.2e7tFxZ8JG7KulLuRL4j8eSwFw2bQQhlZwAX4psOOGS1x0JyUBEs9wzld7MM6zSgIMRCVGwuXbAgD9qdn8uu843LxTdpOu5sDYjwb7pppJadNw6Ybj..jN0yE.f9nlKfISlGbagKH4e65cHT1DZwUZ6InGS7vLLXKQhjaVK.PjaH7PMxz0cc3L+vYC2S8G9QsK+KVvE8BC.6ZA50B.j..UKbAR.vdguUbcxtuC.jW9UCmrx8GL4ViPHIEukLXyesjeSmpMHuilSkJNRVNt.Pf4TspE8Kp9uumi4MGa3A.XkIcXbZNCVdKz79GG.DhEK1J.3LAAwjpFoKbpOnH55Y56I3xk6UAvV.Pg.fCUlkC.NM0nOKViaqtpB2MlZeaye9MIXAahb2p5pqtKmhR7.H6DRHgLAPEjjjNJvGeFVWehwGcg57VoRkwRmN81wSKgKzTGgZX4lK1dFhKSYkGbLp6oWodZg+LD5V1460d6sOHEEAThGOkyfxIln3i8G2+WKs7SC..2b2c6VMMaR.UtG.nmIlvIw0TUibcxdR.P1Rqc7gT7xlhW1K57s..xXiMpPJpvymCCFVokxgV5Bh4uvGJfJfRvSSE6xEWboB.P5gGdzqBEJbbQBKgZd1TARE05wSwKcpmUQse5Tb6aQ7V1tvVVzacAVfi4wy3DJw5CKMdoagr..dZ5dUcG5+GP7+.Guu+3+BrzciTPWF9AV.....jTQNQjqBAlf" ],
					"embed" : 1,
					"id" : "obj-39",
					"maxclass" : "fpic",
					"numinlets" : 1,
					"numoutlets" : 1,
					"outlettype" : [ "jit_matrix" ],
					"patching_rect" : [ 128.0, 30.0, 30.0, 32.0 ],
					"presentation" : 1,
					"presentation_rect" : [ 8.0, 49.5, 30.0, 32.0 ]
				}

			}
, 			{
				"box" : 				{
					"fontface" : 0,
					"fontname" : "Arial",
					"fontsize" : 9.0,
					"id" : "obj-45",
					"maxclass" : "newobj",
					"numinlets" : 1,
					"numoutlets" : 1,
					"outlettype" : [ "bang" ],
					"patching_rect" : [ 38.0, 173.0, 21.0, 19.0 ],
					"text" : "t b"
				}

			}
, 			{
				"box" : 				{
					"handoff" : "",
					"id" : "obj-50",
					"maxclass" : "ubutton",
					"numinlets" : 1,
					"numoutlets" : 4,
					"outlettype" : [ "bang", "bang", "", "int" ],
					"parameter_enable" : 0,
					"patching_rect" : [ 190.0, 33.0, 28.0, 27.0 ],
					"presentation" : 1,
					"presentation_rect" : [ 163.5, 21.5, 28.0, 27.0 ]
				}

			}
, 			{
				"box" : 				{
					"autofit" : 1,
					"id" : "obj-248",
					"maxclass" : "fpic",
					"numinlets" : 1,
					"numoutlets" : 1,
					"outlettype" : [ "jit_matrix" ],
					"patching_rect" : [ 353.0, 20.0, 28.888888999999999, 30.0 ],
					"pic" : "info.png",
					"presentation" : 1,
					"presentation_rect" : [ 162.5, 21.5, 28.0, 27.0 ]
				}

			}
, 			{
				"box" : 				{
					"angle" : 315.641417999999987,
					"border" : 1,
					"bordercolor" : [ 0.239216, 0.254902, 0.278431, 1.0 ],
					"grad1" : [ 1.0, 1.0, 1.0, 1.0 ],
					"grad2" : [ 1.0, 0.67584, 0.156863, 0.5 ],
					"id" : "obj-52",
					"maxclass" : "panel",
					"mode" : 1,
					"numinlets" : 1,
					"numoutlets" : 0,
					"patching_rect" : [ 0.0, 20.0, 230.0, 124.0 ],
					"presentation" : 1,
					"presentation_rect" : [ 0.0, 0.0, 230.0, 124.0 ],
					"proportion" : 0.39,
					"pt1" : [ 0.024752, 0.026087 ],
					"pt2" : [ 0.985148, 0.965217 ],
					"rounded" : 5,
					"shadow" : 3
				}

			}
 ],
		"lines" : [ 			{
				"patchline" : 				{
					"destination" : [ "obj-44", 0 ],
					"source" : [ "obj-1", 1 ]
				}

			}
, 			{
				"patchline" : 				{
					"destination" : [ "obj-33", 0 ],
					"midpoints" : [ 683.5, 90.0, 660.0, 90.0, 660.0, 69.0, 417.0, 69.0, 417.0, 6.0, 14.5, 6.0 ],
					"source" : [ "obj-129", 0 ]
				}

			}
, 			{
				"patchline" : 				{
					"destination" : [ "obj-44", 5 ],
					"source" : [ "obj-16", 0 ]
				}

			}
, 			{
				"patchline" : 				{
					"destination" : [ "obj-44", 6 ],
					"source" : [ "obj-24", 0 ]
				}

			}
, 			{
				"patchline" : 				{
					"destination" : [ "obj-35", 0 ],
					"midpoints" : [ 288.5, 156.0, 132.0, 156.0, 132.0, 174.0, 60.0, 174.0, 60.0, 165.0, 47.5, 165.0 ],
					"order" : 1,
					"source" : [ "obj-247", 0 ]
				}

			}
, 			{
				"patchline" : 				{
					"destination" : [ "obj-44", 4 ],
					"midpoints" : [ 288.5, 303.0, 386.833333333333314, 303.0 ],
					"order" : 0,
					"source" : [ "obj-247", 0 ]
				}

			}
, 			{
				"patchline" : 				{
					"destination" : [ "obj-41", 0 ],
					"midpoints" : [ 47.5, 258.0, 93.0, 258.0, 93.0, 171.0, 147.0, 171.0, 147.0, 156.0, 170.5, 156.0 ],
					"source" : [ "obj-25", 0 ]
				}

			}
, 			{
				"patchline" : 				{
					"destination" : [ "obj-31", 0 ],
					"midpoints" : [ 320.5, 150.0, 320.5, 150.0 ],
					"source" : [ "obj-29", 0 ]
				}

			}
, 			{
				"patchline" : 				{
					"destination" : [ "obj-29", 0 ],
					"midpoints" : [ 320.5, 132.0, 320.5, 132.0 ],
					"source" : [ "obj-30", 0 ]
				}

			}
, 			{
				"patchline" : 				{
					"destination" : [ "obj-247", 0 ],
					"midpoints" : [ 247.0, 39.0, 264.0, 39.0, 264.0, 15.0, 288.5, 15.0 ],
					"source" : [ "obj-32", 0 ]
				}

			}
, 			{
				"patchline" : 				{
					"destination" : [ "obj-45", 0 ],
					"midpoints" : [ 47.5, 165.0, 47.5, 165.0 ],
					"source" : [ "obj-35", 0 ]
				}

			}
, 			{
				"patchline" : 				{
					"destination" : [ "obj-44", 2 ],
					"source" : [ "obj-37", 0 ]
				}

			}
, 			{
				"patchline" : 				{
					"destination" : [ "obj-44", 1 ],
					"source" : [ "obj-38", 0 ]
				}

			}
, 			{
				"patchline" : 				{
					"destination" : [ "obj-44", 3 ],
					"source" : [ "obj-4", 0 ]
				}

			}
, 			{
				"patchline" : 				{
					"destination" : [ "obj-1", 0 ],
					"source" : [ "obj-44", 0 ]
				}

			}
, 			{
				"patchline" : 				{
					"destination" : [ "obj-13", 0 ],
					"source" : [ "obj-44", 5 ]
				}

			}
, 			{
				"patchline" : 				{
					"destination" : [ "obj-17", 0 ],
					"source" : [ "obj-44", 3 ]
				}

			}
, 			{
				"patchline" : 				{
					"destination" : [ "obj-35", 1 ],
					"midpoints" : [ 386.833333333333314, 346.0, 17.166671999999998, 346.0, 17.166671999999998, 134.0, 71.5, 134.0 ],
					"source" : [ "obj-44", 4 ]
				}

			}
, 			{
				"patchline" : 				{
					"destination" : [ "obj-37", 0 ],
					"source" : [ "obj-44", 2 ]
				}

			}
, 			{
				"patchline" : 				{
					"destination" : [ "obj-38", 0 ],
					"source" : [ "obj-44", 1 ]
				}

			}
, 			{
				"patchline" : 				{
					"destination" : [ "obj-5", 0 ],
					"source" : [ "obj-44", 6 ]
				}

			}
, 			{
				"patchline" : 				{
					"destination" : [ "obj-25", 0 ],
					"midpoints" : [ 47.5, 195.0, 47.5, 195.0 ],
					"source" : [ "obj-45", 0 ]
				}

			}
, 			{
				"patchline" : 				{
					"destination" : [ "obj-30", 0 ],
					"midpoints" : [ 198.0, 72.0, 294.0, 72.0, 294.0, 96.0, 320.5, 96.0 ],
					"source" : [ "obj-50", 0 ]
				}

			}
, 			{
				"patchline" : 				{
					"destination" : [ "obj-247", 0 ],
					"midpoints" : [ 643.5, 60.0, 417.0, 60.0, 417.0, 6.0, 288.5, 6.0 ],
					"source" : [ "obj-55", 0 ]
				}

			}
 ],
		"dependency_cache" : [ 			{
				"name" : "info.png",
				"bootpath" : "~/Documents/Max 8/Library/UBCToolbox_1.05/picts",
				"patcherrelativepath" : "../../UBCToolbox_1.05/picts",
				"type" : "PNG",
				"implicit" : 1
			}
, 			{
				"name" : "ezOSCReceiverInfo.maxpat",
				"bootpath" : "~/Documents/Max 8/Library/Common - Personal Utility Modules/ezOSC/lib",
				"patcherrelativepath" : "./lib",
				"type" : "JSON",
				"implicit" : 1
			}
, 			{
				"name" : "bControl.maxpat",
				"bootpath" : "~/Documents/Max 8/Library/UBCToolbox_1.05/ubcLib",
				"patcherrelativepath" : "../../UBCToolbox_1.05/ubcLib",
				"type" : "JSON",
				"implicit" : 1
			}
, 			{
				"name" : "MRrC.maxpat",
				"bootpath" : "~/Documents/Max 8/Library/UBCToolbox_1.05/ubcLib",
				"patcherrelativepath" : "../../UBCToolbox_1.05/ubcLib",
				"type" : "JSON",
				"implicit" : 1
			}
, 			{
				"name" : "multiName_.maxpat",
				"bootpath" : "~/Documents/Max 8/Library/UBCToolbox_1.05/ubcLib",
				"patcherrelativepath" : "../../UBCToolbox_1.05/ubcLib",
				"type" : "JSON",
				"implicit" : 1
			}
, 			{
				"name" : "multiNameNonZero.maxpat",
				"bootpath" : "~/Documents/Max 8/Library/UBCToolbox_1.05/ubcLib",
				"patcherrelativepath" : "../../UBCToolbox_1.05/ubcLib",
				"type" : "JSON",
				"implicit" : 1
			}
, 			{
				"name" : "nTbp_.maxpat",
				"bootpath" : "~/Documents/Max 8/Library/UBCToolbox_1.05/ubcLib",
				"patcherrelativepath" : "../../UBCToolbox_1.05/ubcLib",
				"type" : "JSON",
				"implicit" : 1
			}
, 			{
				"name" : "powerButton03.png",
				"bootpath" : "~/Documents/Max 8/Library/UBCToolbox_1.05/picts",
				"patcherrelativepath" : "../../UBCToolbox_1.05/picts",
				"type" : "PNG",
				"implicit" : 1
			}
, 			{
				"name" : "largeGreenButton6.png",
				"bootpath" : "~/Documents/Max 8/Library/UBCToolbox_1.05/picts",
				"patcherrelativepath" : "../../UBCToolbox_1.05/picts",
				"type" : "PNG",
				"implicit" : 1
			}
, 			{
				"name" : "ezOSCReceiverMD.maxpat",
				"bootpath" : "~/Documents/Max 8/Library/Common - Personal Utility Modules/ezOSC/lib",
				"patcherrelativepath" : "./lib",
				"type" : "JSON",
				"implicit" : 1
			}
, 			{
				"name" : "thru.maxpat",
				"bootpath" : "C74:/patchers/m4l/Pluggo for Live resources/patches",
				"type" : "JSON",
				"implicit" : 1
			}
, 			{
				"name" : "zero.announce.mxe64",
				"type" : "mx64"
			}
, 			{
				"name" : "OpenSoundControl.mxe64",
				"type" : "mx64"
			}
, 			{
				"name" : "mxj.mxe64",
				"type" : "mx64"
			}
 ],
		"autosave" : 0,
		"styles" : [ 			{
				"name" : "newobjYellow-1",
				"default" : 				{
					"fontsize" : [ 12.059008 ],
					"accentcolor" : [ 0.82517, 0.78181, 0.059545, 1.0 ]
				}
,
				"parentstyle" : "",
				"multi" : 0
			}
, 			{
				"name" : "numberGold-1",
				"default" : 				{
					"accentcolor" : [ 0.764706, 0.592157, 0.101961, 1.0 ]
				}
,
				"parentstyle" : "",
				"multi" : 0
			}
, 			{
				"name" : "rsliderGold",
				"default" : 				{
					"color" : [ 0.646639, 0.821777, 0.854593, 1.0 ],
					"bgcolor" : [ 0.764706, 0.592157, 0.101961, 1.0 ]
				}
,
				"parentstyle" : "",
				"multi" : 0
			}
, 			{
				"name" : "utb001",
				"parentstyle" : "",
				"multi" : 0
			}
 ],
		"bgcolor" : [ 0.8, 0.8, 1.0, 1.0 ]
	}

}
