{
	"patcher" : 	{
		"fileversion" : 1,
		"appversion" : 		{
			"major" : 8,
			"minor" : 5,
			"revision" : 4,
			"architecture" : "x64",
			"modernui" : 1
		}
,
		"classnamespace" : "box",
		"rect" : [ 562.0, 509.0, 1156.0, 598.0 ],
		"bglocked" : 0,
		"openinpresentation" : 1,
		"default_fontsize" : 12.0,
		"default_fontface" : 0,
		"default_fontname" : "Arial",
		"gridonopen" : 1,
		"gridsize" : [ 15.0, 15.0 ],
		"gridsnaponopen" : 1,
		"objectsnaponopen" : 1,
		"statusbarvisible" : 2,
		"toolbarvisible" : 1,
		"lefttoolbarpinned" : 0,
		"toptoolbarpinned" : 0,
		"righttoolbarpinned" : 0,
		"bottomtoolbarpinned" : 0,
		"toolbars_unpinned_last_save" : 0,
		"tallnewobj" : 0,
		"boxanimatetime" : 200,
		"enablehscroll" : 1,
		"enablevscroll" : 1,
		"devicewidth" : 0.0,
		"description" : "",
		"digest" : "",
		"tags" : "",
		"style" : "",
		"subpatcher_template" : "",
		"assistshowspatchername" : 0,
		"boxes" : [ 			{
				"box" : 				{
					"id" : "obj-39",
					"maxclass" : "newobj",
					"numinlets" : 1,
					"numoutlets" : 1,
					"outlettype" : [ "" ],
					"patching_rect" : [ 214.0, 334.0, 72.0, 22.0 ],
					"text" : "prepend set"
				}

			}
, 			{
				"box" : 				{
					"id" : "obj-35",
					"maxclass" : "newobj",
					"numinlets" : 1,
					"numoutlets" : 1,
					"outlettype" : [ "" ],
					"patching_rect" : [ 195.500000000000057, 402.0, 72.0, 22.0 ],
					"text" : "prepend set"
				}

			}
, 			{
				"box" : 				{
					"id" : "obj-36",
					"maxclass" : "newobj",
					"numinlets" : 1,
					"numoutlets" : 1,
					"outlettype" : [ "" ],
					"patching_rect" : [ 169.500000000000057, 370.0, 72.0, 22.0 ],
					"text" : "prepend set"
				}

			}
, 			{
				"box" : 				{
					"id" : "obj-37",
					"maxclass" : "newobj",
					"numinlets" : 1,
					"numoutlets" : 1,
					"outlettype" : [ "" ],
					"patching_rect" : [ 119.500000000000057, 402.0, 72.0, 22.0 ],
					"text" : "prepend set"
				}

			}
, 			{
				"box" : 				{
					"id" : "obj-38",
					"maxclass" : "newobj",
					"numinlets" : 1,
					"numoutlets" : 1,
					"outlettype" : [ "" ],
					"patching_rect" : [ 93.500000000000057, 370.0, 72.0, 22.0 ],
					"text" : "prepend set"
				}

			}
, 			{
				"box" : 				{
					"id" : "obj-33",
					"maxclass" : "newobj",
					"numinlets" : 1,
					"numoutlets" : 1,
					"outlettype" : [ "" ],
					"patching_rect" : [ 131.25, 329.0, 72.0, 22.0 ],
					"text" : "prepend set"
				}

			}
, 			{
				"box" : 				{
					"id" : "obj-34",
					"maxclass" : "newobj",
					"numinlets" : 1,
					"numoutlets" : 1,
					"outlettype" : [ "" ],
					"patching_rect" : [ 105.25, 297.0, 72.0, 22.0 ],
					"text" : "prepend set"
				}

			}
, 			{
				"box" : 				{
					"id" : "obj-32",
					"maxclass" : "newobj",
					"numinlets" : 1,
					"numoutlets" : 1,
					"outlettype" : [ "" ],
					"patching_rect" : [ 55.25, 329.0, 72.0, 22.0 ],
					"text" : "prepend set"
				}

			}
, 			{
				"box" : 				{
					"id" : "obj-31",
					"maxclass" : "comment",
					"numinlets" : 1,
					"numoutlets" : 0,
					"patching_rect" : [ 225.749999999999943, 146.0, 30.999999999999886, 20.0 ],
					"presentation" : 1,
					"presentation_rect" : [ 181.749999999999943, 24.0, 30.999999999999886, 20.0 ],
					"text" : "0",
					"textjustification" : 1
				}

			}
, 			{
				"box" : 				{
					"id" : "obj-30",
					"maxclass" : "comment",
					"numinlets" : 1,
					"numoutlets" : 0,
					"patching_rect" : [ 203.749999999999943, 146.0, 30.999999999999886, 20.0 ],
					"presentation" : 1,
					"presentation_rect" : [ 159.749999999999943, 24.0, 30.999999999999886, 20.0 ],
					"text" : "0",
					"textjustification" : 1
				}

			}
, 			{
				"box" : 				{
					"id" : "obj-29",
					"maxclass" : "comment",
					"numinlets" : 1,
					"numoutlets" : 0,
					"patching_rect" : [ 181.749999999999943, 146.0, 30.999999999999886, 20.0 ],
					"presentation" : 1,
					"presentation_rect" : [ 137.749999999999943, 24.0, 30.999999999999886, 20.0 ],
					"text" : "0",
					"textjustification" : 1
				}

			}
, 			{
				"box" : 				{
					"id" : "obj-28",
					"maxclass" : "comment",
					"numinlets" : 1,
					"numoutlets" : 0,
					"patching_rect" : [ 159.499999999999943, 146.0, 30.999999999999886, 20.0 ],
					"presentation" : 1,
					"presentation_rect" : [ 115.499999999999943, 24.0, 30.999999999999886, 20.0 ],
					"text" : "0",
					"textjustification" : 1
				}

			}
, 			{
				"box" : 				{
					"id" : "obj-27",
					"maxclass" : "comment",
					"numinlets" : 1,
					"numoutlets" : 0,
					"patching_rect" : [ 137.750000000000057, 146.0, 30.999999999999886, 20.0 ],
					"presentation" : 1,
					"presentation_rect" : [ 93.750000000000057, 24.0, 30.999999999999886, 20.0 ],
					"text" : "0",
					"textjustification" : 1
				}

			}
, 			{
				"box" : 				{
					"id" : "obj-26",
					"maxclass" : "comment",
					"numinlets" : 1,
					"numoutlets" : 0,
					"patching_rect" : [ 115.750000000000057, 146.0, 30.999999999999886, 20.0 ],
					"presentation" : 1,
					"presentation_rect" : [ 71.750000000000057, 24.0, 30.999999999999886, 20.0 ],
					"text" : "0",
					"textjustification" : 1
				}

			}
, 			{
				"box" : 				{
					"id" : "obj-25",
					"maxclass" : "comment",
					"numinlets" : 1,
					"numoutlets" : 0,
					"patching_rect" : [ 93.500000000000057, 146.0, 30.999999999999886, 20.0 ],
					"presentation" : 1,
					"presentation_rect" : [ 49.500000000000057, 24.0, 30.999999999999886, 20.0 ],
					"text" : "0",
					"textjustification" : 1
				}

			}
, 			{
				"box" : 				{
					"id" : "obj-24",
					"maxclass" : "comment",
					"numinlets" : 1,
					"numoutlets" : 0,
					"patching_rect" : [ 71.750000000000057, 146.0, 30.999999999999886, 20.0 ],
					"presentation" : 1,
					"presentation_rect" : [ 27.750000000000057, 24.0, 30.999999999999886, 20.0 ],
					"text" : "0",
					"textjustification" : 1
				}

			}
, 			{
				"box" : 				{
					"id" : "obj-23",
					"maxclass" : "comment",
					"numinlets" : 1,
					"numoutlets" : 0,
					"patching_rect" : [ 50.25, 146.0, 30.999999999999886, 20.0 ],
					"presentation" : 1,
					"presentation_rect" : [ 6.25, 24.0, 30.999999999999886, 20.0 ],
					"text" : "0",
					"textjustification" : 1
				}

			}
, 			{
				"box" : 				{
					"id" : "obj-21",
					"maxclass" : "newobj",
					"numinlets" : 1,
					"numoutlets" : 1,
					"outlettype" : [ "" ],
					"patching_rect" : [ 29.25, 297.0, 72.0, 22.0 ],
					"text" : "prepend set"
				}

			}
, 			{
				"box" : 				{
					"comment" : "Fader 9 Output",
					"id" : "obj-18",
					"index" : 0,
					"maxclass" : "outlet",
					"numinlets" : 1,
					"numoutlets" : 0,
					"patching_rect" : [ 231.249999999999886, 250.0, 20.0, 20.0 ]
				}

			}
, 			{
				"box" : 				{
					"comment" : "Fader 8 Output",
					"id" : "obj-14",
					"index" : 0,
					"maxclass" : "outlet",
					"numinlets" : 1,
					"numoutlets" : 0,
					"patching_rect" : [ 209.25, 250.0, 20.0, 20.0 ]
				}

			}
, 			{
				"box" : 				{
					"comment" : "Fader 7 Output",
					"id" : "obj-15",
					"index" : 0,
					"maxclass" : "outlet",
					"numinlets" : 1,
					"numoutlets" : 0,
					"patching_rect" : [ 187.0, 250.0, 20.0, 20.0 ]
				}

			}
, 			{
				"box" : 				{
					"comment" : "Fader 6 Output",
					"id" : "obj-16",
					"index" : 0,
					"maxclass" : "outlet",
					"numinlets" : 1,
					"numoutlets" : 0,
					"patching_rect" : [ 165.25, 250.0, 20.0, 20.0 ]
				}

			}
, 			{
				"box" : 				{
					"comment" : "Fader 5 Output",
					"id" : "obj-17",
					"index" : 0,
					"maxclass" : "outlet",
					"numinlets" : 1,
					"numoutlets" : 0,
					"patching_rect" : [ 143.25, 250.0, 20.0, 20.0 ]
				}

			}
, 			{
				"box" : 				{
					"comment" : "Fader 4 Output",
					"id" : "obj-11",
					"index" : 0,
					"maxclass" : "outlet",
					"numinlets" : 1,
					"numoutlets" : 0,
					"patching_rect" : [ 121.25, 250.0, 20.0, 20.0 ]
				}

			}
, 			{
				"box" : 				{
					"comment" : "Fader 3 Output",
					"id" : "obj-10",
					"index" : 0,
					"maxclass" : "outlet",
					"numinlets" : 1,
					"numoutlets" : 0,
					"patching_rect" : [ 99.0, 250.0, 20.0, 20.0 ]
				}

			}
, 			{
				"box" : 				{
					"comment" : "Fader 2 Output",
					"id" : "obj-9",
					"index" : 0,
					"maxclass" : "outlet",
					"numinlets" : 1,
					"numoutlets" : 0,
					"patching_rect" : [ 77.25, 250.0, 20.0, 20.0 ]
				}

			}
, 			{
				"box" : 				{
					"comment" : "Fader 1 Output",
					"id" : "obj-3",
					"index" : 0,
					"maxclass" : "outlet",
					"numinlets" : 1,
					"numoutlets" : 0,
					"patching_rect" : [ 55.25, 250.0, 20.0, 20.0 ]
				}

			}
, 			{
				"box" : 				{
					"id" : "obj-6",
					"maxclass" : "newobj",
					"numinlets" : 1,
					"numoutlets" : 2,
					"outlettype" : [ "bang", "bang" ],
					"patching_rect" : [ 284.0, 47.0, 32.0, 22.0 ],
					"text" : "t b b"
				}

			}
, 			{
				"box" : 				{
					"id" : "obj-5",
					"maxclass" : "newobj",
					"numinlets" : 0,
					"numoutlets" : 1,
					"outlettype" : [ "" ],
					"patching_rect" : [ 415.5, 221.0, 118.0, 22.0 ],
					"text" : "receive greyallbanks"
				}

			}
, 			{
				"box" : 				{
					"id" : "obj-4",
					"maxclass" : "newobj",
					"numinlets" : 1,
					"numoutlets" : 0,
					"patching_rect" : [ 322.0, 101.0, 105.0, 22.0 ],
					"text" : "send greyallbanks"
				}

			}
, 			{
				"box" : 				{
					"id" : "obj-19",
					"maxclass" : "message",
					"numinlets" : 2,
					"numoutlets" : 1,
					"outlettype" : [ "" ],
					"patching_rect" : [ 415.5, 259.0, 123.0, 50.0 ],
					"text" : "bgfillcolor 0.3 0.3 0.3;\r\n"
				}

			}
, 			{
				"box" : 				{
					"id" : "obj-13",
					"maxclass" : "message",
					"numinlets" : 2,
					"numoutlets" : 1,
					"outlettype" : [ "" ],
					"patching_rect" : [ 288.0, 259.0, 103.0, 50.0 ],
					"text" : "bgfillcolor 0 0.3 0;\r\n"
				}

			}
, 			{
				"box" : 				{
					"comment" : "",
					"id" : "obj-7",
					"index" : 0,
					"maxclass" : "inlet",
					"numinlets" : 0,
					"numoutlets" : 1,
					"outlettype" : [ "" ],
					"patching_rect" : [ 284.0, 7.0, 30.0, 30.0 ]
				}

			}
, 			{
				"box" : 				{
					"comment" : "",
					"id" : "obj-2",
					"index" : 0,
					"maxclass" : "inlet",
					"numinlets" : 0,
					"numoutlets" : 1,
					"outlettype" : [ "" ],
					"patching_rect" : [ 55.25, 7.0, 30.0, 30.0 ]
				}

			}
, 			{
				"box" : 				{
					"id" : "obj-1",
					"maxclass" : "slider",
					"numinlets" : 1,
					"numoutlets" : 1,
					"outlettype" : [ "" ],
					"parameter_enable" : 0,
					"patching_rect" : [ 231.249999999999886, 94.0, 20.0, 140.0 ],
					"presentation" : 1,
					"presentation_rect" : [ 187.249999999999886, 11.0, 20.0, 46.0 ]
				}

			}
, 			{
				"box" : 				{
					"id" : "obj-213",
					"maxclass" : "slider",
					"numinlets" : 1,
					"numoutlets" : 1,
					"outlettype" : [ "" ],
					"parameter_enable" : 0,
					"patching_rect" : [ 209.249999999999886, 94.0, 20.0, 140.0 ],
					"presentation" : 1,
					"presentation_rect" : [ 165.249999999999886, 11.0, 20.0, 46.0 ]
				}

			}
, 			{
				"box" : 				{
					"id" : "obj-214",
					"maxclass" : "slider",
					"numinlets" : 1,
					"numoutlets" : 1,
					"outlettype" : [ "" ],
					"parameter_enable" : 0,
					"patching_rect" : [ 187.249999999999886, 94.0, 20.0, 140.0 ],
					"presentation" : 1,
					"presentation_rect" : [ 143.249999999999886, 11.0, 20.0, 46.0 ]
				}

			}
, 			{
				"box" : 				{
					"id" : "obj-215",
					"maxclass" : "slider",
					"numinlets" : 1,
					"numoutlets" : 1,
					"outlettype" : [ "" ],
					"parameter_enable" : 0,
					"patching_rect" : [ 164.999999999999886, 94.0, 20.0, 140.0 ],
					"presentation" : 1,
					"presentation_rect" : [ 120.999999999999886, 11.0, 20.0, 46.0 ]
				}

			}
, 			{
				"box" : 				{
					"id" : "obj-216",
					"maxclass" : "slider",
					"numinlets" : 1,
					"numoutlets" : 1,
					"outlettype" : [ "" ],
					"parameter_enable" : 0,
					"patching_rect" : [ 143.25, 94.0, 20.0, 140.0 ],
					"presentation" : 1,
					"presentation_rect" : [ 99.25, 11.0, 20.0, 46.0 ]
				}

			}
, 			{
				"box" : 				{
					"id" : "obj-217",
					"maxclass" : "slider",
					"numinlets" : 1,
					"numoutlets" : 1,
					"outlettype" : [ "" ],
					"parameter_enable" : 0,
					"patching_rect" : [ 121.25, 94.0, 20.0, 140.0 ],
					"presentation" : 1,
					"presentation_rect" : [ 77.25, 11.0, 20.0, 46.0 ]
				}

			}
, 			{
				"box" : 				{
					"id" : "obj-218",
					"maxclass" : "slider",
					"numinlets" : 1,
					"numoutlets" : 1,
					"outlettype" : [ "" ],
					"parameter_enable" : 0,
					"patching_rect" : [ 99.0, 94.0, 20.0, 140.0 ],
					"presentation" : 1,
					"presentation_rect" : [ 55.0, 11.0, 20.0, 46.0 ]
				}

			}
, 			{
				"box" : 				{
					"id" : "obj-219",
					"maxclass" : "slider",
					"numinlets" : 1,
					"numoutlets" : 1,
					"outlettype" : [ "" ],
					"parameter_enable" : 0,
					"patching_rect" : [ 77.25, 94.0, 20.0, 140.0 ],
					"presentation" : 1,
					"presentation_rect" : [ 33.25, 11.0, 20.0, 46.0 ]
				}

			}
, 			{
				"box" : 				{
					"id" : "obj-220",
					"maxclass" : "slider",
					"numinlets" : 1,
					"numoutlets" : 1,
					"outlettype" : [ "" ],
					"parameter_enable" : 0,
					"patching_rect" : [ 55.25, 94.0, 20.0, 140.0 ],
					"presentation" : 1,
					"presentation_rect" : [ 11.25, 11.0, 20.0, 46.0 ]
				}

			}
, 			{
				"box" : 				{
					"id" : "obj-222",
					"maxclass" : "newobj",
					"numinlets" : 10,
					"numoutlets" : 10,
					"outlettype" : [ "", "", "", "", "", "", "", "", "", "" ],
					"patching_rect" : [ 55.25, 56.0, 217.0, 22.0 ],
					"text" : "route 1 2 3 4 5 6 7 8 9"
				}

			}
, 			{
				"box" : 				{
					"angle" : 0.0,
					"bgcolor" : [ 0.3, 0.3, 0.3 ],
					"bordercolor" : [ 0.047058823529412, 0.607843137254902, 0.682352941176471, 1.0 ],
					"id" : "obj-8",
					"maxclass" : "panel",
					"mode" : 0,
					"numinlets" : 1,
					"numoutlets" : 0,
					"patching_rect" : [ 288.0, 325.0, 128.0, 128.0 ],
					"presentation" : 1,
					"presentation_rect" : [ 5.25, 6.0, 207.0, 57.0 ],
					"proportion" : 0.0
				}

			}
 ],
		"lines" : [ 			{
				"patchline" : 				{
					"destination" : [ "obj-18", 0 ],
					"order" : 0,
					"source" : [ "obj-1", 0 ]
				}

			}
, 			{
				"patchline" : 				{
					"destination" : [ "obj-39", 0 ],
					"order" : 1,
					"source" : [ "obj-1", 0 ]
				}

			}
, 			{
				"patchline" : 				{
					"destination" : [ "obj-8", 0 ],
					"source" : [ "obj-13", 0 ]
				}

			}
, 			{
				"patchline" : 				{
					"destination" : [ "obj-8", 0 ],
					"source" : [ "obj-19", 0 ]
				}

			}
, 			{
				"patchline" : 				{
					"destination" : [ "obj-222", 0 ],
					"source" : [ "obj-2", 0 ]
				}

			}
, 			{
				"patchline" : 				{
					"destination" : [ "obj-23", 0 ],
					"source" : [ "obj-21", 0 ]
				}

			}
, 			{
				"patchline" : 				{
					"destination" : [ "obj-14", 0 ],
					"order" : 0,
					"source" : [ "obj-213", 0 ]
				}

			}
, 			{
				"patchline" : 				{
					"destination" : [ "obj-35", 0 ],
					"order" : 1,
					"source" : [ "obj-213", 0 ]
				}

			}
, 			{
				"patchline" : 				{
					"destination" : [ "obj-15", 0 ],
					"order" : 0,
					"source" : [ "obj-214", 0 ]
				}

			}
, 			{
				"patchline" : 				{
					"destination" : [ "obj-36", 0 ],
					"order" : 1,
					"source" : [ "obj-214", 0 ]
				}

			}
, 			{
				"patchline" : 				{
					"destination" : [ "obj-16", 0 ],
					"order" : 0,
					"source" : [ "obj-215", 0 ]
				}

			}
, 			{
				"patchline" : 				{
					"destination" : [ "obj-37", 0 ],
					"order" : 1,
					"source" : [ "obj-215", 0 ]
				}

			}
, 			{
				"patchline" : 				{
					"destination" : [ "obj-17", 0 ],
					"order" : 0,
					"source" : [ "obj-216", 0 ]
				}

			}
, 			{
				"patchline" : 				{
					"destination" : [ "obj-38", 0 ],
					"order" : 1,
					"source" : [ "obj-216", 0 ]
				}

			}
, 			{
				"patchline" : 				{
					"destination" : [ "obj-11", 0 ],
					"order" : 1,
					"source" : [ "obj-217", 0 ]
				}

			}
, 			{
				"patchline" : 				{
					"destination" : [ "obj-33", 0 ],
					"order" : 0,
					"source" : [ "obj-217", 0 ]
				}

			}
, 			{
				"patchline" : 				{
					"destination" : [ "obj-10", 0 ],
					"order" : 1,
					"source" : [ "obj-218", 0 ]
				}

			}
, 			{
				"patchline" : 				{
					"destination" : [ "obj-34", 0 ],
					"order" : 0,
					"source" : [ "obj-218", 0 ]
				}

			}
, 			{
				"patchline" : 				{
					"destination" : [ "obj-32", 0 ],
					"order" : 1,
					"source" : [ "obj-219", 0 ]
				}

			}
, 			{
				"patchline" : 				{
					"destination" : [ "obj-9", 0 ],
					"order" : 0,
					"source" : [ "obj-219", 0 ]
				}

			}
, 			{
				"patchline" : 				{
					"destination" : [ "obj-21", 0 ],
					"order" : 1,
					"source" : [ "obj-220", 0 ]
				}

			}
, 			{
				"patchline" : 				{
					"destination" : [ "obj-3", 0 ],
					"order" : 0,
					"source" : [ "obj-220", 0 ]
				}

			}
, 			{
				"patchline" : 				{
					"destination" : [ "obj-1", 0 ],
					"source" : [ "obj-222", 8 ]
				}

			}
, 			{
				"patchline" : 				{
					"destination" : [ "obj-213", 0 ],
					"source" : [ "obj-222", 7 ]
				}

			}
, 			{
				"patchline" : 				{
					"destination" : [ "obj-214", 0 ],
					"source" : [ "obj-222", 6 ]
				}

			}
, 			{
				"patchline" : 				{
					"destination" : [ "obj-215", 0 ],
					"source" : [ "obj-222", 5 ]
				}

			}
, 			{
				"patchline" : 				{
					"destination" : [ "obj-216", 0 ],
					"source" : [ "obj-222", 4 ]
				}

			}
, 			{
				"patchline" : 				{
					"destination" : [ "obj-217", 0 ],
					"source" : [ "obj-222", 3 ]
				}

			}
, 			{
				"patchline" : 				{
					"destination" : [ "obj-218", 0 ],
					"source" : [ "obj-222", 2 ]
				}

			}
, 			{
				"patchline" : 				{
					"destination" : [ "obj-219", 0 ],
					"source" : [ "obj-222", 1 ]
				}

			}
, 			{
				"patchline" : 				{
					"destination" : [ "obj-220", 0 ],
					"source" : [ "obj-222", 0 ]
				}

			}
, 			{
				"patchline" : 				{
					"destination" : [ "obj-24", 0 ],
					"source" : [ "obj-32", 0 ]
				}

			}
, 			{
				"patchline" : 				{
					"destination" : [ "obj-26", 0 ],
					"source" : [ "obj-33", 0 ]
				}

			}
, 			{
				"patchline" : 				{
					"destination" : [ "obj-25", 0 ],
					"source" : [ "obj-34", 0 ]
				}

			}
, 			{
				"patchline" : 				{
					"destination" : [ "obj-30", 0 ],
					"source" : [ "obj-35", 0 ]
				}

			}
, 			{
				"patchline" : 				{
					"destination" : [ "obj-29", 0 ],
					"source" : [ "obj-36", 0 ]
				}

			}
, 			{
				"patchline" : 				{
					"destination" : [ "obj-28", 0 ],
					"source" : [ "obj-37", 0 ]
				}

			}
, 			{
				"patchline" : 				{
					"destination" : [ "obj-27", 0 ],
					"source" : [ "obj-38", 0 ]
				}

			}
, 			{
				"patchline" : 				{
					"destination" : [ "obj-31", 0 ],
					"source" : [ "obj-39", 0 ]
				}

			}
, 			{
				"patchline" : 				{
					"destination" : [ "obj-19", 0 ],
					"source" : [ "obj-5", 0 ]
				}

			}
, 			{
				"patchline" : 				{
					"destination" : [ "obj-13", 0 ],
					"source" : [ "obj-6", 0 ]
				}

			}
, 			{
				"patchline" : 				{
					"destination" : [ "obj-4", 0 ],
					"source" : [ "obj-6", 1 ]
				}

			}
, 			{
				"patchline" : 				{
					"destination" : [ "obj-6", 0 ],
					"source" : [ "obj-7", 0 ]
				}

			}
 ],
		"dependency_cache" : [  ],
		"autosave" : 0
	}

}
