{
	"patcher" : 	{
		"fileversion" : 1,
		"appversion" : 		{
			"major" : 7,
			"minor" : 2,
			"revision" : 5,
			"architecture" : "x86",
			"modernui" : 1
		}
,
		"rect" : [ 202.0, 357.0, 696.0, 461.0 ],
		"bglocked" : 0,
		"openinpresentation" : 0,
		"default_fontsize" : 12.0,
		"default_fontface" : 0,
		"default_fontname" : "Arial",
		"gridonopen" : 1,
		"gridsize" : [ 15.0, 15.0 ],
		"gridsnaponopen" : 1,
		"objectsnaponopen" : 1,
		"statusbarvisible" : 2,
		"toolbarvisible" : 0,
		"lefttoolbarpinned" : 0,
		"toptoolbarpinned" : 0,
		"righttoolbarpinned" : 0,
		"bottomtoolbarpinned" : 0,
		"toolbars_unpinned_last_save" : 0,
		"tallnewobj" : 0,
		"boxanimatetime" : 200,
		"enablehscroll" : 1,
		"enablevscroll" : 1,
		"devicewidth" : 0.0,
		"description" : "",
		"digest" : "",
		"tags" : "",
		"style" : "",
		"subpatcher_template" : "",
		"boxes" : [ 			{
				"box" : 				{
					"fontname" : "Arial",
					"fontsize" : 14.0,
					"id" : "obj-76",
					"maxclass" : "comment",
					"numinlets" : 1,
					"numoutlets" : 0,
					"patching_rect" : [ 241.0, 12.0, 128.0, 22.0 ],
					"style" : "",
					"text" : "32-BIT ONLY",
					"textcolor" : [ 0.890196, 0.007843, 0.2, 1.0 ]
				}

			}
, 			{
				"box" : 				{
					"fontname" : "Arial",
					"fontsize" : 9.0,
					"id" : "obj-15",
					"maxclass" : "comment",
					"numinlets" : 1,
					"numoutlets" : 0,
					"patching_rect" : [ 10.0, 241.0, 315.0, 17.0 ],
					"style" : "",
					"text" : "Trans dial adjusts the transposition in cents  (-1200 - 1200 range)"
				}

			}
, 			{
				"box" : 				{
					"fontname" : "Futura Medium",
					"fontsize" : 14.0,
					"id" : "obj-14",
					"maxclass" : "comment",
					"numinlets" : 1,
					"numoutlets" : 0,
					"patching_rect" : [ 10.0, 283.0, 317.0, 25.0 ],
					"style" : "",
					"text" : "METERS"
				}

			}
, 			{
				"box" : 				{
					"fontname" : "Arial",
					"fontsize" : 9.0,
					"id" : "obj-1",
					"maxclass" : "comment",
					"numinlets" : 1,
					"numoutlets" : 0,
					"patching_rect" : [ 452.0, 343.0, 200.0, 17.0 ],
					"style" : "",
					"text" : "bang: save current presets into a file"
				}

			}
, 			{
				"box" : 				{
					"fontname" : "Arial",
					"fontsize" : 9.0,
					"id" : "obj-2",
					"maxclass" : "comment",
					"numinlets" : 1,
					"numoutlets" : 0,
					"patching_rect" : [ 345.0, 343.0, 120.0, 17.0 ],
					"style" : "",
					"text" : "writeGrainStretchPresets"
				}

			}
, 			{
				"box" : 				{
					"fontname" : "Arial",
					"fontsize" : 9.0,
					"id" : "obj-3",
					"maxclass" : "comment",
					"numinlets" : 1,
					"numoutlets" : 0,
					"patching_rect" : [ 452.0, 331.0, 200.0, 17.0 ],
					"style" : "",
					"text" : "filename: read and load presets from a file"
				}

			}
, 			{
				"box" : 				{
					"fontname" : "Arial",
					"fontsize" : 9.0,
					"id" : "obj-4",
					"maxclass" : "comment",
					"numinlets" : 1,
					"numoutlets" : 0,
					"patching_rect" : [ 345.0, 331.0, 120.0, 17.0 ],
					"style" : "",
					"text" : "readGrainStretchPresets"
				}

			}
, 			{
				"box" : 				{
					"fontname" : "Arial",
					"fontsize" : 9.0,
					"id" : "obj-5",
					"maxclass" : "comment",
					"numinlets" : 1,
					"numoutlets" : 0,
					"patching_rect" : [ 345.0, 319.0, 99.0, 17.0 ],
					"style" : "",
					"text" : "exGrainStretchIn"
				}

			}
, 			{
				"box" : 				{
					"fontname" : "Arial",
					"fontsize" : 9.0,
					"id" : "obj-6",
					"maxclass" : "comment",
					"numinlets" : 1,
					"numoutlets" : 0,
					"patching_rect" : [ 446.0, 319.0, 243.0, 17.0 ],
					"style" : "",
					"text" : "int: external control for Grain Stretch volume"
				}

			}
, 			{
				"box" : 				{
					"fontname" : "Arial",
					"fontsize" : 9.0,
					"hidden" : 1,
					"id" : "obj-7",
					"maxclass" : "message",
					"numinlets" : 2,
					"numoutlets" : 1,
					"outlettype" : [ "" ],
					"patching_rect" : [ 638.0, 373.0, 95.0, 19.0 ],
					"style" : "",
					"text" : "window flags grow"
				}

			}
, 			{
				"box" : 				{
					"fontname" : "Arial",
					"fontsize" : 9.0,
					"hidden" : 1,
					"id" : "obj-8",
					"maxclass" : "message",
					"numinlets" : 2,
					"numoutlets" : 1,
					"outlettype" : [ "" ],
					"patching_rect" : [ 638.0, 357.0, 105.0, 19.0 ],
					"style" : "",
					"text" : "window flags nogrow"
				}

			}
, 			{
				"box" : 				{
					"fontname" : "Arial",
					"fontsize" : 9.0,
					"hidden" : 1,
					"id" : "obj-9",
					"maxclass" : "newobj",
					"numinlets" : 1,
					"numoutlets" : 2,
					"outlettype" : [ "", "" ],
					"patching_rect" : [ 635.0, 418.0, 60.0, 19.0 ],
					"save" : [ "#N", "thispatcher", ";", "#Q", "window", "flags", "nogrow", "close", "zoom", "nofloat", "menu", "minimize", ";", "#Q", "window", "constrain", 50, 50, 32768, 32768, ";", "#Q", "window", "size", 202, 357, 898, 818, ";", "#Q", "window", "title", ";", "#Q", "window", "exec", ";", "#Q", "savewindow", 1, ";", "#Q", "end", ";" ],
					"style" : "",
					"text" : "thispatcher"
				}

			}
, 			{
				"box" : 				{
					"fontname" : "Arial",
					"fontsize" : 9.0,
					"id" : "obj-10",
					"maxclass" : "comment",
					"numinlets" : 1,
					"numoutlets" : 0,
					"patching_rect" : [ 344.0, 54.0, 314.0, 17.0 ],
					"style" : "",
					"text" : "On / Off (0/1)"
				}

			}
, 			{
				"box" : 				{
					"fontname" : "Arial",
					"fontsize" : 9.0,
					"id" : "obj-11",
					"maxclass" : "comment",
					"numinlets" : 1,
					"numoutlets" : 0,
					"patching_rect" : [ 344.0, 42.0, 314.0, 17.0 ],
					"style" : "",
					"text" : "Volume (0 - 127)"
				}

			}
, 			{
				"box" : 				{
					"fontname" : "Arial",
					"fontsize" : 9.0,
					"id" : "obj-12",
					"maxclass" : "comment",
					"numinlets" : 1,
					"numoutlets" : 0,
					"patching_rect" : [ 345.0, 307.0, 99.0, 17.0 ],
					"style" : "",
					"text" : "grainStretchPreset"
				}

			}
, 			{
				"box" : 				{
					"fontname" : "Arial",
					"fontsize" : 9.0,
					"id" : "obj-13",
					"maxclass" : "comment",
					"numinlets" : 1,
					"numoutlets" : 0,
					"patching_rect" : [ 345.0, 295.0, 99.0, 17.0 ],
					"style" : ""
				}

			}
, 			{
				"box" : 				{
					"fontname" : "Arial",
					"fontsize" : 9.0,
					"id" : "obj-16",
					"maxclass" : "comment",
					"numinlets" : 1,
					"numoutlets" : 0,
					"patching_rect" : [ 345.0, 259.0, 99.0, 17.0 ],
					"style" : ""
				}

			}
, 			{
				"box" : 				{
					"fontname" : "Arial",
					"fontsize" : 9.0,
					"id" : "obj-17",
					"maxclass" : "comment",
					"numinlets" : 1,
					"numoutlets" : 0,
					"patching_rect" : [ 345.0, 247.0, 99.0, 17.0 ],
					"style" : "",
					"text" : "grainStretcherGrainL"
				}

			}
, 			{
				"box" : 				{
					"fontname" : "Arial",
					"fontsize" : 9.0,
					"id" : "obj-18",
					"maxclass" : "comment",
					"numinlets" : 1,
					"numoutlets" : 0,
					"patching_rect" : [ 345.0, 235.0, 99.0, 17.0 ],
					"style" : "",
					"text" : "grainStretcherGrain"
				}

			}
, 			{
				"box" : 				{
					"fontname" : "Arial",
					"fontsize" : 9.0,
					"id" : "obj-19",
					"maxclass" : "comment",
					"numinlets" : 1,
					"numoutlets" : 0,
					"patching_rect" : [ 345.0, 223.0, 99.0, 17.0 ],
					"style" : ""
				}

			}
, 			{
				"box" : 				{
					"fontname" : "Arial",
					"fontsize" : 9.0,
					"id" : "obj-20",
					"maxclass" : "comment",
					"numinlets" : 1,
					"numoutlets" : 0,
					"patching_rect" : [ 345.0, 211.0, 99.0, 17.0 ],
					"style" : "",
					"text" : "grainStretcherTransL"
				}

			}
, 			{
				"box" : 				{
					"fontname" : "Arial",
					"fontsize" : 9.0,
					"id" : "obj-21",
					"maxclass" : "comment",
					"numinlets" : 1,
					"numoutlets" : 0,
					"patching_rect" : [ 345.0, 199.0, 99.0, 17.0 ],
					"style" : "",
					"text" : "grainStretcherTrans"
				}

			}
, 			{
				"box" : 				{
					"fontname" : "Arial",
					"fontsize" : 9.0,
					"id" : "obj-22",
					"maxclass" : "comment",
					"numinlets" : 1,
					"numoutlets" : 0,
					"patching_rect" : [ 345.0, 187.0, 99.0, 17.0 ],
					"style" : ""
				}

			}
, 			{
				"box" : 				{
					"fontname" : "Arial",
					"fontsize" : 9.0,
					"id" : "obj-23",
					"maxclass" : "comment",
					"numinlets" : 1,
					"numoutlets" : 0,
					"patching_rect" : [ 345.0, 175.0, 99.0, 17.0 ],
					"style" : "",
					"text" : "grainStretcherVolL"
				}

			}
, 			{
				"box" : 				{
					"fontname" : "Arial",
					"fontsize" : 9.0,
					"id" : "obj-24",
					"maxclass" : "comment",
					"numinlets" : 1,
					"numoutlets" : 0,
					"patching_rect" : [ 345.0, 163.0, 82.0, 17.0 ],
					"style" : "",
					"text" : "grainStretcherVol"
				}

			}
, 			{
				"box" : 				{
					"fontname" : "Arial",
					"fontsize" : 9.0,
					"id" : "obj-25",
					"maxclass" : "comment",
					"numinlets" : 1,
					"numoutlets" : 0,
					"patching_rect" : [ 345.0, 151.0, 112.0, 17.0 ],
					"style" : "",
					"text" : "grainStretcherCycleOnOff"
				}

			}
, 			{
				"box" : 				{
					"fontname" : "Arial",
					"fontsize" : 9.0,
					"id" : "obj-26",
					"maxclass" : "comment",
					"numinlets" : 1,
					"numoutlets" : 0,
					"patching_rect" : [ 446.0, 307.0, 243.0, 17.0 ],
					"style" : "",
					"text" : "int: call up preset (1- preset#)"
				}

			}
, 			{
				"box" : 				{
					"fontname" : "Arial",
					"fontsize" : 9.0,
					"id" : "obj-29",
					"maxclass" : "comment",
					"numinlets" : 1,
					"numoutlets" : 0,
					"patching_rect" : [ 446.0, 235.0, 243.0, 17.0 ],
					"style" : "",
					"text" : "float: sets the grain size in msec  (10 - 1000)"
				}

			}
, 			{
				"box" : 				{
					"fontname" : "Arial",
					"fontsize" : 9.0,
					"id" : "obj-30",
					"linecount" : 2,
					"maxclass" : "comment",
					"numinlets" : 1,
					"numoutlets" : 0,
					"patching_rect" : [ 446.0, 247.0, 243.0, 27.0 ],
					"style" : "",
					"text" : "[float int]: sets the grain size in msec (10 - 1000) and \nduration (msec) of the ramp to that amount"
				}

			}
, 			{
				"box" : 				{
					"fontname" : "Arial",
					"fontsize" : 9.0,
					"id" : "obj-31",
					"maxclass" : "comment",
					"numinlets" : 1,
					"numoutlets" : 0,
					"patching_rect" : [ 446.0, 199.0, 243.0, 17.0 ],
					"style" : "",
					"text" : "int: sets the transposition in cents  (-1200 - 1200)"
				}

			}
, 			{
				"box" : 				{
					"fontname" : "Arial",
					"fontsize" : 9.0,
					"id" : "obj-32",
					"linecount" : 2,
					"maxclass" : "comment",
					"numinlets" : 1,
					"numoutlets" : 0,
					"patching_rect" : [ 446.0, 211.0, 246.0, 27.0 ],
					"style" : "",
					"text" : "[int int]: sets the transposition in cents  (-1200  - 1200) and \nduration (msec) of the ramp to that transposition"
				}

			}
, 			{
				"box" : 				{
					"fontname" : "Futura Medium",
					"fontsize" : 14.0,
					"id" : "obj-33",
					"maxclass" : "comment",
					"numinlets" : 1,
					"numoutlets" : 0,
					"patching_rect" : [ 10.0, 220.0, 317.0, 25.0 ],
					"style" : "",
					"text" : "DIAL CONTROLS"
				}

			}
, 			{
				"box" : 				{
					"fontname" : "Arial",
					"fontsize" : 9.0,
					"id" : "obj-34",
					"maxclass" : "comment",
					"numinlets" : 1,
					"numoutlets" : 0,
					"patching_rect" : [ 10.0, 257.0, 315.0, 17.0 ],
					"style" : "",
					"text" : "Grain dial adjusts the size of the grains (20 - 1000 range)"
				}

			}
, 			{
				"box" : 				{
					"fontname" : "Arial",
					"fontsize" : 9.0,
					"id" : "obj-35",
					"linecount" : 2,
					"maxclass" : "comment",
					"numinlets" : 1,
					"numoutlets" : 0,
					"patching_rect" : [ 10.0, 304.0, 315.0, 27.0 ],
					"style" : "",
					"text" : "Meters show the output level for each of the output channels - 4 in the 4 channel grainStretcher and 8 in the 8 channel grainStretcher."
				}

			}
, 			{
				"box" : 				{
					"fontname" : "Futura Medium",
					"fontsize" : 14.0,
					"id" : "obj-36",
					"maxclass" : "comment",
					"numinlets" : 1,
					"numoutlets" : 0,
					"patching_rect" : [ 10.0, 152.0, 317.0, 25.0 ],
					"style" : "",
					"text" : "BUTTON CONTROLS"
				}

			}
, 			{
				"box" : 				{
					"fontname" : "Arial",
					"fontsize" : 9.0,
					"id" : "obj-37",
					"linecount" : 2,
					"maxclass" : "comment",
					"numinlets" : 1,
					"numoutlets" : 0,
					"patching_rect" : [ 10.0, 185.0, 297.0, 27.0 ],
					"style" : "",
					"text" : "Cycle button causes continuously changing modulation frequency values"
				}

			}
, 			{
				"box" : 				{
					"fontname" : "Arial",
					"fontsize" : 9.0,
					"id" : "obj-38",
					"maxclass" : "comment",
					"numinlets" : 1,
					"numoutlets" : 0,
					"patching_rect" : [ 10.0, 173.0, 315.0, 17.0 ],
					"style" : "",
					"text" : "On/Off button turns the module on or off"
				}

			}
, 			{
				"box" : 				{
					"fontname" : "Arial",
					"fontsize" : 9.0,
					"id" : "obj-39",
					"linecount" : 3,
					"maxclass" : "comment",
					"numinlets" : 1,
					"numoutlets" : 0,
					"patching_rect" : [ 41.0, 404.0, 294.0, 37.0 ],
					"style" : "",
					"text" : "Written by K. Hamel 2015. Uses the sogs~ object from IRCAM. This\nmodule is restricted in use to IRCAM Forum members. sogs~ (Smooth Overlap Granular Synthesis) was developed by Norbert Schnell."
				}

			}
, 			{
				"box" : 				{
					"fontname" : "Arial",
					"fontsize" : 9.0,
					"id" : "obj-40",
					"maxclass" : "comment",
					"numinlets" : 1,
					"numoutlets" : 0,
					"patching_rect" : [ 446.0, 163.0, 243.0, 17.0 ],
					"style" : "",
					"text" : "int: sets the input volume (0 -127)"
				}

			}
, 			{
				"box" : 				{
					"fontname" : "Arial",
					"fontsize" : 9.0,
					"id" : "obj-41",
					"linecount" : 2,
					"maxclass" : "comment",
					"numinlets" : 1,
					"numoutlets" : 0,
					"patching_rect" : [ 446.0, 175.0, 244.0, 27.0 ],
					"style" : "",
					"text" : "[int int]: sets the input volume (0 -127) and duration (msec) of the ramp to that volume"
				}

			}
, 			{
				"box" : 				{
					"fontname" : "Arial",
					"fontsize" : 9.0,
					"id" : "obj-42",
					"maxclass" : "comment",
					"numinlets" : 1,
					"numoutlets" : 0,
					"patching_rect" : [ 446.0, 151.0, 243.0, 17.0 ],
					"style" : "",
					"text" : "toggle: turns random transposition cycling on or off (0 /1)"
				}

			}
, 			{
				"box" : 				{
					"fontname" : "Arial",
					"fontsize" : 9.0,
					"id" : "obj-43",
					"maxclass" : "comment",
					"numinlets" : 1,
					"numoutlets" : 0,
					"patching_rect" : [ 446.0, 139.0, 243.0, 17.0 ],
					"style" : "",
					"text" : "toggle: turns the module on or off (0 / 1)"
				}

			}
, 			{
				"box" : 				{
					"fontname" : "Futura Medium",
					"fontsize" : 14.0,
					"id" : "obj-44",
					"maxclass" : "comment",
					"numinlets" : 1,
					"numoutlets" : 0,
					"patching_rect" : [ 10.0, 107.0, 317.0, 25.0 ],
					"style" : "",
					"text" : "SLIDER CONTROLS"
				}

			}
, 			{
				"box" : 				{
					"fontname" : "Futura Medium",
					"fontsize" : 14.0,
					"id" : "obj-45",
					"maxclass" : "comment",
					"numinlets" : 1,
					"numoutlets" : 0,
					"patching_rect" : [ 345.0, 118.0, 319.0, 25.0 ],
					"style" : "",
					"text" : "RECEIVES (MESSAGES)"
				}

			}
, 			{
				"box" : 				{
					"fontname" : "Futura Medium",
					"fontsize" : 14.0,
					"id" : "obj-46",
					"maxclass" : "comment",
					"numinlets" : 1,
					"numoutlets" : 0,
					"patching_rect" : [ 346.0, 362.0, 242.0, 25.0 ],
					"style" : "",
					"text" : "MESSAGING EXAMPLES"
				}

			}
, 			{
				"box" : 				{
					"fontname" : "Arial",
					"fontsize" : 9.0,
					"id" : "obj-47",
					"linecount" : 3,
					"maxclass" : "message",
					"numinlets" : 2,
					"numoutlets" : 1,
					"outlettype" : [ "" ],
					"patching_rect" : [ 497.0, 389.0, 131.0, 39.0 ],
					"style" : "",
					"text" : ";\rgrainStretchGrainL 500 5000;\rgrainStretchVolL 110 4500"
				}

			}
, 			{
				"box" : 				{
					"fontname" : "Arial",
					"fontsize" : 9.0,
					"id" : "obj-48",
					"linecount" : 4,
					"maxclass" : "message",
					"numinlets" : 2,
					"numoutlets" : 1,
					"outlettype" : [ "" ],
					"patching_rect" : [ 347.0, 389.0, 134.0, 49.0 ],
					"style" : "",
					"text" : ";\rgrainStretchOnOff 1;\rgrainStretchCycleOnOff 0;\rgrainStretchTransL -100 5000;\r"
				}

			}
, 			{
				"box" : 				{
					"data" : [ 1952, "png", "IBkSG0fBZn....PCIgDQRA...3A...fGHX....vNv3pn....DLmPIQEBHf.B7g.YHB..GbURDEDUHkXqVsGUSddG94KIbI.ARHDj6DfhgKN4hvXHhBHUcLamysgcv7bvoyU8ztZsc6rIbFXW6jVvJ1KmVasJLJmVIbwa.UpZBV4lJbHX.DDj6HzjfIP.x8u8G9ENHDP1N64bdO48xy6umume+9ky4k.+eB0We8t17UE91b4v9gL4Gx4RM0TMtR7Yr3M9vibD20zXi6vee8UmiYDWYojxanc0H7.cJ8ncc+1+KSqdZr8zVid.T3Jwml4IkVZoz+fW6Okwz28th8hFsyEefB9Z6dnphtmnK6xpQX4xFWfRclPK8NNx7uk4YNxANPS0bwxR94J7.C22t+AgkcdeLXZst6LGzk9YPXN59d59507ZqFgiM9jdKNd3y6wyGuuudCFr9123Zwb1BJnzxJ4KOnk3S27D1rr+Mrs+Q1P+PChya+Q82uU3e3Qi.XwIg04vf8bYoxjtRB+km+7Ook1jbybyM2ukvftWdMb4xahGONyVZroWJ+7eeiWnhKcKK53n1X781oU5glolAE1UqHYu7GkWZQfEG2QTgr876u4qF9pw4omd5OI9Mtow7zCOAO2cGZLPhO5D4c71uSCOSZedGelO6yGQxHC9RC2UGNSn0Hzvf.7YXCt2fciTR52vR9nCxNRm53FWRhJMqjvW+5WORFFL72cxQmrkFAMXhzHjISFwzpU6S4WopxyO+708LNNf.BXnid3idL5qKTSDj.2dfGAucdMXpGMHp8N2BdYkKuBOmC7cWIQanzRYNQ2s+dVascN4I+.vOI7vPLaJND8OKZTUkWLAEiNZrKIUC.DSLwHLiLNTZ2PsBsboYCNYK2FI4ev3d2pVLhhIQ7g7qOz32olksSkwrcjIiF+zcL2CpAzsBvfM1BuBd8JiH9jlynISn+gGNpkjpMiqboK0AcafQcVaZqtYzZP2DIBvNGQcszDjO5DDcMTuAlPBtciqUeeJW38546JJMMRpr.R8Zg5gjB8beA3RfgWajgsts5patUesUWUZwt4369aufvpWhiMiYUibmBZJ4IDFPGOdbTzC5.eS+cigGaDDHbLVEyY6atP98Kthfm59U8NFHMASDVAD4dfGgu4hcmGmzcyM2lvzry1gcLYZxIG3LgES0K.jDlLlYCyHuuZmYBnQiF75dtVr2suSnmu6ffksyGfgjJ0YUsW0WoQ9vAnR4bPI6fg+Iu2uvUWc8fAETPxA.lwnQs9F3Z0xyMWGY9xxxUuFXbLnKtfTkMm1bR1u.hnGUJ83.EeVZiPnRcPqyie..PjHQLT1zYKZlwdPryMmALN3BOieucxlkcY5me9Me2OKVrn8a+coeQF1Xi3mmiA.fb4n0olg7WlQAmNp1cDkW8PiMq2QsMGXG7K9WyKu2xdOT01aNcu2cm5znGxI3.tItu97Wff4cpYHQhjwWiGd7GEHPviLuGwxnIQokVJsTSMUiYmc1zBMzPI3wiGQ4k7EmoUkt7Gx6DYMl0OrpOxXCmK24lUKFSkQvXiG3wqey+7zCNP+DsRlwLVRWsYHTnP..TWc0QFRHgPXu81iWd2uR6sd2F2QG+HS+dwfcXKJePizUnRGj6cxHnMti7hX8gTjkLQ1YmMs5pqNxUyGzxhlEWalQusTIOU4RHanhOm7eexrHuSKRdmryN6EW1HVz3+cLXSWcC26j6sqx+3+AYfaNMxJaQAYqRZSRCMz.SKwWjHQLjJUp0V5rUr4hBD..MUc4dIqgRJd1w5MH18KBu9V8.YkU1XJlufuVYEhzRWLwDSznPgBMXoyV1Z7BDkr4h9Wb008MKiTwHaX1oTBUlrCb+o6ZDq0qX3u4ZR7NoTRIfMEWje+EEJb5EGfkq197bLYaWqbWIj29mQSsrMMq5owTFoAqi7WIienQ7pGZ+6aeNNiDEm5qpYKQEUrGu5pq1lmS7dFGwG.YPstP.L.0b9LYx7faKB9o76WuCgwlPKtRGOA8YhGlgAawhEey5..hZCQDlQlttqCm0mLaDdo+vOpSoe8BdnW3.XWKPu1.fX.nbgaPB.1K7qhqS18i.f7xuZDjUs+PH2ZjBHo3sjAaOVK422sJCR6p0znhi3kiK.3aNUqbQ+hZ9m64X9vwFd..VYRGjQyYvxGAlO+3.fPjHQVA.mIHHlR4X8fS8wESWOS+NAWtbuJ.1B.JB.bnxrb.vooFCXwZbG0WcDtwT6aa9ueSAVvln1sxd5o2Jnnj..xIwDSLK.TIIIoi7802Q0MfH7oWndeTnPQbzoSuS7zR3BM0QnFVt4hsWg5xzV4IGi5d5SpUK3Wfv1xNe+N6rygonvmR7DnbFTL4jkbr+79+tFp3z..vM2c2tUSylXPk6A.5axIcRTsU2LWmrmD.js0dWeBEubn3kyhtea.fLt3hNzhK574xfgUZobnkdfXAKbQgTATLdZpXWt3hKUB.RO8zy9kKWtiKRXwTyygJPJo1OAJdYPsVI04YPwcfEwaY6BaaQe0EZANlGOiSnDa.rz3kgExB.3oo6U0an+u.Ir3M9O.7J5HEj0o7sF.....IUjSD4pPfIH" ],
					"embed" : 1,
					"id" : "obj-49",
					"maxclass" : "fpic",
					"numinlets" : 1,
					"numoutlets" : 1,
					"outlettype" : [ "jit_matrix" ],
					"patching_rect" : [ 8.0, 408.0, 32.0, 34.0 ]
				}

			}
, 			{
				"box" : 				{
					"fontname" : "Arial",
					"fontsize" : 9.0,
					"id" : "obj-51",
					"maxclass" : "comment",
					"numinlets" : 1,
					"numoutlets" : 0,
					"patching_rect" : [ 10.0, 128.0, 315.0, 17.0 ],
					"style" : "",
					"text" : "Output slider controls level of outgoing audio signal"
				}

			}
, 			{
				"box" : 				{
					"fontname" : "Arial",
					"fontsize" : 9.0,
					"id" : "obj-52",
					"linecount" : 4,
					"maxclass" : "comment",
					"numinlets" : 1,
					"numoutlets" : 0,
					"patching_rect" : [ 10.0, 51.0, 328.0, 47.0 ],
					"style" : "",
					"text" : "Receives audio input and processes the incoming audio signal using the sogs~ object to create a delayed, stretched and granulated version of the original signal.  The processed sound is sent out to 4 or 8 channels with each \nchannel being a separate layer of processed sound."
				}

			}
, 			{
				"box" : 				{
					"comment" : "",
					"hidden" : 1,
					"id" : "obj-53",
					"maxclass" : "inlet",
					"numinlets" : 0,
					"numoutlets" : 1,
					"outlettype" : [ "" ],
					"patching_rect" : [ 488.0, 5.0, 14.0, 14.0 ],
					"style" : ""
				}

			}
, 			{
				"box" : 				{
					"fontname" : "Arial",
					"fontsize" : 9.0,
					"id" : "obj-54",
					"maxclass" : "comment",
					"numinlets" : 1,
					"numoutlets" : 0,
					"patching_rect" : [ 344.0, 91.0, 316.0, 17.0 ],
					"style" : "",
					"text" : "Audio Signal (4 or 8 channels of processed signals)"
				}

			}
, 			{
				"box" : 				{
					"fontname" : "Futura Medium",
					"fontsize" : 14.0,
					"id" : "obj-55",
					"maxclass" : "comment",
					"numinlets" : 1,
					"numoutlets" : 0,
					"patching_rect" : [ 344.0, 72.0, 99.0, 25.0 ],
					"style" : "",
					"text" : "OUTPUTS"
				}

			}
, 			{
				"box" : 				{
					"fontname" : "Futura Medium",
					"fontsize" : 14.0,
					"id" : "obj-56",
					"maxclass" : "comment",
					"numinlets" : 1,
					"numoutlets" : 0,
					"patching_rect" : [ 344.0, 10.0, 99.0, 25.0 ],
					"style" : "",
					"text" : "INPUTS"
				}

			}
, 			{
				"box" : 				{
					"fontname" : "Arial",
					"fontsize" : 9.0,
					"id" : "obj-57",
					"maxclass" : "comment",
					"numinlets" : 1,
					"numoutlets" : 0,
					"patching_rect" : [ 344.0, 30.0, 314.0, 17.0 ],
					"style" : "",
					"text" : "Audio Signal"
				}

			}
, 			{
				"box" : 				{
					"fontname" : "Futura Medium",
					"fontsize" : 18.0,
					"id" : "obj-58",
					"maxclass" : "comment",
					"numinlets" : 1,
					"numoutlets" : 0,
					"patching_rect" : [ 10.0, 8.0, 313.0, 30.0 ],
					"style" : "",
					"text" : "GRAIN STRETCH MODULE"
				}

			}
, 			{
				"box" : 				{
					"angle" : 0.0,
					"bgcolor" : [ 0.74902, 0.827451, 1.0, 1.0 ],
					"border" : 1,
					"id" : "obj-59",
					"maxclass" : "panel",
					"mode" : 0,
					"numinlets" : 1,
					"numoutlets" : 0,
					"patching_rect" : [ 5.0, 7.0, 325.0, 30.0 ],
					"proportion" : 0.39,
					"rounded" : 0,
					"style" : ""
				}

			}
, 			{
				"box" : 				{
					"angle" : 0.0,
					"bgcolor" : [ 1.0, 1.0, 0.862745, 1.0 ],
					"border" : 1,
					"id" : "obj-60",
					"maxclass" : "panel",
					"mode" : 0,
					"numinlets" : 1,
					"numoutlets" : 0,
					"patching_rect" : [ 5.0, 42.0, 325.0, 346.0 ],
					"proportion" : 0.39,
					"rounded" : 0,
					"style" : ""
				}

			}
, 			{
				"box" : 				{
					"angle" : 0.0,
					"bgcolor" : [ 0.815686, 1.0, 0.815686, 1.0 ],
					"border" : 1,
					"id" : "obj-61",
					"maxclass" : "panel",
					"mode" : 0,
					"numinlets" : 1,
					"numoutlets" : 0,
					"patching_rect" : [ 6.0, 398.0, 325.0, 51.0 ],
					"proportion" : 0.39,
					"rounded" : 0,
					"style" : ""
				}

			}
, 			{
				"box" : 				{
					"fontname" : "Arial",
					"fontsize" : 9.0,
					"id" : "obj-62",
					"maxclass" : "comment",
					"numinlets" : 1,
					"numoutlets" : 0,
					"patching_rect" : [ 345.0, 139.0, 99.0, 17.0 ],
					"style" : "",
					"text" : "grainStretcherOnOff"
				}

			}
, 			{
				"box" : 				{
					"fontname" : "Arial",
					"fontsize" : 9.0,
					"hidden" : 1,
					"id" : "obj-63",
					"maxclass" : "message",
					"numinlets" : 2,
					"numoutlets" : 1,
					"outlettype" : [ "" ],
					"patching_rect" : [ 641.0, 389.0, 65.0, 19.0 ],
					"style" : "",
					"text" : "window exec"
				}

			}
, 			{
				"box" : 				{
					"angle" : 0.0,
					"bgcolor" : [ 1.0, 1.0, 0.862745, 1.0 ],
					"border" : 1,
					"id" : "obj-64",
					"maxclass" : "panel",
					"mode" : 0,
					"numinlets" : 1,
					"numoutlets" : 0,
					"patching_rect" : [ 338.0, 7.0, 351.0, 442.0 ],
					"proportion" : 0.39,
					"rounded" : 0,
					"style" : ""
				}

			}
 ],
		"lines" : [ 			{
				"patchline" : 				{
					"destination" : [ "obj-9", 0 ],
					"disabled" : 0,
					"hidden" : 1,
					"source" : [ "obj-63", 0 ]
				}

			}
, 			{
				"patchline" : 				{
					"destination" : [ "obj-9", 0 ],
					"disabled" : 0,
					"hidden" : 1,
					"source" : [ "obj-7", 0 ]
				}

			}
, 			{
				"patchline" : 				{
					"destination" : [ "obj-9", 0 ],
					"disabled" : 0,
					"hidden" : 1,
					"source" : [ "obj-8", 0 ]
				}

			}
 ],
		"dependency_cache" : [  ],
		"autosave" : 0
	}

}
