{
	"patcher" : 	{
		"fileversion" : 1,
		"appversion" : 		{
			"major" : 7,
			"minor" : 0,
			"revision" : 1,
			"architecture" : "x86",
			"modernui" : 1
		}
,
		"rect" : [ -1465.0, 229.0, 1298.0, 1077.0 ],
		"bgcolor" : [ 0.8, 0.8, 1.0, 1.0 ],
		"bglocked" : 0,
		"openinpresentation" : 1,
		"default_fontsize" : 12.0,
		"default_fontface" : 0,
		"default_fontname" : "Arial",
		"gridonopen" : 1,
		"gridsize" : [ 15.0, 15.0 ],
		"gridsnaponopen" : 1,
		"objectsnaponopen" : 1,
		"statusbarvisible" : 2,
		"toolbarvisible" : 1,
		"lefttoolbarpinned" : 0,
		"toptoolbarpinned" : 0,
		"righttoolbarpinned" : 0,
		"bottomtoolbarpinned" : 0,
		"toolbars_unpinned_last_save" : 0,
		"tallnewobj" : 0,
		"boxanimatetime" : 200,
		"enablehscroll" : 1,
		"enablevscroll" : 1,
		"devicewidth" : 0.0,
		"description" : "",
		"digest" : "",
		"tags" : "",
		"style" : "",
		"subpatcher_template" : "",
		"boxes" : [ 			{
				"box" : 				{
					"id" : "obj-68",
					"maxclass" : "newobj",
					"numinlets" : 1,
					"numoutlets" : 0,
					"patching_rect" : [ 207.0, 574.0, 34.0, 22.0 ],
					"style" : "",
					"text" : "print"
				}

			}
, 			{
				"box" : 				{
					"fontname" : "Arial",
					"fontsize" : 10.0,
					"id" : "obj-73",
					"maxclass" : "comment",
					"numinlets" : 1,
					"numoutlets" : 0,
					"patching_rect" : [ 138.0, 204.0, 75.0, 18.0 ],
					"presentation" : 1,
					"presentation_rect" : [ 301.0, 133.0, 17.0, 18.0 ],
					"style" : "",
					"text" : "8",
					"textcolor" : [ 0.290196, 0.611765, 0.380392, 1.0 ]
				}

			}
, 			{
				"box" : 				{
					"fontname" : "Arial",
					"fontsize" : 10.0,
					"id" : "obj-75",
					"maxclass" : "comment",
					"numinlets" : 1,
					"numoutlets" : 0,
					"patching_rect" : [ 123.0, 189.0, 75.0, 18.0 ],
					"presentation" : 1,
					"presentation_rect" : [ 270.0, 133.0, 17.0, 18.0 ],
					"style" : "",
					"text" : "7",
					"textcolor" : [ 0.290196, 0.611765, 0.380392, 1.0 ]
				}

			}
, 			{
				"box" : 				{
					"fontname" : "Arial",
					"fontsize" : 10.0,
					"id" : "obj-76",
					"maxclass" : "comment",
					"numinlets" : 1,
					"numoutlets" : 0,
					"patching_rect" : [ 123.0, 189.0, 75.0, 18.0 ],
					"presentation" : 1,
					"presentation_rect" : [ 237.0, 133.0, 17.0, 18.0 ],
					"style" : "",
					"text" : "6",
					"textcolor" : [ 0.290196, 0.611765, 0.380392, 1.0 ]
				}

			}
, 			{
				"box" : 				{
					"fontname" : "Arial",
					"fontsize" : 10.0,
					"id" : "obj-77",
					"maxclass" : "comment",
					"numinlets" : 1,
					"numoutlets" : 0,
					"patching_rect" : [ 108.0, 174.0, 75.0, 18.0 ],
					"presentation" : 1,
					"presentation_rect" : [ 204.0, 133.0, 17.0, 18.0 ],
					"style" : "",
					"text" : "5",
					"textcolor" : [ 0.290196, 0.611765, 0.380392, 1.0 ]
				}

			}
, 			{
				"box" : 				{
					"fontname" : "Arial",
					"fontsize" : 10.0,
					"id" : "obj-71",
					"maxclass" : "comment",
					"numinlets" : 1,
					"numoutlets" : 0,
					"patching_rect" : [ 123.0, 189.0, 75.0, 18.0 ],
					"presentation" : 1,
					"presentation_rect" : [ 172.0, 133.0, 17.0, 18.0 ],
					"style" : "",
					"text" : "4",
					"textcolor" : [ 0.290196, 0.611765, 0.380392, 1.0 ]
				}

			}
, 			{
				"box" : 				{
					"fontname" : "Arial",
					"fontsize" : 10.0,
					"id" : "obj-72",
					"maxclass" : "comment",
					"numinlets" : 1,
					"numoutlets" : 0,
					"patching_rect" : [ 108.0, 174.0, 75.0, 18.0 ],
					"presentation" : 1,
					"presentation_rect" : [ 136.0, 133.0, 17.0, 18.0 ],
					"style" : "",
					"text" : "3",
					"textcolor" : [ 0.290196, 0.611765, 0.380392, 1.0 ]
				}

			}
, 			{
				"box" : 				{
					"fontname" : "Arial",
					"fontsize" : 10.0,
					"id" : "obj-70",
					"maxclass" : "comment",
					"numinlets" : 1,
					"numoutlets" : 0,
					"patching_rect" : [ 108.0, 174.0, 75.0, 18.0 ],
					"presentation" : 1,
					"presentation_rect" : [ 103.0, 133.0, 17.0, 18.0 ],
					"style" : "",
					"text" : "2",
					"textcolor" : [ 0.290196, 0.611765, 0.380392, 1.0 ]
				}

			}
, 			{
				"box" : 				{
					"fontname" : "Arial",
					"fontsize" : 10.0,
					"id" : "obj-69",
					"maxclass" : "comment",
					"numinlets" : 1,
					"numoutlets" : 0,
					"patching_rect" : [ 93.0, 159.0, 75.0, 18.0 ],
					"presentation" : 1,
					"presentation_rect" : [ 70.0, 133.0, 17.0, 18.0 ],
					"style" : "",
					"text" : "1",
					"textcolor" : [ 0.290196, 0.611765, 0.380392, 1.0 ]
				}

			}
, 			{
				"box" : 				{
					"channels" : 8,
					"id" : "obj-60",
					"ignoreclick" : 1,
					"maxclass" : "live.gain~",
					"numinlets" : 8,
					"numoutlets" : 11,
					"orientation" : 1,
					"outlettype" : [ "signal", "signal", "signal", "signal", "signal", "signal", "signal", "signal", "", "float", "list" ],
					"parameter_enable" : 1,
					"patching_rect" : [ 661.0, 365.0, 134.0, 80.0 ],
					"presentation" : 1,
					"presentation_rect" : [ 228.0, 28.5, 89.0, 80.0 ],
					"saved_attribute_attributes" : 					{
						"valueof" : 						{
							"parameter_longname" : "megaPlayer",
							"parameter_shortname" : "megaPlayer",
							"parameter_type" : 0,
							"parameter_mmin" : -70.0,
							"parameter_mmax" : 6.0,
							"parameter_initial" : [ 0.0 ],
							"parameter_unitstyle" : 4
						}

					}
,
					"shownumber" : 0,
					"varname" : "live.gain~"
				}

			}
, 			{
				"box" : 				{
					"comment" : "(signal) Output Audio",
					"id" : "obj-57",
					"maxclass" : "outlet",
					"numinlets" : 1,
					"numoutlets" : 0,
					"patching_rect" : [ 389.916656, 494.0, 19.0, 19.0 ],
					"style" : ""
				}

			}
, 			{
				"box" : 				{
					"comment" : "(signal) Output Audio",
					"id" : "obj-58",
					"maxclass" : "outlet",
					"numinlets" : 1,
					"numoutlets" : 0,
					"patching_rect" : [ 367.0, 494.0, 19.0, 19.0 ],
					"style" : ""
				}

			}
, 			{
				"box" : 				{
					"comment" : "(signal) Output Audio",
					"id" : "obj-59",
					"maxclass" : "outlet",
					"numinlets" : 1,
					"numoutlets" : 0,
					"patching_rect" : [ 342.916656, 494.0, 19.0, 19.0 ],
					"style" : ""
				}

			}
, 			{
				"box" : 				{
					"comment" : "(signal) Output Audio",
					"id" : "obj-29",
					"maxclass" : "outlet",
					"numinlets" : 1,
					"numoutlets" : 0,
					"patching_rect" : [ 321.916656, 494.0, 19.0, 19.0 ],
					"style" : ""
				}

			}
, 			{
				"box" : 				{
					"comment" : "(signal) Output Audio",
					"id" : "obj-53",
					"maxclass" : "outlet",
					"numinlets" : 1,
					"numoutlets" : 0,
					"patching_rect" : [ 299.0, 494.0, 19.0, 19.0 ],
					"style" : ""
				}

			}
, 			{
				"box" : 				{
					"comment" : "(signal) Output Audio",
					"id" : "obj-24",
					"maxclass" : "outlet",
					"numinlets" : 1,
					"numoutlets" : 0,
					"patching_rect" : [ 274.916656, 494.0, 19.0, 19.0 ],
					"style" : ""
				}

			}
, 			{
				"box" : 				{
					"comment" : "(signal) Output Audio",
					"id" : "obj-23",
					"maxclass" : "outlet",
					"numinlets" : 1,
					"numoutlets" : 0,
					"patching_rect" : [ 252.0, 494.0, 19.0, 19.0 ],
					"style" : ""
				}

			}
, 			{
				"box" : 				{
					"id" : "obj-14",
					"maxclass" : "newobj",
					"numinlets" : 1,
					"numoutlets" : 1,
					"outlettype" : [ "" ],
					"patcher" : 					{
						"fileversion" : 1,
						"appversion" : 						{
							"major" : 7,
							"minor" : 0,
							"revision" : 1,
							"architecture" : "x86",
							"modernui" : 1
						}
,
						"rect" : [ 129.0, 86.0, 892.0, 710.0 ],
						"bglocked" : 0,
						"openinpresentation" : 0,
						"default_fontsize" : 12.0,
						"default_fontface" : 0,
						"default_fontname" : "Arial",
						"gridonopen" : 1,
						"gridsize" : [ 15.0, 15.0 ],
						"gridsnaponopen" : 1,
						"objectsnaponopen" : 1,
						"statusbarvisible" : 2,
						"toolbarvisible" : 1,
						"lefttoolbarpinned" : 0,
						"toptoolbarpinned" : 0,
						"righttoolbarpinned" : 0,
						"bottomtoolbarpinned" : 0,
						"toolbars_unpinned_last_save" : 0,
						"tallnewobj" : 0,
						"boxanimatetime" : 200,
						"enablehscroll" : 1,
						"enablevscroll" : 1,
						"devicewidth" : 0.0,
						"description" : "",
						"digest" : "",
						"tags" : "",
						"style" : "",
						"subpatcher_template" : "",
						"boxes" : [ 							{
								"box" : 								{
									"id" : "obj-30",
									"maxclass" : "newobj",
									"numinlets" : 1,
									"numoutlets" : 1,
									"outlettype" : [ "" ],
									"patching_rect" : [ 538.0, 296.0, 181.0, 22.0 ],
									"style" : "",
									"text" : "expr (0.5 - (($f1-0.9) / 0.1 * .25))"
								}

							}
, 							{
								"box" : 								{
									"id" : "obj-29",
									"maxclass" : "message",
									"numinlets" : 2,
									"numoutlets" : 1,
									"outlettype" : [ "" ],
									"patching_rect" : [ 605.0, 425.0, 127.0, 22.0 ],
									"style" : "",
									"text" : "bgcolor 0.8 $1 0.25 1."
								}

							}
, 							{
								"box" : 								{
									"id" : "obj-26",
									"maxclass" : "newobj",
									"numinlets" : 1,
									"numoutlets" : 1,
									"outlettype" : [ "" ],
									"patching_rect" : [ 479.0, 334.0, 181.0, 22.0 ],
									"style" : "",
									"text" : "expr (0.5 - (($f1-0.8) / 0.1 * .25))"
								}

							}
, 							{
								"box" : 								{
									"id" : "obj-25",
									"maxclass" : "message",
									"numinlets" : 2,
									"numoutlets" : 1,
									"outlettype" : [ "" ],
									"patching_rect" : [ 469.0, 425.0, 117.0, 22.0 ],
									"style" : "",
									"text" : "bgcolor 0.8 $1 $2 1."
								}

							}
, 							{
								"box" : 								{
									"id" : "obj-24",
									"maxclass" : "newobj",
									"numinlets" : 2,
									"numoutlets" : 1,
									"outlettype" : [ "" ],
									"patching_rect" : [ 294.0, 371.0, 63.0, 22.0 ],
									"style" : "",
									"text" : "pack 0. 0."
								}

							}
, 							{
								"box" : 								{
									"id" : "obj-23",
									"maxclass" : "newobj",
									"numinlets" : 1,
									"numoutlets" : 1,
									"outlettype" : [ "" ],
									"patching_rect" : [ 294.0, 330.0, 174.0, 22.0 ],
									"style" : "",
									"text" : "expr (0.8 - (($f1-0.8) / 0.1 * .3))"
								}

							}
, 							{
								"box" : 								{
									"id" : "obj-22",
									"maxclass" : "message",
									"numinlets" : 2,
									"numoutlets" : 1,
									"outlettype" : [ "" ],
									"patching_rect" : [ 328.0, 425.0, 120.0, 22.0 ],
									"style" : "",
									"text" : "bgcolor $1 0.8 0.5 1."
								}

							}
, 							{
								"box" : 								{
									"id" : "obj-21",
									"maxclass" : "newobj",
									"numinlets" : 1,
									"numoutlets" : 1,
									"outlettype" : [ "" ],
									"patching_rect" : [ 241.0, 296.0, 169.0, 22.0 ],
									"style" : "",
									"text" : "expr (($f1-0.6) / 0.2 * .3) + 0.5"
								}

							}
, 							{
								"box" : 								{
									"id" : "obj-19",
									"maxclass" : "message",
									"numinlets" : 2,
									"numoutlets" : 1,
									"outlettype" : [ "" ],
									"patching_rect" : [ 193.0, 425.0, 120.0, 22.0 ],
									"style" : "",
									"text" : "bgcolor 0.5 $1 0.5 1."
								}

							}
, 							{
								"box" : 								{
									"id" : "obj-17",
									"maxclass" : "newobj",
									"numinlets" : 1,
									"numoutlets" : 1,
									"outlettype" : [ "" ],
									"patching_rect" : [ 192.0, 257.0, 148.0, 22.0 ],
									"style" : "",
									"text" : "expr (($f1 / 0.6) * .3) + 0.5"
								}

							}
, 							{
								"box" : 								{
									"id" : "obj-16",
									"maxclass" : "newobj",
									"numinlets" : 3,
									"numoutlets" : 2,
									"outlettype" : [ "float", "float" ],
									"patching_rect" : [ 347.0, 249.0, 65.0, 22.0 ],
									"style" : "",
									"text" : "split 0.9 1."
								}

							}
, 							{
								"box" : 								{
									"id" : "obj-10",
									"maxclass" : "newobj",
									"numinlets" : 3,
									"numoutlets" : 2,
									"outlettype" : [ "float", "float" ],
									"patching_rect" : [ 294.0, 218.0, 72.0, 22.0 ],
									"style" : "",
									"text" : "split 0.8 0.9"
								}

							}
, 							{
								"box" : 								{
									"id" : "obj-9",
									"maxclass" : "newobj",
									"numinlets" : 3,
									"numoutlets" : 2,
									"outlettype" : [ "float", "float" ],
									"patching_rect" : [ 241.0, 186.0, 72.0, 22.0 ],
									"style" : "",
									"text" : "split 0.6 0.8"
								}

							}
, 							{
								"box" : 								{
									"id" : "obj-8",
									"maxclass" : "newobj",
									"numinlets" : 2,
									"numoutlets" : 1,
									"outlettype" : [ "float" ],
									"patching_rect" : [ 193.0, 95.0, 41.0, 22.0 ],
									"style" : "",
									"text" : "/ 127."
								}

							}
, 							{
								"box" : 								{
									"id" : "obj-7",
									"maxclass" : "newobj",
									"numinlets" : 3,
									"numoutlets" : 2,
									"outlettype" : [ "float", "float" ],
									"patching_rect" : [ 192.0, 149.0, 65.0, 22.0 ],
									"style" : "",
									"text" : "split 0. 0.6"
								}

							}
, 							{
								"box" : 								{
									"id" : "obj-5",
									"maxclass" : "number",
									"numinlets" : 1,
									"numoutlets" : 2,
									"outlettype" : [ "", "bang" ],
									"parameter_enable" : 0,
									"patching_rect" : [ 79.0, 95.0, 50.0, 22.0 ],
									"style" : ""
								}

							}
, 							{
								"box" : 								{
									"comment" : "",
									"id" : "obj-3",
									"maxclass" : "outlet",
									"numinlets" : 1,
									"numoutlets" : 0,
									"patching_rect" : [ 94.0, 537.0, 30.0, 30.0 ],
									"style" : ""
								}

							}
, 							{
								"box" : 								{
									"comment" : "",
									"id" : "obj-1",
									"maxclass" : "inlet",
									"numinlets" : 0,
									"numoutlets" : 1,
									"outlettype" : [ "int" ],
									"patching_rect" : [ 79.0, 32.0, 30.0, 30.0 ],
									"style" : ""
								}

							}
 ],
						"lines" : [ 							{
								"patchline" : 								{
									"destination" : [ "obj-5", 0 ],
									"disabled" : 0,
									"hidden" : 0,
									"source" : [ "obj-1", 0 ]
								}

							}
, 							{
								"patchline" : 								{
									"destination" : [ "obj-16", 0 ],
									"disabled" : 0,
									"hidden" : 0,
									"source" : [ "obj-10", 1 ]
								}

							}
, 							{
								"patchline" : 								{
									"destination" : [ "obj-23", 0 ],
									"disabled" : 0,
									"hidden" : 0,
									"source" : [ "obj-10", 0 ]
								}

							}
, 							{
								"patchline" : 								{
									"destination" : [ "obj-26", 0 ],
									"disabled" : 0,
									"hidden" : 0,
									"midpoints" : [ 303.5, 286.5, 488.5, 286.5 ],
									"source" : [ "obj-10", 0 ]
								}

							}
, 							{
								"patchline" : 								{
									"destination" : [ "obj-30", 0 ],
									"disabled" : 0,
									"hidden" : 0,
									"midpoints" : [ 356.5, 276.0, 547.5, 276.0 ],
									"source" : [ "obj-16", 0 ]
								}

							}
, 							{
								"patchline" : 								{
									"destination" : [ "obj-19", 0 ],
									"disabled" : 0,
									"hidden" : 0,
									"source" : [ "obj-17", 0 ]
								}

							}
, 							{
								"patchline" : 								{
									"destination" : [ "obj-3", 0 ],
									"disabled" : 0,
									"hidden" : 0,
									"midpoints" : [ 202.5, 464.5, 103.5, 464.5 ],
									"source" : [ "obj-19", 0 ]
								}

							}
, 							{
								"patchline" : 								{
									"destination" : [ "obj-22", 0 ],
									"disabled" : 0,
									"hidden" : 0,
									"source" : [ "obj-21", 0 ]
								}

							}
, 							{
								"patchline" : 								{
									"destination" : [ "obj-3", 0 ],
									"disabled" : 0,
									"hidden" : 0,
									"midpoints" : [ 337.5, 491.5, 103.5, 491.5 ],
									"source" : [ "obj-22", 0 ]
								}

							}
, 							{
								"patchline" : 								{
									"destination" : [ "obj-24", 0 ],
									"disabled" : 0,
									"hidden" : 0,
									"source" : [ "obj-23", 0 ]
								}

							}
, 							{
								"patchline" : 								{
									"destination" : [ "obj-25", 0 ],
									"disabled" : 0,
									"hidden" : 0,
									"midpoints" : [ 303.5, 409.0, 478.5, 409.0 ],
									"source" : [ "obj-24", 0 ]
								}

							}
, 							{
								"patchline" : 								{
									"destination" : [ "obj-3", 0 ],
									"disabled" : 0,
									"hidden" : 0,
									"midpoints" : [ 478.5, 491.5, 103.5, 491.5 ],
									"source" : [ "obj-25", 0 ]
								}

							}
, 							{
								"patchline" : 								{
									"destination" : [ "obj-24", 1 ],
									"disabled" : 0,
									"hidden" : 0,
									"midpoints" : [ 488.5, 363.0, 347.5, 363.0 ],
									"source" : [ "obj-26", 0 ]
								}

							}
, 							{
								"patchline" : 								{
									"destination" : [ "obj-3", 0 ],
									"disabled" : 0,
									"hidden" : 0,
									"midpoints" : [ 614.5, 491.5, 103.5, 491.5 ],
									"source" : [ "obj-29", 0 ]
								}

							}
, 							{
								"patchline" : 								{
									"destination" : [ "obj-29", 0 ],
									"disabled" : 0,
									"hidden" : 0,
									"midpoints" : [ 547.5, 398.0, 614.5, 398.0 ],
									"source" : [ "obj-30", 0 ]
								}

							}
, 							{
								"patchline" : 								{
									"destination" : [ "obj-8", 0 ],
									"disabled" : 0,
									"hidden" : 0,
									"source" : [ "obj-5", 0 ]
								}

							}
, 							{
								"patchline" : 								{
									"destination" : [ "obj-17", 0 ],
									"disabled" : 0,
									"hidden" : 0,
									"source" : [ "obj-7", 0 ]
								}

							}
, 							{
								"patchline" : 								{
									"destination" : [ "obj-9", 0 ],
									"disabled" : 0,
									"hidden" : 0,
									"source" : [ "obj-7", 1 ]
								}

							}
, 							{
								"patchline" : 								{
									"destination" : [ "obj-7", 0 ],
									"disabled" : 0,
									"hidden" : 0,
									"source" : [ "obj-8", 0 ]
								}

							}
, 							{
								"patchline" : 								{
									"destination" : [ "obj-10", 0 ],
									"disabled" : 0,
									"hidden" : 0,
									"source" : [ "obj-9", 1 ]
								}

							}
, 							{
								"patchline" : 								{
									"destination" : [ "obj-21", 0 ],
									"disabled" : 0,
									"hidden" : 0,
									"source" : [ "obj-9", 0 ]
								}

							}
 ]
					}
,
					"patching_rect" : [ 59.0, 581.0, 82.0, 22.0 ],
					"saved_object_attributes" : 					{
						"description" : "",
						"digest" : "",
						"globalpatchername" : "",
						"style" : "",
						"tags" : ""
					}
,
					"style" : "",
					"text" : "p covertColor"
				}

			}
, 			{
				"box" : 				{
					"frames" : 1,
					"id" : "obj-67",
					"maxclass" : "pictctrl",
					"mode" : 1,
					"multiplier" : 1,
					"name" : "powerButton03.png",
					"numinlets" : 1,
					"numoutlets" : 1,
					"outlettype" : [ "int" ],
					"parameter_enable" : 0,
					"patching_rect" : [ 719.5, 80.0, 32.0, 32.0 ],
					"presentation" : 1,
					"presentation_rect" : [ 191.0, 19.0, 32.0, 32.0 ],
					"range" : 201,
					"threshold" : 0.94,
					"trackhorizontal" : 1,
					"tracking" : 1,
					"trackvertical" : 1,
					"varname" : "pictctrl"
				}

			}
, 			{
				"box" : 				{
					"bgcolor" : [ 0.65098, 0.666667, 0.662745, 0.0 ],
					"fontname" : "Arial",
					"fontsize" : 8.0,
					"htricolor" : [ 0.87, 0.82, 0.24, 1.0 ],
					"id" : "obj-5",
					"ignoreclick" : 1,
					"maxclass" : "number",
					"maximum" : 127,
					"minimum" : 0,
					"numinlets" : 1,
					"numoutlets" : 2,
					"outlettype" : [ "", "bang" ],
					"parameter_enable" : 0,
					"patching_rect" : [ 71.0, 520.0, 26.0, 17.0 ],
					"presentation" : 1,
					"presentation_rect" : [ 12.5, 89.0, 25.0, 17.0 ],
					"style" : "",
					"textcolor" : [ 0.0, 0.0, 0.0, 1.0 ],
					"triangle" : 0,
					"tricolor" : [ 0.75, 0.75, 0.75, 1.0 ],
					"varname" : "number"
				}

			}
, 			{
				"box" : 				{
					"bkgndpict" : "sliderTrack6.png",
					"bottommargin" : 1,
					"clickedimage" : 0,
					"id" : "obj-6",
					"inactiveimage" : 0,
					"knobpict" : "sliderKnob3.png",
					"leftmargin" : 3,
					"leftvalue" : 127,
					"maxclass" : "pictslider",
					"movehorizontal" : 0,
					"numinlets" : 2,
					"numoutlets" : 2,
					"outlettype" : [ "int", "int" ],
					"parameter_enable" : 0,
					"patching_rect" : [ 57.0, 395.0, 19.0, 70.0 ],
					"presentation" : 1,
					"presentation_rect" : [ 12.5, 19.5, 19.0, 70.0 ],
					"rightmargin" : 3,
					"rightvalue" : 0,
					"style" : "",
					"topmargin" : 1,
					"varname" : "pictslider[1]"
				}

			}
, 			{
				"box" : 				{
					"angle" : 0.0,
					"bgcolor" : [ 0.5, 0.5, 0.5, 1.0 ],
					"border" : 1,
					"bordercolor" : [ 0.0, 0.0, 0.0, 1.0 ],
					"id" : "obj-54",
					"maxclass" : "panel",
					"mode" : 0,
					"numinlets" : 1,
					"numoutlets" : 0,
					"patching_rect" : [ 59.0, 658.0, 24.5, 104.0 ],
					"presentation" : 1,
					"presentation_rect" : [ 5.5, 19.5, 24.5, 70.0 ],
					"proportion" : 0.39,
					"rounded" : 0,
					"style" : ""
				}

			}
, 			{
				"box" : 				{
					"fontname" : "Arial",
					"fontsize" : 9.0,
					"id" : "obj-3",
					"maxclass" : "newobj",
					"numinlets" : 1,
					"numoutlets" : 0,
					"patching_rect" : [ 424.0, 624.0, 72.0, 19.0 ],
					"style" : "",
					"text" : "s #0-collLength"
				}

			}
, 			{
				"box" : 				{
					"fontname" : "Arial",
					"fontsize" : 9.0,
					"id" : "obj-2",
					"maxclass" : "message",
					"numinlets" : 2,
					"numoutlets" : 1,
					"outlettype" : [ "" ],
					"patching_rect" : [ 388.5, 549.0, 35.0, 19.0 ],
					"style" : "",
					"text" : "length"
				}

			}
, 			{
				"box" : 				{
					"fontname" : "Arial",
					"fontsize" : 9.0,
					"id" : "obj-64",
					"maxclass" : "message",
					"numinlets" : 2,
					"numoutlets" : 1,
					"outlettype" : [ "" ],
					"patching_rect" : [ 623.0, 279.0, 72.0, 19.0 ],
					"style" : "",
					"text" : "refer megadata"
				}

			}
, 			{
				"box" : 				{
					"fontname" : "Arial",
					"fontsize" : 9.0,
					"id" : "obj-63",
					"maxclass" : "newobj",
					"numinlets" : 1,
					"numoutlets" : 4,
					"outlettype" : [ "", "", "", "" ],
					"patching_rect" : [ 639.0, 312.0, 67.0, 19.0 ],
					"saved_object_attributes" : 					{
						"embed" : 0
					}
,
					"style" : "",
					"text" : "coll megadata"
				}

			}
, 			{
				"box" : 				{
					"fontname" : "Arial",
					"fontsize" : 9.0,
					"id" : "obj-62",
					"maxclass" : "newobj",
					"numinlets" : 2,
					"numoutlets" : 2,
					"outlettype" : [ "bang", "" ],
					"patching_rect" : [ 524.0, 244.0, 45.0, 19.0 ],
					"style" : "",
					"text" : "sel 0"
				}

			}
, 			{
				"box" : 				{
					"fontname" : "Arial",
					"fontsize" : 9.0,
					"id" : "obj-11",
					"maxclass" : "newobj",
					"numinlets" : 1,
					"numoutlets" : 1,
					"outlettype" : [ "" ],
					"patching_rect" : [ 523.0, 277.0, 67.0, 19.0 ],
					"style" : "",
					"text" : "buildSymbol s"
				}

			}
, 			{
				"box" : 				{
					"fontname" : "Arial",
					"fontsize" : 9.0,
					"id" : "obj-80",
					"maxclass" : "newobj",
					"numinlets" : 2,
					"numoutlets" : 1,
					"outlettype" : [ "" ],
					"patching_rect" : [ 523.0, 304.0, 49.0, 19.0 ],
					"style" : "",
					"text" : "pack s 48"
				}

			}
, 			{
				"box" : 				{
					"fontname" : "Arial",
					"fontsize" : 9.0,
					"id" : "obj-78",
					"maxclass" : "message",
					"numinlets" : 2,
					"numoutlets" : 1,
					"outlettype" : [ "" ],
					"patching_rect" : [ 524.0, 220.0, 29.0, 19.0 ],
					"style" : "",
					"text" : "#1"
				}

			}
, 			{
				"box" : 				{
					"fontname" : "Arial",
					"fontsize" : 9.0,
					"id" : "obj-61",
					"maxclass" : "newobj",
					"numinlets" : 1,
					"numoutlets" : 1,
					"outlettype" : [ "bang" ],
					"patching_rect" : [ 524.0, 190.0, 48.0, 19.0 ],
					"style" : "",
					"text" : "loadbang"
				}

			}
, 			{
				"box" : 				{
					"fontname" : "Arial",
					"fontsize" : 9.0,
					"id" : "obj-13",
					"maxclass" : "message",
					"numinlets" : 2,
					"numoutlets" : 1,
					"outlettype" : [ "" ],
					"patching_rect" : [ 284.0, 752.0, 16.0, 19.0 ],
					"style" : "",
					"text" : "1"
				}

			}
, 			{
				"box" : 				{
					"fontname" : "Arial",
					"fontsize" : 9.0,
					"id" : "obj-49",
					"maxclass" : "message",
					"numinlets" : 2,
					"numoutlets" : 1,
					"outlettype" : [ "" ],
					"patching_rect" : [ 260.0, 785.0, 47.0, 19.0 ],
					"style" : "",
					"text" : "collmega"
				}

			}
, 			{
				"box" : 				{
					"fontname" : "Arial",
					"fontsize" : 9.0,
					"id" : "obj-50",
					"maxclass" : "newobj",
					"numinlets" : 1,
					"numoutlets" : 0,
					"patching_rect" : [ 260.0, 808.0, 55.0, 19.0 ],
					"style" : "",
					"text" : "print built"
				}

			}
, 			{
				"box" : 				{
					"id" : "obj-51",
					"maxclass" : "button",
					"numinlets" : 1,
					"numoutlets" : 1,
					"outlettype" : [ "bang" ],
					"patching_rect" : [ 260.0, 752.0, 22.0, 22.0 ],
					"style" : ""
				}

			}
, 			{
				"box" : 				{
					"fontname" : "Arial",
					"fontsize" : 9.0,
					"id" : "obj-52",
					"maxclass" : "newobj",
					"numinlets" : 3,
					"numoutlets" : 1,
					"outlettype" : [ "bang" ],
					"patching_rect" : [ 261.0, 727.0, 125.0, 19.0 ],
					"style" : "",
					"text" : "dragCollNew #0-megadata s"
				}

			}
, 			{
				"box" : 				{
					"fontname" : "Arial",
					"fontsize" : 10.0,
					"id" : "obj-74",
					"maxclass" : "newobj",
					"numinlets" : 4,
					"numoutlets" : 0,
					"patching_rect" : [ 772.0, 10.0, 99.0, 20.0 ],
					"style" : "",
					"text" : "bgcolor 0.8 0.8 1. 1."
				}

			}
, 			{
				"box" : 				{
					"fontname" : "Arial",
					"fontsize" : 10.0,
					"id" : "obj-129",
					"maxclass" : "newobj",
					"numinlets" : 1,
					"numoutlets" : 1,
					"outlettype" : [ "" ],
					"patching_rect" : [ 869.0, 85.0, 132.0, 20.0 ],
					"style" : "",
					"text" : "nTbp_ #1 @name PLAYER"
				}

			}
, 			{
				"box" : 				{
					"fontname" : "Arial",
					"fontsize" : 10.0,
					"id" : "obj-56",
					"maxclass" : "newobj",
					"numinlets" : 1,
					"numoutlets" : 2,
					"outlettype" : [ "", "" ],
					"patching_rect" : [ 843.0, 58.0, 145.0, 20.0 ],
					"style" : "",
					"text" : "MRrC #1 @r megaPlayerTable"
				}

			}
, 			{
				"box" : 				{
					"fontname" : "Arial",
					"fontsize" : 10.0,
					"id" : "obj-130",
					"maxclass" : "newobj",
					"numinlets" : 1,
					"numoutlets" : 2,
					"outlettype" : [ "", "" ],
					"patching_rect" : [ 803.0, 31.0, 140.0, 20.0 ],
					"style" : "",
					"text" : "MRrC #1 @r megaPlayerColl"
				}

			}
, 			{
				"box" : 				{
					"fontname" : "Arial",
					"fontsize" : 9.0,
					"id" : "obj-4",
					"maxclass" : "newobj",
					"numinlets" : 1,
					"numoutlets" : 0,
					"patching_rect" : [ 170.0, 616.0, 66.0, 19.0 ],
					"style" : "",
					"text" : "print loading"
				}

			}
, 			{
				"box" : 				{
					"fontname" : "Arial",
					"fontsize" : 9.0,
					"id" : "obj-7",
					"maxclass" : "message",
					"numinlets" : 2,
					"numoutlets" : 1,
					"outlettype" : [ "" ],
					"patching_rect" : [ 459.0, 115.0, 55.0, 19.0 ],
					"style" : "",
					"text" : "border 1"
				}

			}
, 			{
				"box" : 				{
					"fontname" : "Arial",
					"fontsize" : 9.0,
					"id" : "obj-8",
					"maxclass" : "newobj",
					"numinlets" : 1,
					"numoutlets" : 1,
					"outlettype" : [ "bang" ],
					"patching_rect" : [ 550.0, 80.0, 55.0, 19.0 ],
					"style" : "",
					"text" : "loadbang"
				}

			}
, 			{
				"box" : 				{
					"fontname" : "Arial",
					"fontsize" : 9.0,
					"id" : "obj-10",
					"maxclass" : "newobj",
					"numinlets" : 1,
					"numoutlets" : 1,
					"outlettype" : [ "" ],
					"patching_rect" : [ 538.0, 48.0, 68.0, 19.0 ],
					"style" : "",
					"text" : "prepend read"
				}

			}
, 			{
				"box" : 				{
					"fontname" : "Arial",
					"fontsize" : 9.0,
					"id" : "obj-12",
					"maxclass" : "newobj",
					"numinlets" : 1,
					"numoutlets" : 1,
					"outlettype" : [ "" ],
					"patching_rect" : [ 461.0, 49.0, 68.0, 19.0 ],
					"style" : "",
					"text" : "prepend read"
				}

			}
, 			{
				"box" : 				{
					"fontname" : "Arial",
					"fontsize" : 9.0,
					"id" : "obj-15",
					"maxclass" : "newobj",
					"numinlets" : 0,
					"numoutlets" : 1,
					"outlettype" : [ "" ],
					"patching_rect" : [ 377.0, 22.0, 90.0, 19.0 ],
					"style" : "",
					"text" : "r exMegaPlayerIn"
				}

			}
, 			{
				"box" : 				{
					"fontname" : "Arial",
					"fontsize" : 9.0,
					"id" : "obj-16",
					"maxclass" : "newobj",
					"numinlets" : 1,
					"numoutlets" : 0,
					"patching_rect" : [ 370.0, 167.0, 91.0, 19.0 ],
					"style" : "",
					"text" : "s passMegaPlayer"
				}

			}
, 			{
				"box" : 				{
					"fontname" : "Arial Black",
					"fontsize" : 14.0,
					"id" : "obj-17",
					"maxclass" : "comment",
					"numinlets" : 1,
					"numoutlets" : 0,
					"patching_rect" : [ 29.0, 57.0, 100.0, 26.0 ],
					"presentation" : 1,
					"presentation_rect" : [ 29.0, 37.0, 100.0, 26.0 ],
					"style" : "",
					"text" : "PLAYER"
				}

			}
, 			{
				"box" : 				{
					"fontname" : "Arial",
					"fontsize" : 9.0,
					"id" : "obj-18",
					"maxclass" : "newobj",
					"numinlets" : 1,
					"numoutlets" : 1,
					"outlettype" : [ "" ],
					"patching_rect" : [ 273.0, 115.0, 45.0, 19.0 ],
					"style" : "",
					"text" : "pcontrol"
				}

			}
, 			{
				"box" : 				{
					"fontname" : "Arial",
					"fontsize" : 9.0,
					"id" : "obj-19",
					"maxclass" : "newobj",
					"numinlets" : 1,
					"numoutlets" : 3,
					"outlettype" : [ "", "", "" ],
					"patching_rect" : [ 273.0, 38.0, 81.0, 19.0 ],
					"style" : "",
					"text" : "muter"
				}

			}
, 			{
				"box" : 				{
					"fontname" : "Arial",
					"fontsize" : 9.0,
					"id" : "obj-20",
					"maxclass" : "newobj",
					"numinlets" : 1,
					"numoutlets" : 1,
					"outlettype" : [ "int" ],
					"patching_rect" : [ 56.0, 175.0, 45.0, 19.0 ],
					"style" : "",
					"text" : "bControl"
				}

			}
, 			{
				"box" : 				{
					"frames" : 1,
					"id" : "obj-21",
					"imagemask" : 1,
					"maxclass" : "pictctrl",
					"multiplier" : 1,
					"name" : "largeGreen.png",
					"numinlets" : 1,
					"numoutlets" : 1,
					"outlettype" : [ "int" ],
					"parameter_enable" : 0,
					"patching_rect" : [ 40.0, 104.0, 18.0, 18.0 ],
					"presentation" : 1,
					"presentation_rect" : [ 40.0, 89.0, 18.0, 18.0 ],
					"trackhorizontal" : 1,
					"tracking" : 1,
					"trackvertical" : 1
				}

			}
, 			{
				"box" : 				{
					"fontname" : "Arial",
					"fontsize" : 9.0,
					"id" : "obj-25",
					"maxclass" : "newobj",
					"numinlets" : 1,
					"numoutlets" : 1,
					"outlettype" : [ "" ],
					"patching_rect" : [ 381.0, 99.0, 50.0, 19.0 ],
					"style" : "",
					"text" : "pcontrol"
				}

			}
, 			{
				"box" : 				{
					"fontname" : "Arial",
					"fontsize" : 9.0,
					"id" : "obj-26",
					"maxclass" : "message",
					"numinlets" : 2,
					"numoutlets" : 1,
					"outlettype" : [ "" ],
					"patching_rect" : [ 381.0, 80.0, 29.0, 19.0 ],
					"style" : "",
					"text" : "open"
				}

			}
, 			{
				"box" : 				{
					"handoff" : "",
					"id" : "obj-27",
					"maxclass" : "ubutton",
					"numinlets" : 1,
					"numoutlets" : 4,
					"outlettype" : [ "bang", "bang", "", "int" ],
					"patching_rect" : [ 524.0, 123.0, 28.0, 27.0 ],
					"presentation" : 1,
					"presentation_rect" : [ 158.0, 21.0, 28.0, 27.0 ]
				}

			}
, 			{
				"box" : 				{
					"fontname" : "Arial",
					"fontsize" : 9.0,
					"id" : "obj-28",
					"maxclass" : "newobj",
					"numinlets" : 1,
					"numoutlets" : 0,
					"patching_rect" : [ 381.0, 132.0, 80.0, 19.0 ],
					"style" : "",
					"text" : "megaPlayerInfo"
				}

			}
, 			{
				"box" : 				{
					"bgcolor" : [ 0.858824, 0.866667, 0.87451, 1.0 ],
					"color" : [ 0.321569, 0.341176, 0.368627, 1.0 ],
					"editor_rect" : [ 296.0, 198.0, 291.0, 102.0 ],
					"embed" : 0,
					"fontname" : "Arial",
					"fontsize" : 9.0,
					"id" : "obj-31",
					"maxclass" : "newobj",
					"numinlets" : 2,
					"numoutlets" : 2,
					"outlettype" : [ "int", "bang" ],
					"patching_rect" : [ 426.0, 408.0, 82.0, 19.0 ],
					"presentation" : 1,
					"presentation_linecount" : 2,
					"presentation_rect" : [ 159.0, 56.0, 66.0, 29.0 ],
					"saved_object_attributes" : 					{
						"embed" : 0,
						"name" : "megaTable",
						"parameter_enable" : 0,
						"range" : 128,
						"showeditor" : 0,
						"size" : 400
					}
,
					"showeditor" : 0,
					"style" : "",
					"text" : "table megaTable",
					"textcolor" : [ 0.0, 0.0, 0.0, 1.0 ]
				}

			}
, 			{
				"box" : 				{
					"comment" : "(list [LR FB TBo]) Pan Position (0.-1.)",
					"id" : "obj-32",
					"maxclass" : "outlet",
					"numinlets" : 1,
					"numoutlets" : 0,
					"patching_rect" : [ 225.5, 498.0, 21.0, 21.0 ],
					"style" : ""
				}

			}
, 			{
				"box" : 				{
					"data" : [ 1962, "", "IBkSG0fBZn....PCIgDQRA...3A....HHX....PA.g7e....DLmPIQEBHf.B7g.YHB..GDVRDEDUHkXwVsGTTccG96t6xiEXgcYYQX40BDb4gUdHTJhn.RTK0jZssXJTmAqVazIowXR6zJLELsoRJXEyiIwDiBkvjHKO7EPjntKFYATggEW.AA4MBgcwc44991+v6xfvBRyjY52LmYO2y467669862u6rGf+OAhenBTc0UmqMdUQuMWNreHSAAetTRIEiqDeFKdg+8QNh6Zpu9c3mO9nywziszjS9MztZDtu1kezNteq+ooldJr8TWid.TvJwml4IkTRIz+Wu1eH8ot6ck3IMZmKt.D9E18P0EdOwW1kUivJFeTgpzYBM08nHi+RFm4HG3.MT8EKMomqv8MXO69aEU5481fo05tybPG5mAg5n66oyqW8qsZDNl3R7s3v262km2dce8FLX8suw0h9r4meIkV7mcPKwmt4IrYY+aXauCsgdgFDqW9g5teyvuvhB9yhS7qyg965xxGW9JI7mc9y+jlZQ1MyImb9JBC5d40vkKuwd7nLap9Fdo7x68Ldgxuzsrniibiw0c6VoGZlbFTPGMij7zOTVIEBVbbGQF71yq2FuZXqFmmVZo8j313lFwC9d.dt6NzXfDu+Ix83sdGoOSZedGelO9SFR1P8+RC1QaNSn0Hzvf.BXXCtW+chjS7WwRwv8yNBmZ6FWRlZMqjvW+5WOBFFL7WcxQmrkFAMXhzHFe7wIlZ5o8trqTYY4kWd5dFG6u+9OvQO7QOF80EhIBRfa22ifWNuFL4i5G0bmaAOsxkWgmyA7OVIQkVRILGqyVeWqs1Nm7Pf+3GEVnH5MEKh5mDEprhKFuxgGNlkjpA.hN5nEkd5GJ0aLsRsboYCNYS2FI5WP3d2pFLjxIPbA+KOzn2o5ksSkwrskAi5+ncL2CpFzsBvfM1BOCZ8pBOtDmynISn2AGLxkjpMiqboK0FcafQcVaZqtYzZP2DI72NGQsM0.TL7XDcLP2ADe7tciqUWOpV3455qKLUMxpHeR8ZwzCHG549Bvk.BqlHBcca0U2bqtZppxTiYyw04WcAQUsDGaFyNMxYRno3mPX.s83QQgOnM7k81IFbjgP.vwXTNmsu4B42qjxCZx6W46XfzDLQXEPD6A7CayE4NONo4latMloYmsM6XxzjSNvYLKlpW.HILYLCoynnmZlYLnQiF75drVr2suSnWf6ffksyGfAjK2Y0sV4mqQwf9qV0bPE6ffeIs2O0UWc8fAFXfJ..lwnQs9DvZ0xyMWGZ9xxxUu5aTzuKtfTFeNsYmju9GdWpUw+.EcVZCQnd5.WG+uE.PrXwLT0vYKblQdPLyMmALJ3BOhausylkcY3qu9Ne2OKVrn8q+MocQF1XijmmiA.fBEn4Img7mmd9mNxVcDkU0.iLqWQtMGXGzK9myM22xd9pa4Mmp66tScZzCEDb.2D1WO9IT37N0LjIS1nqgO+euPgBej40Vt+chnjRJgVJojhwrxJKZgDRHD73winrh+zyzrJW9c4dhLGw5GV46aT54xYtY0hQTaDL13Ad7527OMsfBvWwqjYLikzUaFhDIB..0VasjAGbvD1au83k28qzZy2s9cz12wz2WLHG1hpGTOckp0AEdkDBbi6H2vWevEZISjUVYQq1Zqkb07BsrnQI0jQTaKExSUlLRok+Ij+mSlI4cZR16jUVYs3xFwhFe+Q+Mb0MbuSt2NJ6C9ajAr4TIqnIkjMKqEYRkJkok3KVrXFxkK2ZKs2J1bQAB.fFppLOGWZwEM6HcGH6dEiWeq7QlYlElj4K3iUVgHrzASHgDLJRjHCVZuksFu.QIarv+IWccdyRIUNzFlcRUPsI6.2e7tFxZ8JG7KulLuRL4j8eSwFw2bQQhlZwAX4psOOGS1x0JyUBEs9wzld7MM6zSgIMRCVGwuXbAgD9qdn8uu843LxTdpOu5sDYjwb7pppJadNw6Ybj..jN0yE.f9nlKfISlGbagKH4e65cHT1DZwUZ6InGS7vLLXKQhjaVK.PjaH7PMxz0cc3L+vYC2S8G9QsK+KVvE8BC.6ZA50B.j..UKbAR.vdguUbcxtuC.jW9UCmrx8GL4ViPHIEukLXyesjeSmpMHuilSkJNRVNt.Pf4TspE8Kp9uumi4MGa3A.XkIcXbZNCVdKz79GG.DhEK1J.3LAAwjpFoKbpOnH55Y56I3xk6UAvV.Pg.fCUlkC.NM0nOKViaqtpB2MlZeaye9MIXAahb2p5pqtKmhR7.H6DRHgLAPEjjjNJvGeFVWehwGcg57VoRkwRmN81wSKgKzTGgZX4lK1dFhKSYkGbLp6oWodZg+LD5V1460d6sOHEEAThGOkyfxIln3i8G2+WKs7SC..2b2c6VMMaR.UtG.nmIlvIw0TUibcxdR.P1Rqc7gT7xlhW1K57s..xXiMpPJpvymCCFVokxgV5Bh4uvGJfJfRvSSE6xEWboB.P5gGdzqBEJbbQBKgZd1TARE05wSwKcpmUQse5Tb6aQ7V1tvVVzacAVfi4wy3DJw5CKMdoagr..dZ5dUcG5+GP7+.Guu+3+BrzciTPWF9AV.....jTQNQjqBAlf" ],
					"embed" : 1,
					"id" : "obj-33",
					"maxclass" : "fpic",
					"numinlets" : 1,
					"numoutlets" : 1,
					"outlettype" : [ "jit_matrix" ],
					"patching_rect" : [ 5.0, 111.0, 30.0, 32.0 ],
					"presentation" : 1,
					"presentation_rect" : [ 4.0, 99.0, 30.0, 32.0 ]
				}

			}
, 			{
				"box" : 				{
					"fontname" : "Arial",
					"fontsize" : 10.0,
					"id" : "obj-34",
					"maxclass" : "comment",
					"numinlets" : 1,
					"numoutlets" : 0,
					"patching_rect" : [ 161.0, 145.0, 69.0, 18.0 ],
					"presentation" : 1,
					"presentation_rect" : [ 175.0, 117.5, 69.0, 18.0 ],
					"style" : "",
					"text" : "SIGNAL OUT",
					"textcolor" : [ 0.290196, 0.611765, 0.380392, 1.0 ]
				}

			}
, 			{
				"box" : 				{
					"fontname" : "Arial",
					"fontsize" : 10.0,
					"id" : "obj-35",
					"maxclass" : "comment",
					"numinlets" : 1,
					"numoutlets" : 0,
					"patching_rect" : [ 2.0, 144.0, 66.0, 18.0 ],
					"presentation" : 1,
					"presentation_rect" : [ 2.0, 133.0, 66.0, 18.0 ],
					"style" : "",
					"text" : "DATA  PAN",
					"textcolor" : [ 0.4, 0.4, 0.8, 1.0 ]
				}

			}
, 			{
				"box" : 				{
					"fontname" : "Arial",
					"fontsize" : 10.0,
					"id" : "obj-37",
					"maxclass" : "comment",
					"numinlets" : 1,
					"numoutlets" : 0,
					"patching_rect" : [ 112.0, 24.0, 30.0, 18.0 ],
					"presentation" : 1,
					"presentation_rect" : [ 147.0, 0.0, 30.0, 18.0 ],
					"style" : "",
					"text" : "VOL"
				}

			}
, 			{
				"box" : 				{
					"comment" : "(list [ptch vel chan dur ...]) Note Data",
					"id" : "obj-38",
					"maxclass" : "outlet",
					"numinlets" : 1,
					"numoutlets" : 0,
					"patching_rect" : [ 108.0, 502.0, 19.0, 19.0 ],
					"style" : ""
				}

			}
, 			{
				"box" : 				{
					"comment" : "(signal) Output Audio",
					"id" : "obj-39",
					"maxclass" : "outlet",
					"numinlets" : 1,
					"numoutlets" : 0,
					"patching_rect" : [ 146.0, 498.0, 19.0, 19.0 ],
					"style" : ""
				}

			}
, 			{
				"box" : 				{
					"comment" : "(list [ptch vel chan dur ...]) Note Data",
					"id" : "obj-40",
					"maxclass" : "inlet",
					"numinlets" : 0,
					"numoutlets" : 1,
					"outlettype" : [ "" ],
					"patching_rect" : [ 71.0, 34.0, 15.0, 15.0 ],
					"style" : ""
				}

			}
, 			{
				"box" : 				{
					"comment" : "(int/float) Volume (0-127)",
					"id" : "obj-41",
					"maxclass" : "inlet",
					"numinlets" : 0,
					"numoutlets" : 1,
					"outlettype" : [ "" ],
					"patching_rect" : [ 96.0, 35.0, 15.0, 15.0 ],
					"style" : ""
				}

			}
, 			{
				"box" : 				{
					"comment" : "(int) On/Off (0-1)",
					"id" : "obj-42",
					"maxclass" : "inlet",
					"numinlets" : 0,
					"numoutlets" : 1,
					"outlettype" : [ "" ],
					"patching_rect" : [ 188.0, 22.0, 15.0, 15.0 ],
					"style" : ""
				}

			}
, 			{
				"box" : 				{
					"fontname" : "Arial",
					"fontsize" : 10.0,
					"id" : "obj-44",
					"maxclass" : "comment",
					"numinlets" : 1,
					"numoutlets" : 0,
					"patching_rect" : [ 1.0, 24.0, 66.0, 18.0 ],
					"presentation" : 1,
					"presentation_rect" : [ 0.0, 0.0, 66.0, 18.0 ],
					"style" : "",
					"text" : "NOTE DATA",
					"textcolor" : [ 0.4, 0.4, 0.8, 1.0 ]
				}

			}
, 			{
				"box" : 				{
					"fontname" : "Arial Black",
					"fontsize" : 14.0,
					"id" : "obj-45",
					"maxclass" : "comment",
					"numinlets" : 1,
					"numoutlets" : 0,
					"patching_rect" : [ 582.0, 163.5, 142.0, 26.0 ],
					"presentation" : 1,
					"presentation_rect" : [ 29.0, 17.0, 142.0, 26.0 ],
					"style" : "",
					"text" : "MEGA-8 FILE"
				}

			}
, 			{
				"box" : 				{
					"bgcolor" : [ 0.858824, 0.866667, 0.87451, 1.0 ],
					"color" : [ 0.321569, 0.341176, 0.368627, 1.0 ],
					"fontname" : "Arial",
					"fontsize" : 9.0,
					"id" : "obj-46",
					"maxclass" : "newobj",
					"numinlets" : 1,
					"numoutlets" : 4,
					"outlettype" : [ "", "", "", "" ],
					"patching_rect" : [ 412.0, 454.0, 96.0, 19.0 ],
					"presentation" : 1,
					"presentation_rect" : [ 129.0, 87.0, 96.0, 19.0 ],
					"saved_object_attributes" : 					{
						"embed" : 0
					}
,
					"style" : "",
					"text" : "coll #0-megadata",
					"textcolor" : [ 0.0, 0.0, 0.0, 1.0 ]
				}

			}
, 			{
				"box" : 				{
					"bgcolor" : [ 0.858824, 0.866667, 0.87451, 1.0 ],
					"color" : [ 0.321569, 0.341176, 0.368627, 1.0 ],
					"fontface" : 0,
					"fontname" : "Arial",
					"fontsize" : 9.0,
					"id" : "obj-47",
					"maxclass" : "newobj",
					"numinlets" : 5,
					"numoutlets" : 13,
					"outlettype" : [ "", "", "", "", "", "signal", "signal", "signal", "signal", "signal", "signal", "signal", "signal" ],
					"patching_rect" : [ 146.0, 454.0, 145.0, 19.0 ],
					"presentation" : 1,
					"presentation_linecount" : 2,
					"presentation_rect" : [ 34.0, 57.0, 120.0, 29.0 ],
					"style" : "",
					"text" : "megaPlayerX48.maxpat #1 #0",
					"textcolor" : [ 0.0, 0.0, 0.0, 1.0 ]
				}

			}
, 			{
				"box" : 				{
					"border" : 1.0,
					"id" : "obj-9",
					"ignoreclick" : 1,
					"maxclass" : "dropfile",
					"numinlets" : 1,
					"numoutlets" : 2,
					"outlettype" : [ "", "" ],
					"patching_rect" : [ 1.0, 123.0, 228.0, 40.0 ],
					"presentation" : 1,
					"presentation_rect" : [ 0.0, 103.0, 315.0, 47.0 ],
					"rounded" : 0.0
				}

			}
, 			{
				"box" : 				{
					"fontname" : "Arial",
					"fontsize" : 10.0,
					"id" : "obj-1",
					"maxclass" : "comment",
					"numinlets" : 1,
					"numoutlets" : 0,
					"patching_rect" : [ 75.0, 125.0, 60.0, 18.0 ],
					"presentation" : 1,
					"presentation_rect" : [ 117.0, 106.0, 60.0, 18.0 ],
					"style" : "",
					"text" : "Drag Area",
					"textcolor" : [ 0.6, 0.4, 0.6, 1.0 ]
				}

			}
, 			{
				"box" : 				{
					"fontname" : "Arial",
					"fontsize" : 10.0,
					"id" : "obj-36",
					"maxclass" : "comment",
					"numinlets" : 1,
					"numoutlets" : 0,
					"patching_rect" : [ 177.0, 25.0, 52.0, 18.0 ],
					"presentation" : 1,
					"presentation_rect" : [ 264.0, 0.0, 52.0, 18.0 ],
					"style" : "",
					"text" : "ON / OFF"
				}

			}
, 			{
				"box" : 				{
					"autofit" : 1,
					"id" : "obj-55",
					"maxclass" : "fpic",
					"numinlets" : 1,
					"numoutlets" : 1,
					"outlettype" : [ "jit_matrix" ],
					"patching_rect" : [ 601.0, 123.0, 30.0, 30.0 ],
					"pic" : "info.png",
					"presentation" : 1,
					"presentation_rect" : [ 157.0, 21.0, 30.0, 30.0 ]
				}

			}
, 			{
				"box" : 				{
					"angle" : 314.324707,
					"border" : 1,
					"bordercolor" : [ 0.239216, 0.254902, 0.278431, 1.0 ],
					"grad1" : [ 1.0, 1.0, 1.0, 1.0 ],
					"grad2" : [ 0.420838, 0.437396, 1.0, 0.5 ],
					"id" : "obj-48",
					"maxclass" : "panel",
					"mode" : 1,
					"numinlets" : 1,
					"numoutlets" : 0,
					"patching_rect" : [ 459.0, 528.0, 230.0, 144.0 ],
					"presentation" : 1,
					"presentation_rect" : [ 0.0, 0.0, 316.0, 150.0 ],
					"proportion" : 0.39,
					"pt1" : [ 0.054455, 0.034783 ],
					"pt2" : [ 0.980198, 0.982609 ],
					"rounded" : 5,
					"shadow" : 3,
					"style" : ""
				}

			}
 ],
		"lines" : [ 			{
				"patchline" : 				{
					"destination" : [ "obj-31", 0 ],
					"disabled" : 0,
					"hidden" : 0,
					"midpoints" : [ 547.5, 243.0, 435.5, 243.0 ],
					"source" : [ "obj-10", 0 ]
				}

			}
, 			{
				"patchline" : 				{
					"destination" : [ "obj-80", 0 ],
					"disabled" : 0,
					"hidden" : 0,
					"source" : [ "obj-11", 0 ]
				}

			}
, 			{
				"patchline" : 				{
					"destination" : [ "obj-46", 0 ],
					"disabled" : 0,
					"hidden" : 0,
					"midpoints" : [ 470.5, 260.5, 421.5, 260.5 ],
					"source" : [ "obj-12", 0 ]
				}

			}
, 			{
				"patchline" : 				{
					"destination" : [ "obj-17", 0 ],
					"disabled" : 0,
					"hidden" : 0,
					"midpoints" : [ 878.5, 121.0, 647.0, 121.0, 647.0, 7.0, 38.5, 7.0 ],
					"source" : [ "obj-129", 0 ]
				}

			}
, 			{
				"patchline" : 				{
					"destination" : [ "obj-2", 0 ],
					"disabled" : 0,
					"hidden" : 0,
					"midpoints" : [ 293.5, 781.0, 278.25, 781.0, 278.25, 517.0, 398.0, 517.0 ],
					"source" : [ "obj-13", 0 ]
				}

			}
, 			{
				"patchline" : 				{
					"destination" : [ "obj-12", 0 ],
					"disabled" : 0,
					"hidden" : 0,
					"midpoints" : [ 812.5, 88.0, 761.0, 88.0, 761.0, 12.0, 470.5, 12.0 ],
					"source" : [ "obj-130", 0 ]
				}

			}
, 			{
				"patchline" : 				{
					"destination" : [ "obj-54", 0 ],
					"disabled" : 0,
					"hidden" : 0,
					"source" : [ "obj-14", 0 ]
				}

			}
, 			{
				"patchline" : 				{
					"destination" : [ "obj-6", 1 ],
					"disabled" : 0,
					"hidden" : 0,
					"midpoints" : [ 386.5, 217.5, 68.5, 217.5 ],
					"source" : [ "obj-15", 0 ]
				}

			}
, 			{
				"patchline" : 				{
					"destination" : [ "obj-47", 0 ],
					"disabled" : 0,
					"hidden" : 0,
					"midpoints" : [ 282.5, 266.0, 155.5, 266.0 ],
					"source" : [ "obj-18", 0 ]
				}

			}
, 			{
				"patchline" : 				{
					"destination" : [ "obj-16", 0 ],
					"disabled" : 0,
					"hidden" : 0,
					"midpoints" : [ 344.5, 111.5, 379.5, 111.5 ],
					"source" : [ "obj-19", 2 ]
				}

			}
, 			{
				"patchline" : 				{
					"destination" : [ "obj-18", 0 ],
					"disabled" : 0,
					"hidden" : 0,
					"source" : [ "obj-19", 0 ]
				}

			}
, 			{
				"patchline" : 				{
					"destination" : [ "obj-47", 3 ],
					"disabled" : 0,
					"hidden" : 0,
					"midpoints" : [ 344.5, 255.0, 250.0, 255.0 ],
					"source" : [ "obj-19", 2 ]
				}

			}
, 			{
				"patchline" : 				{
					"destination" : [ "obj-47", 4 ],
					"disabled" : 0,
					"hidden" : 0,
					"midpoints" : [ 313.5, 255.0, 281.5, 255.0 ],
					"source" : [ "obj-19", 1 ]
				}

			}
, 			{
				"patchline" : 				{
					"destination" : [ "obj-46", 0 ],
					"disabled" : 0,
					"hidden" : 0,
					"midpoints" : [ 398.0, 578.0, 409.75, 578.0, 409.75, 443.0, 421.5, 443.0 ],
					"source" : [ "obj-2", 0 ]
				}

			}
, 			{
				"patchline" : 				{
					"destination" : [ "obj-21", 0 ],
					"disabled" : 0,
					"hidden" : 0,
					"midpoints" : [ 65.5, 198.0, 49.5, 198.0 ],
					"source" : [ "obj-20", 0 ]
				}

			}
, 			{
				"patchline" : 				{
					"destination" : [ "obj-28", 0 ],
					"disabled" : 0,
					"hidden" : 0,
					"source" : [ "obj-25", 0 ]
				}

			}
, 			{
				"patchline" : 				{
					"destination" : [ "obj-25", 0 ],
					"disabled" : 0,
					"hidden" : 0,
					"source" : [ "obj-26", 0 ]
				}

			}
, 			{
				"patchline" : 				{
					"destination" : [ "obj-26", 0 ],
					"disabled" : 0,
					"hidden" : 0,
					"midpoints" : [ 532.0, 190.0, 333.0, 190.0, 333.0, 61.0, 390.5, 61.0 ],
					"source" : [ "obj-27", 0 ]
				}

			}
, 			{
				"patchline" : 				{
					"destination" : [ "obj-47", 0 ],
					"disabled" : 0,
					"hidden" : 0,
					"midpoints" : [ 80.0, 251.0, 155.5, 251.0 ],
					"source" : [ "obj-40", 0 ]
				}

			}
, 			{
				"patchline" : 				{
					"destination" : [ "obj-6", 1 ],
					"disabled" : 0,
					"hidden" : 0,
					"midpoints" : [ 105.0, 222.0, 68.5, 222.0 ],
					"source" : [ "obj-41", 0 ]
				}

			}
, 			{
				"patchline" : 				{
					"destination" : [ "obj-67", 0 ],
					"disabled" : 0,
					"hidden" : 0,
					"midpoints" : [ 197.0, 58.0, 729.0, 58.0 ],
					"source" : [ "obj-42", 0 ]
				}

			}
, 			{
				"patchline" : 				{
					"destination" : [ "obj-2", 0 ],
					"disabled" : 0,
					"hidden" : 0,
					"midpoints" : [ 472.833344, 500.0, 398.0, 500.0 ],
					"source" : [ "obj-46", 2 ]
				}

			}
, 			{
				"patchline" : 				{
					"destination" : [ "obj-3", 0 ],
					"disabled" : 0,
					"hidden" : 0,
					"midpoints" : [ 421.5, 502.5, 433.5, 502.5 ],
					"source" : [ "obj-46", 0 ]
				}

			}
, 			{
				"patchline" : 				{
					"destination" : [ "obj-20", 0 ],
					"disabled" : 0,
					"hidden" : 0,
					"midpoints" : [ 166.0, 517.0, 131.899994, 517.0, 131.899994, 164.0, 65.5, 164.0 ],
					"source" : [ "obj-47", 1 ]
				}

			}
, 			{
				"patchline" : 				{
					"destination" : [ "obj-23", 0 ],
					"disabled" : 0,
					"hidden" : 0,
					"midpoints" : [ 218.5, 483.0, 261.5, 483.0 ],
					"source" : [ "obj-47", 6 ]
				}

			}
, 			{
				"patchline" : 				{
					"destination" : [ "obj-24", 0 ],
					"disabled" : 0,
					"hidden" : 0,
					"source" : [ "obj-47", 7 ]
				}

			}
, 			{
				"patchline" : 				{
					"destination" : [ "obj-29", 0 ],
					"disabled" : 0,
					"hidden" : 0,
					"source" : [ "obj-47", 9 ]
				}

			}
, 			{
				"patchline" : 				{
					"destination" : [ "obj-32", 0 ],
					"disabled" : 0,
					"hidden" : 0,
					"midpoints" : [ 208.0, 482.0, 235.0, 482.0 ],
					"source" : [ "obj-47", 5 ]
				}

			}
, 			{
				"patchline" : 				{
					"destination" : [ "obj-38", 0 ],
					"disabled" : 0,
					"hidden" : 0,
					"midpoints" : [ 155.5, 482.0, 117.5, 482.0 ],
					"source" : [ "obj-47", 0 ]
				}

			}
, 			{
				"patchline" : 				{
					"destination" : [ "obj-39", 0 ],
					"disabled" : 0,
					"hidden" : 0,
					"source" : [ "obj-47", 4 ]
				}

			}
, 			{
				"patchline" : 				{
					"destination" : [ "obj-53", 0 ],
					"disabled" : 0,
					"hidden" : 0,
					"source" : [ "obj-47", 8 ]
				}

			}
, 			{
				"patchline" : 				{
					"destination" : [ "obj-57", 0 ],
					"disabled" : 0,
					"hidden" : 0,
					"source" : [ "obj-47", 12 ]
				}

			}
, 			{
				"patchline" : 				{
					"destination" : [ "obj-58", 0 ],
					"disabled" : 0,
					"hidden" : 0,
					"source" : [ "obj-47", 11 ]
				}

			}
, 			{
				"patchline" : 				{
					"destination" : [ "obj-59", 0 ],
					"disabled" : 0,
					"hidden" : 0,
					"source" : [ "obj-47", 10 ]
				}

			}
, 			{
				"patchline" : 				{
					"destination" : [ "obj-6", 1 ],
					"disabled" : 0,
					"hidden" : 0,
					"midpoints" : [ 176.5, 501.0, 144.100006, 501.0, 144.100006, 367.0, 68.5, 367.0 ],
					"source" : [ "obj-47", 2 ]
				}

			}
, 			{
				"patchline" : 				{
					"destination" : [ "obj-60", 7 ],
					"disabled" : 0,
					"hidden" : 0,
					"midpoints" : [ 281.5, 483.0, 581.0, 483.0, 581.0, 354.0, 785.5, 354.0 ],
					"source" : [ "obj-47", 12 ]
				}

			}
, 			{
				"patchline" : 				{
					"destination" : [ "obj-60", 6 ],
					"disabled" : 0,
					"hidden" : 0,
					"midpoints" : [ 271.0, 483.0, 563.577393, 483.0, 563.577393, 354.0, 769.071411, 354.0 ],
					"source" : [ "obj-47", 11 ]
				}

			}
, 			{
				"patchline" : 				{
					"destination" : [ "obj-60", 5 ],
					"disabled" : 0,
					"hidden" : 0,
					"midpoints" : [ 260.5, 483.0, 546.154785, 483.0, 546.154785, 354.0, 752.642883, 354.0 ],
					"source" : [ "obj-47", 10 ]
				}

			}
, 			{
				"patchline" : 				{
					"destination" : [ "obj-60", 4 ],
					"disabled" : 0,
					"hidden" : 0,
					"midpoints" : [ 250.0, 483.0, 528.732117, 483.0, 528.732117, 354.0, 736.214294, 354.0 ],
					"source" : [ "obj-47", 9 ]
				}

			}
, 			{
				"patchline" : 				{
					"destination" : [ "obj-60", 3 ],
					"disabled" : 0,
					"hidden" : 0,
					"midpoints" : [ 239.5, 483.0, 511.309509, 483.0, 511.309509, 354.0, 719.785706, 354.0 ],
					"source" : [ "obj-47", 8 ]
				}

			}
, 			{
				"patchline" : 				{
					"destination" : [ "obj-60", 2 ],
					"disabled" : 0,
					"hidden" : 0,
					"midpoints" : [ 229.0, 483.0, 493.886902, 483.0, 493.886902, 354.0, 703.357117, 354.0 ],
					"source" : [ "obj-47", 7 ]
				}

			}
, 			{
				"patchline" : 				{
					"destination" : [ "obj-60", 1 ],
					"disabled" : 0,
					"hidden" : 0,
					"midpoints" : [ 218.5, 483.0, 476.464294, 483.0, 476.464294, 354.0, 686.928589, 354.0 ],
					"source" : [ "obj-47", 6 ]
				}

			}
, 			{
				"patchline" : 				{
					"destination" : [ "obj-60", 0 ],
					"disabled" : 0,
					"hidden" : 0,
					"midpoints" : [ 208.0, 483.0, 459.041656, 483.0, 459.041656, 354.0, 670.5, 354.0 ],
					"source" : [ "obj-47", 5 ]
				}

			}
, 			{
				"patchline" : 				{
					"destination" : [ "obj-67", 0 ],
					"disabled" : 0,
					"hidden" : 0,
					"midpoints" : [ 187.0, 483.0, 485.049988, 483.0, 485.049988, 69.0, 729.0, 69.0 ],
					"source" : [ "obj-47", 3 ]
				}

			}
, 			{
				"patchline" : 				{
					"destination" : [ "obj-50", 0 ],
					"disabled" : 0,
					"hidden" : 0,
					"source" : [ "obj-49", 0 ]
				}

			}
, 			{
				"patchline" : 				{
					"destination" : [ "obj-49", 0 ],
					"disabled" : 0,
					"hidden" : 0,
					"source" : [ "obj-51", 0 ]
				}

			}
, 			{
				"patchline" : 				{
					"destination" : [ "obj-13", 0 ],
					"disabled" : 0,
					"hidden" : 0,
					"midpoints" : [ 270.5, 747.0, 290.0, 747.0 ],
					"source" : [ "obj-52", 0 ]
				}

			}
, 			{
				"patchline" : 				{
					"destination" : [ "obj-51", 0 ],
					"disabled" : 0,
					"hidden" : 0,
					"source" : [ "obj-52", 0 ]
				}

			}
, 			{
				"patchline" : 				{
					"destination" : [ "obj-10", 0 ],
					"disabled" : 0,
					"hidden" : 0,
					"midpoints" : [ 852.5, 109.0, 750.0, 109.0, 750.0, 21.0, 547.5, 21.0 ],
					"source" : [ "obj-56", 0 ]
				}

			}
, 			{
				"patchline" : 				{
					"destination" : [ "obj-14", 0 ],
					"disabled" : 0,
					"hidden" : 0,
					"source" : [ "obj-6", 1 ]
				}

			}
, 			{
				"patchline" : 				{
					"destination" : [ "obj-47", 1 ],
					"disabled" : 0,
					"hidden" : 0,
					"midpoints" : [ 68.5, 475.0, 125.375, 475.0, 125.375, 443.0, 187.0, 443.0 ],
					"source" : [ "obj-6", 1 ]
				}

			}
, 			{
				"patchline" : 				{
					"destination" : [ "obj-5", 0 ],
					"disabled" : 0,
					"hidden" : 0,
					"source" : [ "obj-6", 1 ]
				}

			}
, 			{
				"patchline" : 				{
					"destination" : [ "obj-78", 0 ],
					"disabled" : 0,
					"hidden" : 0,
					"source" : [ "obj-61", 0 ]
				}

			}
, 			{
				"patchline" : 				{
					"destination" : [ "obj-11", 0 ],
					"disabled" : 0,
					"hidden" : 0,
					"midpoints" : [ 559.5, 271.0, 532.5, 271.0 ],
					"source" : [ "obj-62", 1 ]
				}

			}
, 			{
				"patchline" : 				{
					"destination" : [ "obj-64", 0 ],
					"disabled" : 0,
					"hidden" : 0,
					"midpoints" : [ 533.5, 266.0, 632.5, 266.0 ],
					"source" : [ "obj-62", 0 ]
				}

			}
, 			{
				"patchline" : 				{
					"destination" : [ "obj-46", 0 ],
					"disabled" : 0,
					"hidden" : 0,
					"midpoints" : [ 632.5, 371.5, 421.5, 371.5 ],
					"source" : [ "obj-64", 0 ]
				}

			}
, 			{
				"patchline" : 				{
					"destination" : [ "obj-47", 2 ],
					"disabled" : 0,
					"hidden" : 0,
					"midpoints" : [ 632.5, 341.5, 218.5, 341.5 ],
					"source" : [ "obj-64", 0 ]
				}

			}
, 			{
				"patchline" : 				{
					"destination" : [ "obj-52", 2 ],
					"disabled" : 0,
					"hidden" : 0,
					"midpoints" : [ 632.5, 512.0, 376.5, 512.0 ],
					"source" : [ "obj-64", 0 ]
				}

			}
, 			{
				"patchline" : 				{
					"destination" : [ "obj-19", 0 ],
					"disabled" : 0,
					"hidden" : 0,
					"midpoints" : [ 729.0, 122.0, 505.75, 122.0, 505.75, 27.0, 282.5, 27.0 ],
					"source" : [ "obj-67", 0 ]
				}

			}
, 			{
				"patchline" : 				{
					"destination" : [ "obj-9", 0 ],
					"disabled" : 0,
					"hidden" : 0,
					"midpoints" : [ 468.5, 144.0, 239.5, 144.0, 239.5, 112.0, 10.5, 112.0 ],
					"source" : [ "obj-7", 0 ]
				}

			}
, 			{
				"patchline" : 				{
					"destination" : [ "obj-62", 0 ],
					"disabled" : 0,
					"hidden" : 0,
					"source" : [ "obj-78", 0 ]
				}

			}
, 			{
				"patchline" : 				{
					"destination" : [ "obj-7", 0 ],
					"disabled" : 0,
					"hidden" : 0,
					"midpoints" : [ 559.5, 109.0, 468.5, 109.0 ],
					"source" : [ "obj-8", 0 ]
				}

			}
, 			{
				"patchline" : 				{
					"destination" : [ "obj-52", 1 ],
					"disabled" : 0,
					"hidden" : 0,
					"midpoints" : [ 532.5, 524.5, 323.5, 524.5 ],
					"source" : [ "obj-80", 0 ]
				}

			}
, 			{
				"patchline" : 				{
					"destination" : [ "obj-4", 0 ],
					"disabled" : 0,
					"hidden" : 0,
					"midpoints" : [ 10.5, 389.0, 179.5, 389.0 ],
					"source" : [ "obj-9", 0 ]
				}

			}
, 			{
				"patchline" : 				{
					"destination" : [ "obj-52", 0 ],
					"disabled" : 0,
					"hidden" : 0,
					"midpoints" : [ 10.5, 444.5, 270.5, 444.5 ],
					"source" : [ "obj-9", 0 ]
				}

			}
 ],
		"parameters" : 		{
			"obj-60" : [ "megaPlayer", "megaPlayer", 0 ]
		}
,
		"dependency_cache" : [ 			{
				"name" : "info.png",
				"bootpath" : "/Max/UBCToolbox/UBCToolbox_1.00/picts",
				"patcherrelativepath" : "../../../picts",
				"type" : "PNG ",
				"implicit" : 1
			}
, 			{
				"name" : "megaPlayerX48.maxpat",
				"bootpath" : "/Max/UBCToolbox/UBCToolbox_1.00/Modules/Players/megaPlayer/lib",
				"patcherrelativepath" : "./lib",
				"type" : "JSON",
				"implicit" : 1
			}
, 			{
				"name" : "megaUnit8.maxpat",
				"bootpath" : "/Max/UBCToolbox/UBCToolbox_1.00/Modules/Players/megaPlayer/lib",
				"patcherrelativepath" : "./lib",
				"type" : "JSON",
				"implicit" : 1
			}
, 			{
				"name" : "megaTable",
				"bootpath" : "/Max/UBCToolbox/UBCToolbox_1.00/Modules/Players/megaPlayer/lib",
				"patcherrelativepath" : "./lib",
				"type" : "TEXT",
				"implicit" : 1
			}
, 			{
				"name" : "gainScale.maxpat",
				"bootpath" : "/Max/UBCToolbox/UBCToolbox_1.00/ubcLib",
				"patcherrelativepath" : "../../../ubcLib",
				"type" : "JSON",
				"implicit" : 1
			}
, 			{
				"name" : "flash2.maxpat",
				"bootpath" : "/Max/UBCToolbox/UBCToolbox_1.00/ubcLib",
				"patcherrelativepath" : "../../../ubcLib",
				"type" : "JSON",
				"implicit" : 1
			}
, 			{
				"name" : "lineKH.maxpat",
				"bootpath" : "/Max/UBCToolbox/UBCToolbox_1.00/ubcLib",
				"patcherrelativepath" : "../../../ubcLib",
				"type" : "JSON",
				"implicit" : 1
			}
, 			{
				"name" : "parsePan.maxpat",
				"bootpath" : "/Max/UBCToolbox/UBCToolbox_1.00/ubcLib",
				"patcherrelativepath" : "../../../ubcLib",
				"type" : "JSON",
				"implicit" : 1
			}
, 			{
				"name" : "MRrC.maxpat",
				"bootpath" : "/Max/UBCToolbox/UBCToolbox_1.00/ubcLib",
				"patcherrelativepath" : "../../../ubcLib",
				"type" : "JSON",
				"implicit" : 1
			}
, 			{
				"name" : "multiName_.maxpat",
				"bootpath" : "/Max/UBCToolbox/UBCToolbox_1.00/ubcLib",
				"patcherrelativepath" : "../../../ubcLib",
				"type" : "JSON",
				"implicit" : 1
			}
, 			{
				"name" : "multiNameNonZero.maxpat",
				"bootpath" : "/Max/UBCToolbox/UBCToolbox_1.00/ubcLib",
				"patcherrelativepath" : "../../../ubcLib",
				"type" : "JSON",
				"implicit" : 1
			}
, 			{
				"name" : "megaPlayerInfo.maxpat",
				"bootpath" : "/Max/UBCToolbox/UBCToolbox_1.00/Modules/Players/megaPlayer/lib",
				"patcherrelativepath" : "./lib",
				"type" : "JSON",
				"implicit" : 1
			}
, 			{
				"name" : "collFormat.maxpat",
				"bootpath" : "/Max/UBCToolbox/UBCToolbox_1.00/ubcLib",
				"patcherrelativepath" : "../../../ubcLib",
				"type" : "JSON",
				"implicit" : 1
			}
, 			{
				"name" : "collbuilder.maxpat",
				"bootpath" : "/Max/UBCToolbox/UBCToolbox_1.00/ubcLib",
				"patcherrelativepath" : "../../../ubcLib",
				"type" : "JSON",
				"implicit" : 1
			}
, 			{
				"name" : "moreAboutDataStructures.maxpat",
				"bootpath" : "/Max/UBCToolbox/UBCToolbox_1.00/ubcLib",
				"patcherrelativepath" : "../../../ubcLib",
				"type" : "JSON",
				"implicit" : 1
			}
, 			{
				"name" : "largeGreen.png",
				"bootpath" : "/Max/UBCToolbox/UBCToolbox_1.00/picts",
				"patcherrelativepath" : "../../../picts",
				"type" : "PNG ",
				"implicit" : 1
			}
, 			{
				"name" : "bControl.maxpat",
				"bootpath" : "/Max/UBCToolbox/UBCToolbox_1.00/ubcLib",
				"patcherrelativepath" : "../../../ubcLib",
				"type" : "JSON",
				"implicit" : 1
			}
, 			{
				"name" : "muter.maxpat",
				"bootpath" : "/Max/UBCToolbox/UBCToolbox_1.00/ubcLib",
				"patcherrelativepath" : "../../../ubcLib",
				"type" : "JSON",
				"implicit" : 1
			}
, 			{
				"name" : "nTbp_.maxpat",
				"bootpath" : "/Max/UBCToolbox/UBCToolbox_1.00/ubcLib",
				"patcherrelativepath" : "../../../ubcLib",
				"type" : "JSON",
				"implicit" : 1
			}
, 			{
				"name" : "dragCollNew.maxpat",
				"bootpath" : "/Max/UBCToolbox/UBCToolbox_1.00/ubcLib",
				"patcherrelativepath" : "../../../ubcLib",
				"type" : "JSON",
				"implicit" : 1
			}
, 			{
				"name" : "buildSymbol.maxpat",
				"bootpath" : "/Max/UBCToolbox/UBCToolbox_1.00/ubcLib",
				"patcherrelativepath" : "../../../ubcLib",
				"type" : "JSON",
				"implicit" : 1
			}
, 			{
				"name" : "megadata",
				"bootpath" : "/Max/UBCToolbox/UBCToolbox_1.00/Modules/Players/megaPlayer/lib",
				"patcherrelativepath" : "./lib",
				"type" : "TEXT",
				"implicit" : 1
			}
, 			{
				"name" : "sliderTrack6.png",
				"bootpath" : "/Max/UBCToolbox/UBCToolbox_1.00/picts",
				"patcherrelativepath" : "../../../picts",
				"type" : "PNG ",
				"implicit" : 1
			}
, 			{
				"name" : "sliderKnob3.png",
				"bootpath" : "/Max/UBCToolbox/UBCToolbox_1.00/picts",
				"patcherrelativepath" : "../../../picts",
				"type" : "PNG ",
				"implicit" : 1
			}
, 			{
				"name" : "powerButton03.png",
				"bootpath" : "/Max/UBCToolbox/UBCToolbox_1.00/picts",
				"patcherrelativepath" : "../../../picts",
				"type" : "PNG ",
				"implicit" : 1
			}
, 			{
				"name" : "poly2.mxo",
				"type" : "iLaX"
			}
 ],
		"embedsnapshot" : 0,
		"styles" : [ 			{
				"name" : "newobjYellow-1",
				"default" : 				{
					"fontsize" : [ 12.059008 ],
					"accentcolor" : [ 0.82517, 0.78181, 0.059545, 1.0 ]
				}
,
				"parentstyle" : "",
				"multi" : 0
			}
, 			{
				"name" : "numberGold-1",
				"default" : 				{
					"accentcolor" : [ 0.764706, 0.592157, 0.101961, 1.0 ]
				}
,
				"parentstyle" : "",
				"multi" : 0
			}
, 			{
				"name" : "rsliderGold",
				"default" : 				{
					"color" : [ 0.646639, 0.821777, 0.854593, 1.0 ],
					"bgcolor" : [ 0.764706, 0.592157, 0.101961, 1.0 ]
				}
,
				"parentstyle" : "",
				"multi" : 0
			}
 ]
	}

}
