{
	"patcher" : 	{
		"fileversion" : 1,
		"rect" : [ 133.0, 178.0, 664.0, 470.0 ],
		"bglocked" : 0,
		"defrect" : [ 133.0, 178.0, 664.0, 470.0 ],
		"openrect" : [ 0.0, 0.0, 0.0, 0.0 ],
		"openinpresentation" : 0,
		"default_fontsize" : 12.0,
		"default_fontface" : 0,
		"default_fontname" : "Arial",
		"gridonopen" : 0,
		"gridsize" : [ 15.0, 15.0 ],
		"gridsnaponopen" : 0,
		"toolbarvisible" : 0,
		"boxanimatetime" : 200,
		"imprint" : 0,
		"metadata" : [  ],
		"boxes" : [ 			{
				"box" : 				{
					"maxclass" : "comment",
					"text" : "megaPlayerTable",
					"patching_rect" : [ 339.0, 261.0, 95.0, 17.0 ],
					"numinlets" : 1,
					"id" : "obj-1",
					"fontname" : "Arial",
					"numoutlets" : 0,
					"fontsize" : 9.0
				}

			}
, 			{
				"box" : 				{
					"maxclass" : "comment",
					"text" : "filename: read and load data table",
					"patching_rect" : [ 433.0, 261.0, 232.0, 17.0 ],
					"numinlets" : 1,
					"id" : "obj-2",
					"fontname" : "Arial",
					"numoutlets" : 0,
					"fontsize" : 9.0
				}

			}
, 			{
				"box" : 				{
					"maxclass" : "comment",
					"text" : "megaPlayerColl",
					"patching_rect" : [ 339.0, 249.0, 96.0, 17.0 ],
					"numinlets" : 1,
					"id" : "obj-3",
					"fontname" : "Arial",
					"numoutlets" : 0,
					"fontsize" : 9.0
				}

			}
, 			{
				"box" : 				{
					"maxclass" : "comment",
					"text" : "filename: read and load data collection",
					"patching_rect" : [ 433.0, 249.0, 216.0, 17.0 ],
					"numinlets" : 1,
					"id" : "obj-4",
					"fontname" : "Arial",
					"numoutlets" : 0,
					"fontsize" : 9.0
				}

			}
, 			{
				"box" : 				{
					"maxclass" : "message",
					"text" : ";\rmegaPlayerVolL 0 3000",
					"linecount" : 2,
					"patching_rect" : [ 484.0, 314.0, 118.0, 25.0 ],
					"numinlets" : 2,
					"id" : "obj-5",
					"fontname" : "Arial",
					"numoutlets" : 1,
					"outlettype" : [ "" ],
					"bgcolor" : [ 1.0, 0.741176, 0.611765, 1.0 ],
					"fontsize" : 9.0
				}

			}
, 			{
				"box" : 				{
					"maxclass" : "newobj",
					"text" : "moreAboutDataStructures",
					"patching_rect" : [ 439.0, 388.0, 128.0, 17.0 ],
					"numinlets" : 0,
					"id" : "obj-6",
					"fontname" : "Arial",
					"numoutlets" : 0,
					"fontsize" : 9.0
				}

			}
, 			{
				"box" : 				{
					"maxclass" : "comment",
					"text" : "megaPlayerNote",
					"patching_rect" : [ 339.0, 226.0, 88.0, 17.0 ],
					"numinlets" : 1,
					"id" : "obj-7",
					"fontname" : "Arial",
					"numoutlets" : 0,
					"fontsize" : 9.0
				}

			}
, 			{
				"box" : 				{
					"maxclass" : "comment",
					"text" : "[Note Data List] (passed directly to the Player)",
					"patching_rect" : [ 431.0, 226.0, 235.0, 17.0 ],
					"numinlets" : 1,
					"id" : "obj-8",
					"fontname" : "Arial",
					"numoutlets" : 0,
					"fontsize" : 9.0
				}

			}
, 			{
				"box" : 				{
					"maxclass" : "comment",
					"text" : "Audio Signal (generated by the player)",
					"patching_rect" : [ 338.0, 128.0, 316.0, 17.0 ],
					"numinlets" : 1,
					"id" : "obj-9",
					"fontname" : "Arial",
					"numoutlets" : 0,
					"fontsize" : 9.0
				}

			}
, 			{
				"box" : 				{
					"maxclass" : "comment",
					"text" : "Pan-8 data [float float float] if included in the Note Data List",
					"patching_rect" : [ 338.0, 116.0, 316.0, 17.0 ],
					"numinlets" : 1,
					"id" : "obj-10",
					"fontname" : "Arial",
					"numoutlets" : 0,
					"fontsize" : 9.0
				}

			}
, 			{
				"box" : 				{
					"maxclass" : "comment",
					"text" : "On / Off (0/1)",
					"patching_rect" : [ 338.0, 53.0, 314.0, 17.0 ],
					"numinlets" : 1,
					"id" : "obj-11",
					"fontname" : "Arial",
					"numoutlets" : 0,
					"fontsize" : 9.0
				}

			}
, 			{
				"box" : 				{
					"maxclass" : "comment",
					"text" : "The Note Generated button (green) flashes each time a note is generated by the module",
					"linecount" : 2,
					"patching_rect" : [ 11.0, 216.0, 316.0, 27.0 ],
					"numinlets" : 1,
					"id" : "obj-12",
					"fontname" : "Arial",
					"numoutlets" : 0,
					"fontsize" : 9.0
				}

			}
, 			{
				"box" : 				{
					"maxclass" : "comment",
					"text" : "Soundfiles should be placed in the soundfiles folder (in the UBCToolbox main folder) or in any other Max/MSP path folder.",
					"linecount" : 2,
					"patching_rect" : [ 10.0, 399.0, 319.0, 27.0 ],
					"numinlets" : 1,
					"id" : "obj-13",
					"fontname" : "Arial",
					"numoutlets" : 0,
					"fontsize" : 9.0
				}

			}
, 			{
				"box" : 				{
					"maxclass" : "comment",
					"text" : "The table (megaTable) can be used to map incoming MIDI pitches to the soundfile numbers (as specified in the megadata coll). By default incoming pitches 1 - 400 are mapped to 1 - 400 if fewer soundfiles are used, you can alter the table to map incoming pitches to the soundfile numbers.",
					"linecount" : 5,
					"patching_rect" : [ 10.0, 333.0, 304.0, 58.0 ],
					"numinlets" : 1,
					"id" : "obj-14",
					"fontname" : "Arial",
					"numoutlets" : 0,
					"fontsize" : 9.0
				}

			}
, 			{
				"box" : 				{
					"maxclass" : "newobj",
					"text" : "collFormat",
					"patching_rect" : [ 196.0, 314.0, 58.0, 17.0 ],
					"numinlets" : 0,
					"id" : "obj-15",
					"fontname" : "Arial",
					"numoutlets" : 0,
					"fontsize" : 9.0
				}

			}
, 			{
				"box" : 				{
					"maxclass" : "comment",
					"text" : "exMegaPlayerIn",
					"patching_rect" : [ 339.0, 237.0, 81.0, 17.0 ],
					"numinlets" : 1,
					"id" : "obj-16",
					"fontname" : "Arial",
					"numoutlets" : 0,
					"fontsize" : 9.0
				}

			}
, 			{
				"box" : 				{
					"maxclass" : "comment",
					"text" : "int: external control for boxcar volume",
					"patching_rect" : [ 432.0, 237.0, 232.0, 17.0 ],
					"numinlets" : 1,
					"id" : "obj-17",
					"fontname" : "Arial",
					"numoutlets" : 0,
					"fontsize" : 9.0
				}

			}
, 			{
				"box" : 				{
					"maxclass" : "message",
					"text" : "window flags grow",
					"patching_rect" : [ 616.0, 338.0, 95.0, 15.0 ],
					"numinlets" : 2,
					"hidden" : 1,
					"id" : "obj-18",
					"fontname" : "Arial",
					"numoutlets" : 1,
					"outlettype" : [ "" ],
					"fontsize" : 9.0
				}

			}
, 			{
				"box" : 				{
					"maxclass" : "message",
					"text" : "window flags nogrow",
					"patching_rect" : [ 616.0, 320.0, 105.0, 15.0 ],
					"numinlets" : 2,
					"hidden" : 1,
					"id" : "obj-19",
					"fontname" : "Arial",
					"numoutlets" : 1,
					"outlettype" : [ "" ],
					"fontsize" : 9.0
				}

			}
, 			{
				"box" : 				{
					"maxclass" : "newobj",
					"text" : "thispatcher",
					"patching_rect" : [ 616.0, 373.0, 60.0, 17.0 ],
					"numinlets" : 1,
					"hidden" : 1,
					"id" : "obj-20",
					"fontname" : "Arial",
					"numoutlets" : 2,
					"outlettype" : [ "", "" ],
					"fontsize" : 9.0,
					"save" : [ "#N", "thispatcher", ";", "#Q", "window", "flags", "nogrow", "close", "zoom", "nofloat", "menu", "minimize", ";", "#Q", "window", "constrain", 2, 2, 32768, 32768, ";", "#Q", "window", "size", 133, 178, 797, 648, ";", "#Q", "window", "title", ";", "#Q", "window", "exec", ";", "#Q", "savewindow", 1, ";", "#Q", "end", ";" ]
				}

			}
, 			{
				"box" : 				{
					"maxclass" : "message",
					"text" : "window exec",
					"patching_rect" : [ 616.0, 356.0, 65.0, 15.0 ],
					"numinlets" : 2,
					"hidden" : 1,
					"id" : "obj-21",
					"fontname" : "Arial",
					"numoutlets" : 1,
					"outlettype" : [ "" ],
					"fontsize" : 9.0
				}

			}
, 			{
				"box" : 				{
					"maxclass" : "comment",
					"text" : "Written by Keith Hamel 2006.",
					"patching_rect" : [ 374.0, 423.0, 271.0, 17.0 ],
					"numinlets" : 1,
					"id" : "obj-22",
					"fontname" : "Arial",
					"numoutlets" : 0,
					"fontsize" : 9.0
				}

			}
, 			{
				"box" : 				{
					"maxclass" : "comment",
					"patching_rect" : [ 339.0, 214.0, 70.0, 17.0 ],
					"numinlets" : 1,
					"id" : "obj-23",
					"fontname" : "Arial",
					"numoutlets" : 0,
					"fontsize" : 9.0
				}

			}
, 			{
				"box" : 				{
					"maxclass" : "comment",
					"text" : "megaPlayerVolL",
					"patching_rect" : [ 339.0, 202.0, 85.0, 17.0 ],
					"numinlets" : 1,
					"id" : "obj-24",
					"fontname" : "Arial",
					"numoutlets" : 0,
					"fontsize" : 9.0
				}

			}
, 			{
				"box" : 				{
					"maxclass" : "comment",
					"text" : "megaPlayerVol",
					"patching_rect" : [ 339.0, 190.0, 85.0, 17.0 ],
					"numinlets" : 1,
					"id" : "obj-25",
					"fontname" : "Arial",
					"numoutlets" : 0,
					"fontsize" : 9.0
				}

			}
, 			{
				"box" : 				{
					"maxclass" : "comment",
					"text" : "int: sets the output volume (0 -127)",
					"patching_rect" : [ 431.0, 190.0, 232.0, 17.0 ],
					"numinlets" : 1,
					"id" : "obj-26",
					"fontname" : "Arial",
					"numoutlets" : 0,
					"fontsize" : 9.0
				}

			}
, 			{
				"box" : 				{
					"maxclass" : "comment",
					"text" : "[int int]: sets the output volume (0 -127) and duration (msec) of the ramp to that volume",
					"linecount" : 2,
					"patching_rect" : [ 431.0, 202.0, 232.0, 27.0 ],
					"numinlets" : 1,
					"id" : "obj-27",
					"fontname" : "Arial",
					"numoutlets" : 0,
					"fontsize" : 9.0
				}

			}
, 			{
				"box" : 				{
					"maxclass" : "comment",
					"text" : "toggle: turns the module on or off (0/1)",
					"patching_rect" : [ 431.0, 178.0, 232.0, 17.0 ],
					"numinlets" : 1,
					"id" : "obj-28",
					"fontname" : "Arial",
					"numoutlets" : 0,
					"fontsize" : 9.0
				}

			}
, 			{
				"box" : 				{
					"maxclass" : "comment",
					"text" : "megaPlayerOnOff",
					"patching_rect" : [ 339.0, 178.0, 86.0, 17.0 ],
					"numinlets" : 1,
					"id" : "obj-29",
					"fontname" : "Arial",
					"numoutlets" : 0,
					"fontsize" : 9.0
				}

			}
, 			{
				"box" : 				{
					"maxclass" : "comment",
					"text" : "The soundfiles to be used by this module must first entered into the sfdata coll which can be opened by double clicking the 'coll sfdata' object box on the module. The soundfile information must be entered into this coll using the following format:",
					"linecount" : 4,
					"patching_rect" : [ 10.0, 279.0, 318.0, 48.0 ],
					"numinlets" : 1,
					"id" : "obj-30",
					"fontname" : "Arial",
					"numoutlets" : 0,
					"fontsize" : 9.0
				}

			}
, 			{
				"box" : 				{
					"maxclass" : "comment",
					"text" : "OPERATION NOTES",
					"patching_rect" : [ 10.0, 258.0, 317.0, 25.0 ],
					"numinlets" : 1,
					"id" : "obj-31",
					"fontname" : "Futura Medium",
					"numoutlets" : 0,
					"fontsize" : 14.0
				}

			}
, 			{
				"box" : 				{
					"maxclass" : "comment",
					"text" : "Volume (0 - 127)",
					"patching_rect" : [ 338.0, 41.0, 314.0, 17.0 ],
					"numinlets" : 1,
					"id" : "obj-32",
					"fontname" : "Arial",
					"numoutlets" : 0,
					"fontsize" : 9.0
				}

			}
, 			{
				"box" : 				{
					"maxclass" : "comment",
					"text" : "Note Data List [up to 16 parameters]",
					"patching_rect" : [ 338.0, 29.0, 314.0, 17.0 ],
					"numinlets" : 1,
					"id" : "obj-33",
					"fontname" : "Arial",
					"numoutlets" : 0,
					"fontsize" : 9.0
				}

			}
, 			{
				"box" : 				{
					"maxclass" : "comment",
					"text" : "BUTTON CONTROLS",
					"patching_rect" : [ 11.0, 183.0, 317.0, 25.0 ],
					"numinlets" : 1,
					"id" : "obj-34",
					"fontname" : "Futura Medium",
					"numoutlets" : 0,
					"fontsize" : 14.0
				}

			}
, 			{
				"box" : 				{
					"maxclass" : "comment",
					"text" : "On/Off button turns the module on or off",
					"patching_rect" : [ 12.0, 204.0, 315.0, 17.0 ],
					"numinlets" : 1,
					"id" : "obj-35",
					"fontname" : "Arial",
					"numoutlets" : 0,
					"fontsize" : 9.0
				}

			}
, 			{
				"box" : 				{
					"maxclass" : "comment",
					"text" : "SLIDER CONTROLS",
					"patching_rect" : [ 10.0, 137.0, 317.0, 25.0 ],
					"numinlets" : 1,
					"id" : "obj-36",
					"fontname" : "Futura Medium",
					"numoutlets" : 0,
					"fontsize" : 14.0
				}

			}
, 			{
				"box" : 				{
					"maxclass" : "comment",
					"text" : "RECEIVES (MESSAGES)",
					"patching_rect" : [ 339.0, 158.0, 319.0, 25.0 ],
					"numinlets" : 1,
					"id" : "obj-37",
					"fontname" : "Futura Medium",
					"numoutlets" : 0,
					"fontsize" : 14.0
				}

			}
, 			{
				"box" : 				{
					"maxclass" : "comment",
					"text" : "MESSAGING EXAMPLES",
					"patching_rect" : [ 339.0, 290.0, 242.0, 25.0 ],
					"numinlets" : 1,
					"id" : "obj-38",
					"fontname" : "Futura Medium",
					"numoutlets" : 0,
					"fontsize" : 14.0
				}

			}
, 			{
				"box" : 				{
					"maxclass" : "message",
					"text" : ";\rmegaPlayerNote 19 60 1 5000 0. -1 -1 -1 -1",
					"linecount" : 2,
					"patching_rect" : [ 344.0, 357.0, 217.0, 25.0 ],
					"numinlets" : 2,
					"id" : "obj-39",
					"fontname" : "Arial",
					"numoutlets" : 1,
					"outlettype" : [ "" ],
					"bgcolor" : [ 1.0, 0.741176, 0.611765, 1.0 ],
					"fontsize" : 9.0
				}

			}
, 			{
				"box" : 				{
					"maxclass" : "message",
					"text" : ";\rmegaPlayerOnOff 1;\rmegaPlayerVolL 100 3000;\r",
					"linecount" : 3,
					"patching_rect" : [ 344.0, 314.0, 134.0, 36.0 ],
					"numinlets" : 2,
					"id" : "obj-40",
					"fontname" : "Arial",
					"numoutlets" : 1,
					"outlettype" : [ "" ],
					"bgcolor" : [ 1.0, 0.741176, 0.611765, 1.0 ],
					"fontsize" : 9.0
				}

			}
, 			{
				"box" : 				{
					"maxclass" : "fpic",
					"patching_rect" : [ 338.0, 423.0, 32.0, 34.0 ],
					"numinlets" : 1,
					"embed" : 1,
					"id" : "obj-41",
					"numoutlets" : 0,
					"data" : [ 1952, "png", "IBkSG0fBZn....PCIgDQRA...3A...fGHX....vNv3pn....DLmPIQEBHf.B7g.YHB..GbURDEDUHkXqVsGUSddG94KIbI.ARHDj6DfhgKN4hvXHhBHUcLamysgcv7bvoyU8ztZsc6rIbFXW6jVvJ1KmVasJLJmVIbwa.UpZBV4lJbHX.DDj6HzjfIP.x8u8G9ENHDP1N64bdO48xy6umume+9ky4k.+eB0We8t17UE91b4v9gL4Gx4RM0TMtR7Yr3M9vibD20zXi6vee8UmiYDWYojxanc0H7.cJ8ncc+1+KSqdZr8zVid.T3Jwml4IkVZoz+fW6Okwz28th8hFsyEefB9Z6dnphtmnK6xpQX4xFWfRclPK8NNx7uk4YNxANPS0bwxR94J7.C22t+AgkcdeLXZst6LGzk9YPXN59d59507ZqFgiM9jdKNd3y6wyGuuudCFr9123Zwb1BJnzxJ4KOnk3S27D1rr+Mrs+Q1P+PChya+Q82uU3e3Qi.XwIg04vf8bYoxjtRB+km+7Ook1jbybyM2ukvftWdMb4xahGONyVZroWJ+7eeiWnhKcKK53n1X781oU5glolAE1UqHYu7GkWZQfEG2QTgr876u4qF9pw4omd5OI9Mtow7zCOAO2cGZLPhO5D4c71uSCOSZedGelO6yGQxHC9RC2UGNSn0Hzvf.7YXCt2fciTR52vR9nCxNRm53FWRhJMqjvW+5WORFFL72cxQmrkFAMXhzHjISFwzpU6S4WopxyO+708LNNf.BXnid3idL5qKTSDj.2dfGAucdMXpGMHp8N2BdYkKuBOmC7cWIQanzRYNQ2s+dVascN4I+.vOI7vPLaJND8OKZTUkWLAEiNZrKIUC.DSLwHLiLNTZ2PsBsboYCNYK2FI4ev3d2pVLhhIQ7g7qOz32olksSkwrcjIiF+zcL2CpAzsBvfM1BuBd8JiH9jlynISn+gGNpkjpMiqboK0AcafQcVaZqtYzZP2DIBvNGQcszDjO5DDcMTuAlPBtciqUeeJW38546JJMMRpr.R8Zg5gjB8beA3RfgWajgsts5patUesUWUZwt4369aufvpWhiMiYUibmBZJ4IDFPGOdbTzC5.eS+cigGaDDHbLVEyY6atP98Kthfm59U8NFHMASDVAD4dfGgu4hcmGmzcyM2lvzry1gcLYZxIG3LgES0K.jDlLlYCyHuuZmYBnQiF75dtVr2suSnmu6ffksyGfgjJ0YUsW0WoQ9vAnR4bPI6fg+Iu2uvUWc8fAETPxA.lwnQs9F3Z0xyMWGY9xxxUuFXbLnKtfTkMm1bR1u.hnGUJ83.EeVZiPnRcPqyie..PjHQLT1zYKZlwdPryMmALN3BOieucxlkcY5me9Me2OKVrn8a+coeQF1Xi3mmiA.fb4n0olg7WlQAmNp1cDkW8PiMq2QsMGXG7K9WyKu2xdOT01aNcu2cm5znGxI3.tItu97Wff4cpYHQhjwWiGd7GEHPviLuGwxnIQokVJsTSMUiYmc1zBMzPI3wiGQ4k7EmoUkt7Gx6DYMl0OrpOxXCmK24lUKFSkQvXiG3wqey+7zCNP+DsRlwLVRWsYHTnP..TWc0QFRHgPXu81iWd2uR6sd2F2QG+HS+dwfcXKJePizUnRGj6cxHnMti7hX8gTjkLQ1YmMs5pqNxUyGzxhlEWalQusTIOU4RHanhOm7eexrHuSKRdmryN6EW1HVz3+cLXSWcC26j6sqx+3+AYfaNMxJaQAYqRZSRCMz.SKwWjHQLjJUp0V5rUr4hBD..MUc4dIqgRJd1w5MH18KBu9V8.YkU1XJlufuVYEhzRWLwDSznPgBMXoyV1Z7BDkr4h9Wb008MKiTwHaX1oTBUlrCb+o6ZDq0qX3u4ZR7NoTRIfMEWje+EEJb5EGfkq197bLYaWqbWIj29mQSsrMMq5owTFoAqi7WIienQ7pGZ+6aeNNiDEm5qpYKQEUrGu5pq1lmS7dFGwG.YPstP.L.0b9LYx7faKB9o76WuCgwlPKtRGOA8YhGlgAawhEey5..hZCQDlQlttqCm0mLaDdo+vOpSoe8BdnW3.XWKPu1.fX.nbgaPB.1K7qhqS18i.f7xuZDjUs+PH2ZjBHo3sjAaOVK422sJCR6p0znhi3kiK.3aNUqbQ+hZ9m64X9vwFd..VYRGjQyYvxGAlO+3.fPjHQVA.mIHHlR4X8fS8wESWOS+NAWtbuJ.1B.JB.bnxrb.vooFCXwZbG0WcDtwT6aa9ueSAVvln1sxd5o2Jnnj..xIwDSLK.TIIIoi7802Q0MfH7oWndeTnPQbzoSuS7zR3BM0QnFVt4hsWg5xzV4IGi5d5SpUK3Wfv1xNe+N6rygonvmR7DnbFTL4jkbr+79+tFp3z..vM2c2tUSylXPk6A.5axIcRTsU2LWmrmD.js0dWeBEubn3kyhtea.fLt3hNzhK574xfgUZobnkdfXAKbQgTATLdZpXWt3hKUB.RO8zy9kKWtiKRXwTyygJPJo1OAJdYPsVI04YPwcfEwaY6BaaQe0EZANlGOiSnDa.rz3kgExB.3oo6U0an+u.Ir3M9O.7J5HEj0o7sF.....IUjSD4pPfIH" ]
				}

			}
, 			{
				"box" : 				{
					"maxclass" : "comment",
					"text" : "Volume Slider Controls the output level of the Player",
					"patching_rect" : [ 10.0, 158.0, 315.0, 17.0 ],
					"numinlets" : 1,
					"id" : "obj-42",
					"fontname" : "Arial",
					"numoutlets" : 0,
					"fontsize" : 9.0
				}

			}
, 			{
				"box" : 				{
					"maxclass" : "comment",
					"text" : "Receives Note Data (in the form of a Note Data List) and plays back the soundfile associated with that pitch number. Up to 400 soundfiles can be accessed by the soundfile player with a polyphony up to 48 or 96 (depending on which version of the player is used. The soundfile information is stored in the megadata coll (collection). Soundfiles are played back untransposed and completely through regardless of the duration specified in the Note Data List passed to the player.",
					"linecount" : 7,
					"patching_rect" : [ 10.0, 47.0, 317.0, 79.0 ],
					"numinlets" : 1,
					"id" : "obj-43",
					"fontname" : "Arial",
					"numoutlets" : 0,
					"fontsize" : 9.0
				}

			}
, 			{
				"box" : 				{
					"maxclass" : "inlet",
					"patching_rect" : [ 502.0, 12.0, 14.0, 14.0 ],
					"numinlets" : 0,
					"hidden" : 1,
					"id" : "obj-44",
					"numoutlets" : 1,
					"outlettype" : [ "" ],
					"comment" : ""
				}

			}
, 			{
				"box" : 				{
					"maxclass" : "comment",
					"text" : "Note Data List (passed from input)",
					"patching_rect" : [ 338.0, 104.0, 316.0, 17.0 ],
					"numinlets" : 1,
					"id" : "obj-45",
					"fontname" : "Arial",
					"numoutlets" : 0,
					"fontsize" : 9.0
				}

			}
, 			{
				"box" : 				{
					"maxclass" : "comment",
					"text" : "OUTPUTS",
					"patching_rect" : [ 338.0, 85.0, 99.0, 25.0 ],
					"numinlets" : 1,
					"id" : "obj-46",
					"fontname" : "Futura Medium",
					"numoutlets" : 0,
					"fontsize" : 14.0
				}

			}
, 			{
				"box" : 				{
					"maxclass" : "comment",
					"text" : "INPUTS",
					"patching_rect" : [ 338.0, 8.0, 99.0, 25.0 ],
					"numinlets" : 1,
					"id" : "obj-47",
					"fontname" : "Futura Medium",
					"numoutlets" : 0,
					"fontsize" : 14.0
				}

			}
, 			{
				"box" : 				{
					"maxclass" : "comment",
					"text" : "MEGA SOUND FILE PLAYER",
					"patching_rect" : [ 10.0, 6.0, 313.0, 30.0 ],
					"numinlets" : 1,
					"id" : "obj-48",
					"fontname" : "Futura Medium",
					"numoutlets" : 0,
					"fontsize" : 18.0
				}

			}
, 			{
				"box" : 				{
					"maxclass" : "panel",
					"patching_rect" : [ 5.0, 5.0, 324.0, 31.0 ],
					"rounded" : 0,
					"numinlets" : 1,
					"id" : "obj-49",
					"numoutlets" : 0,
					"border" : 1,
					"bgcolor" : [ 0.74902, 0.827451, 1.0, 1.0 ]
				}

			}
, 			{
				"box" : 				{
					"maxclass" : "panel",
					"patching_rect" : [ 5.0, 43.0, 324.0, 421.0 ],
					"rounded" : 0,
					"numinlets" : 1,
					"id" : "obj-50",
					"numoutlets" : 0,
					"border" : 1,
					"bgcolor" : [ 1.0, 1.0, 0.862745, 1.0 ]
				}

			}
, 			{
				"box" : 				{
					"maxclass" : "panel",
					"patching_rect" : [ 335.0, 415.0, 324.0, 49.0 ],
					"rounded" : 0,
					"numinlets" : 1,
					"id" : "obj-51",
					"numoutlets" : 0,
					"border" : 1,
					"bgcolor" : [ 0.815686, 1.0, 0.815686, 1.0 ]
				}

			}
, 			{
				"box" : 				{
					"maxclass" : "panel",
					"patching_rect" : [ 335.0, 3.0, 323.0, 407.0 ],
					"rounded" : 0,
					"numinlets" : 1,
					"id" : "obj-52",
					"numoutlets" : 0,
					"border" : 1,
					"bgcolor" : [ 1.0, 1.0, 0.862745, 1.0 ]
				}

			}
 ],
		"lines" : [ 			{
				"patchline" : 				{
					"source" : [ "obj-18", 0 ],
					"destination" : [ "obj-20", 0 ],
					"hidden" : 1,
					"midpoints" : [  ]
				}

			}
, 			{
				"patchline" : 				{
					"source" : [ "obj-21", 0 ],
					"destination" : [ "obj-20", 0 ],
					"hidden" : 1,
					"midpoints" : [  ]
				}

			}
, 			{
				"patchline" : 				{
					"source" : [ "obj-19", 0 ],
					"destination" : [ "obj-20", 0 ],
					"hidden" : 1,
					"midpoints" : [  ]
				}

			}
 ]
	}

}
