{
	"patcher" : 	{
		"fileversion" : 1,
		"appversion" : 		{
			"major" : 7,
			"minor" : 0,
			"revision" : 1,
			"architecture" : "x86",
			"modernui" : 1
		}
,
		"rect" : [ 218.0, 179.0, 732.0, 509.0 ],
		"bglocked" : 0,
		"openinpresentation" : 0,
		"default_fontsize" : 12.0,
		"default_fontface" : 0,
		"default_fontname" : "Arial",
		"gridonopen" : 1,
		"gridsize" : [ 15.0, 15.0 ],
		"gridsnaponopen" : 1,
		"objectsnaponopen" : 1,
		"statusbarvisible" : 2,
		"toolbarvisible" : 0,
		"lefttoolbarpinned" : 0,
		"toptoolbarpinned" : 0,
		"righttoolbarpinned" : 0,
		"bottomtoolbarpinned" : 0,
		"toolbars_unpinned_last_save" : 0,
		"tallnewobj" : 0,
		"boxanimatetime" : 200,
		"enablehscroll" : 1,
		"enablevscroll" : 1,
		"devicewidth" : 0.0,
		"description" : "",
		"digest" : "",
		"tags" : "",
		"style" : "",
		"subpatcher_template" : "",
		"boxes" : [ 			{
				"box" : 				{
					"bgfillcolor_angle" : 270.0,
					"bgfillcolor_autogradient" : 0,
					"bgfillcolor_color" : [ 0.290196, 0.309804, 0.301961, 1.0 ],
					"bgfillcolor_color1" : [ 1.0, 1.0, 1.0, 1.0 ],
					"bgfillcolor_color2" : [ 0.65098, 0.666667, 0.662745, 1.0 ],
					"bgfillcolor_proportion" : 0.39,
					"bgfillcolor_type" : "gradient",
					"fontname" : "Arial",
					"fontsize" : 9.0,
					"id" : "obj-1",
					"maxclass" : "message",
					"numinlets" : 2,
					"numoutlets" : 1,
					"outlettype" : [ "" ],
					"patching_rect" : [ 18.0, 343.0, 73.0, 19.0 ],
					"style" : "",
					"text" : "0.25 0.5 0.75",
					"textcolor" : [ 0.0, 0.0, 0.0, 1.0 ]
				}

			}
, 			{
				"box" : 				{
					"fontname" : "Arial",
					"fontsize" : 9.0,
					"id" : "obj-2",
					"linecount" : 3,
					"maxclass" : "comment",
					"numinlets" : 1,
					"numoutlets" : 0,
					"patching_rect" : [ 92.0, 332.0, 236.0, 37.0 ],
					"style" : "",
					"text" : "positioned 1/4 of the way from left-right and centred between the front and back and near the ceiling (3/4 of the height of the room)"
				}

			}
, 			{
				"box" : 				{
					"bgfillcolor_angle" : 270.0,
					"bgfillcolor_autogradient" : 0,
					"bgfillcolor_color" : [ 0.290196, 0.309804, 0.301961, 1.0 ],
					"bgfillcolor_color1" : [ 1.0, 1.0, 1.0, 1.0 ],
					"bgfillcolor_color2" : [ 0.65098, 0.666667, 0.662745, 1.0 ],
					"bgfillcolor_proportion" : 0.39,
					"bgfillcolor_type" : "gradient",
					"fontname" : "Arial",
					"fontsize" : 9.0,
					"id" : "obj-3",
					"maxclass" : "message",
					"numinlets" : 2,
					"numoutlets" : 1,
					"outlettype" : [ "" ],
					"patching_rect" : [ 36.0, 144.0, 49.0, 19.0 ],
					"style" : "",
					"text" : "0.25 0.5",
					"textcolor" : [ 0.0, 0.0, 0.0, 1.0 ]
				}

			}
, 			{
				"box" : 				{
					"fontname" : "Arial",
					"fontsize" : 9.0,
					"hidden" : 1,
					"id" : "obj-4",
					"maxclass" : "message",
					"numinlets" : 2,
					"numoutlets" : 1,
					"outlettype" : [ "" ],
					"patching_rect" : [ 672.0, 456.0, 95.0, 19.0 ],
					"style" : "",
					"text" : "window flags grow"
				}

			}
, 			{
				"box" : 				{
					"fontname" : "Arial",
					"fontsize" : 9.0,
					"hidden" : 1,
					"id" : "obj-5",
					"maxclass" : "message",
					"numinlets" : 2,
					"numoutlets" : 1,
					"outlettype" : [ "" ],
					"patching_rect" : [ 670.0, 438.0, 105.0, 19.0 ],
					"style" : "",
					"text" : "window flags nogrow"
				}

			}
, 			{
				"box" : 				{
					"fontname" : "Arial",
					"fontsize" : 9.0,
					"hidden" : 1,
					"id" : "obj-6",
					"maxclass" : "newobj",
					"numinlets" : 1,
					"numoutlets" : 2,
					"outlettype" : [ "", "" ],
					"patching_rect" : [ 656.0, 490.0, 60.0, 19.0 ],
					"save" : [ "#N", "thispatcher", ";", "#Q", "window", "flags", "nogrow", "close", "zoom", "nofloat", "menu", "minimize", ";", "#Q", "window", "constrain", 50, 50, 32768, 32768, ";", "#Q", "window", "size", 218, 179, 950, 688, ";", "#Q", "window", "title", ";", "#Q", "window", "exec", ";", "#Q", "savewindow", 1, ";", "#Q", "end", ";" ],
					"style" : "",
					"text" : "thispatcher"
				}

			}
, 			{
				"box" : 				{
					"fontname" : "Arial",
					"fontsize" : 9.0,
					"hidden" : 1,
					"id" : "obj-7",
					"maxclass" : "message",
					"numinlets" : 2,
					"numoutlets" : 1,
					"outlettype" : [ "" ],
					"patching_rect" : [ 670.0, 472.0, 65.0, 19.0 ],
					"style" : "",
					"text" : "window exec"
				}

			}
, 			{
				"box" : 				{
					"fontname" : "Arial",
					"fontsize" : 9.0,
					"id" : "obj-8",
					"linecount" : 2,
					"maxclass" : "comment",
					"numinlets" : 1,
					"numoutlets" : 0,
					"patching_rect" : [ 46.0, 463.0, 259.0, 27.0 ],
					"style" : "",
					"text" : "Written and designed by K. Hamel and B. Pritchard 2004-2005."
				}

			}
, 			{
				"box" : 				{
					"data" : [ 1952, "png", "IBkSG0fBZn....PCIgDQRA...3A...fGHX....vNv3pn....DLmPIQEBHf.B7g.YHB..GbURDEDUHkXqVsGUSddG94KIbI.ARHDj6DfhgKN4hvXHhBHUcLamysgcv7bvoyU8ztZsc6rIbFXW6jVvJ1KmVasJLJmVIbwa.UpZBV4lJbHX.DDj6HzjfIP.x8u8G9ENHDP1N64bdO48xy6umume+9ky4k.+eB0We8t17UE91b4v9gL4Gx4RM0TMtR7Yr3M9vibD20zXi6vee8UmiYDWYojxanc0H7.cJ8ncc+1+KSqdZr8zVid.T3Jwml4IkVZoz+fW6Okwz28th8hFsyEefB9Z6dnphtmnK6xpQX4xFWfRclPK8NNx7uk4YNxANPS0bwxR94J7.C22t+AgkcdeLXZst6LGzk9YPXN59d59507ZqFgiM9jdKNd3y6wyGuuudCFr9123Zwb1BJnzxJ4KOnk3S27D1rr+Mrs+Q1P+PChya+Q82uU3e3Qi.XwIg04vf8bYoxjtRB+km+7Ook1jbybyM2ukvftWdMb4xahGONyVZroWJ+7eeiWnhKcKK53n1X781oU5glolAE1UqHYu7GkWZQfEG2QTgr876u4qF9pw4omd5OI9Mtow7zCOAO2cGZLPhO5D4c71uSCOSZedGelO6yGQxHC9RC2UGNSn0Hzvf.7YXCt2fciTR52vR9nCxNRm53FWRhJMqjvW+5WORFFL72cxQmrkFAMXhzHjISFwzpU6S4WopxyO+708LNNf.BXnid3idL5qKTSDj.2dfGAucdMXpGMHp8N2BdYkKuBOmC7cWIQanzRYNQ2s+dVascN4I+.vOI7vPLaJND8OKZTUkWLAEiNZrKIUC.DSLwHLiLNTZ2PsBsboYCNYK2FI4ev3d2pVLhhIQ7g7qOz32olksSkwrcjIiF+zcL2CpAzsBvfM1BuBd8JiH9jlynISn+gGNpkjpMiqboK0AcafQcVaZqtYzZP2DIBvNGQcszDjO5DDcMTuAlPBtciqUeeJW38546JJMMRpr.R8Zg5gjB8beA3RfgWajgsts5patUesUWUZwt4369aufvpWhiMiYUibmBZJ4IDFPGOdbTzC5.eS+cigGaDDHbLVEyY6atP98Kthfm59U8NFHMASDVAD4dfGgu4hcmGmzcyM2lvzry1gcLYZxIG3LgES0K.jDlLlYCyHuuZmYBnQiF75dtVr2suSnmu6ffksyGfgjJ0YUsW0WoQ9vAnR4bPI6fg+Iu2uvUWc8fAETPxA.lwnQs9F3Z0xyMWGY9xxxUuFXbLnKtfTkMm1bR1u.hnGUJ83.EeVZiPnRcPqyie..PjHQLT1zYKZlwdPryMmALN3BOieucxlkcY5me9Me2OKVrn8a+coeQF1Xi3mmiA.fb4n0olg7WlQAmNp1cDkW8PiMq2QsMGXG7K9WyKu2xdOT01aNcu2cm5znGxI3.tItu97Wff4cpYHQhjwWiGd7GEHPviLuGwxnIQokVJsTSMUiYmc1zBMzPI3wiGQ4k7EmoUkt7Gx6DYMl0OrpOxXCmK24lUKFSkQvXiG3wqey+7zCNP+DsRlwLVRWsYHTnP..TWc0QFRHgPXu81iWd2uR6sd2F2QG+HS+dwfcXKJePizUnRGj6cxHnMti7hX8gTjkLQ1YmMs5pqNxUyGzxhlEWalQusTIOU4RHanhOm7eexrHuSKRdmryN6EW1HVz3+cLXSWcC26j6sqx+3+AYfaNMxJaQAYqRZSRCMz.SKwWjHQLjJUp0V5rUr4hBD..MUc4dIqgRJd1w5MH18KBu9V8.YkU1XJlufuVYEhzRWLwDSznPgBMXoyV1Z7BDkr4h9Wb008MKiTwHaX1oTBUlrCb+o6ZDq0qX3u4ZR7NoTRIfMEWje+EEJb5EGfkq197bLYaWqbWIj29mQSsrMMq5owTFoAqi7WIienQ7pGZ+6aeNNiDEm5qpYKQEUrGu5pq1lmS7dFGwG.YPstP.L.0b9LYx7faKB9o76WuCgwlPKtRGOA8YhGlgAawhEey5..hZCQDlQlttqCm0mLaDdo+vOpSoe8BdnW3.XWKPu1.fX.nbgaPB.1K7qhqS18i.f7xuZDjUs+PH2ZjBHo3sjAaOVK422sJCR6p0znhi3kiK.3aNUqbQ+hZ9m64X9vwFd..VYRGjQyYvxGAlO+3.fPjHQVA.mIHHlR4X8fS8wESWOS+NAWtbuJ.1B.JB.bnxrb.vooFCXwZbG0WcDtwT6aa9ueSAVvln1sxd5o2Jnnj..xIwDSLK.TIIIoi7802Q0MfH7oWndeTnPQbzoSuS7zR3BM0QnFVt4hsWg5xzV4IGi5d5SpUK3Wfv1xNe+N6rygonvmR7DnbFTL4jkbr+79+tFp3z..vM2c2tUSylXPk6A.5axIcRTsU2LWmrmD.js0dWeBEubn3kyhtea.fLt3hNzhK574xfgUZobnkdfXAKbQgTATLdZpXWt3hKUB.RO8zy9kKWtiKRXwTyygJPJo1OAJdYPsVI04YPwcfEwaY6BaaQe0EZANlGOiSnDa.rz3kgExB.3oo6U0an+u.Ir3M9O.7J5HEj0o7sF.....IUjSD4pPfIH" ],
					"embed" : 1,
					"id" : "obj-9",
					"maxclass" : "fpic",
					"numinlets" : 1,
					"numoutlets" : 1,
					"outlettype" : [ "jit_matrix" ],
					"patching_rect" : [ 9.0, 462.0, 35.0, 34.0 ]
				}

			}
, 			{
				"box" : 				{
					"angle" : 0.0,
					"bgcolor" : [ 0.815686, 1.0, 0.815686, 1.0 ],
					"border" : 1,
					"id" : "obj-10",
					"maxclass" : "panel",
					"mode" : 0,
					"numinlets" : 1,
					"numoutlets" : 0,
					"patching_rect" : [ 7.0, 452.0, 328.0, 51.0 ],
					"proportion" : 0.39,
					"rounded" : 0,
					"style" : ""
				}

			}
, 			{
				"box" : 				{
					"fontname" : "Futura Medium",
					"fontsize" : 14.0,
					"id" : "obj-11",
					"maxclass" : "comment",
					"numinlets" : 1,
					"numoutlets" : 0,
					"patching_rect" : [ 11.0, 178.0, 316.0, 25.0 ],
					"style" : "",
					"text" : "Pan-8 Data"
				}

			}
, 			{
				"box" : 				{
					"fontname" : "Arial",
					"fontsize" : 9.0,
					"id" : "obj-12",
					"linecount" : 11,
					"maxclass" : "comment",
					"numinlets" : 1,
					"numoutlets" : 0,
					"patching_rect" : [ 11.0, 198.0, 282.0, 117.0 ],
					"style" : "",
					"text" : "The Pan-8 data structure is a list of 3 floats each between 0. and 1. The first value refers to the Left-Right position (where 0. is the extreme left, 0.5 is the centre, and 1. is the extreme right). The second value refers to the Front-Back position (where 0. is the extreme front, 0.5 is the centre, and 1. is the extreme back). The third value refers to the Top-Bottom position (where 0. is the floor, 0.5 is the mid height of the room, and 1. is the ceiling). A list of these three values enables you to position a sound anywhere in a 3 dimensional space (assuming there are 8 speakers - each of which are placed in one corner of the room (4 bottom corners and 4 top corners)"
				}

			}
, 			{
				"box" : 				{
					"fontname" : "Futura Medium",
					"fontsize" : 14.0,
					"id" : "obj-13",
					"maxclass" : "comment",
					"numinlets" : 1,
					"numoutlets" : 0,
					"patching_rect" : [ 13.0, 11.0, 316.0, 25.0 ],
					"style" : "",
					"text" : "Pan-4 Data"
				}

			}
, 			{
				"box" : 				{
					"fontname" : "Arial",
					"fontsize" : 9.0,
					"id" : "obj-14",
					"linecount" : 9,
					"maxclass" : "comment",
					"numinlets" : 1,
					"numoutlets" : 0,
					"patching_rect" : [ 13.0, 31.0, 287.0, 97.0 ],
					"style" : "",
					"text" : "The Pan-4 data structure is a list of 2 floats each between 0. and 1. The first value refers to the Left-Right position (where 0. is the extreme left, 0.5 is the centre, and 1. is the extreme right). The second value refers to the Front-Back position (where 0. is the extreme front, 0.5 is the centre, and 1. is the extreme back). A list of these two values enables you to position a sound anywhere in a 2 dimensional space (assuming there are 4 speakers - one of which is placed in each corner) or there are 8 speakers placed in a circle around the listener"
				}

			}
, 			{
				"box" : 				{
					"fontname" : "Arial",
					"fontsize" : 9.0,
					"id" : "obj-15",
					"linecount" : 4,
					"maxclass" : "comment",
					"numinlets" : 1,
					"numoutlets" : 0,
					"patching_rect" : [ 347.0, 448.0, 316.0, 47.0 ],
					"style" : "",
					"text" : "includes pitch, velocity, channel, duration values for all modules, and includes a fmC2MRatio value of 1.414 which is used by the FM module and a stretchFactor of 5. and a grainSize of 200 that is used by the Boxcar module."
				}

			}
, 			{
				"box" : 				{
					"bgfillcolor_angle" : 270.0,
					"bgfillcolor_autogradient" : 0,
					"bgfillcolor_color" : [ 0.290196, 0.309804, 0.301961, 1.0 ],
					"bgfillcolor_color1" : [ 1.0, 1.0, 1.0, 1.0 ],
					"bgfillcolor_color2" : [ 0.65098, 0.666667, 0.662745, 1.0 ],
					"bgfillcolor_proportion" : 0.39,
					"bgfillcolor_type" : "gradient",
					"fontname" : "Arial",
					"fontsize" : 9.0,
					"id" : "obj-16",
					"maxclass" : "message",
					"numinlets" : 2,
					"numoutlets" : 1,
					"outlettype" : [ "" ],
					"patching_rect" : [ 410.0, 433.0, 234.0, 19.0 ],
					"style" : "",
					"text" : "58 100 1 5000 0. 0.5 0.5 0. 1.414 -1 5. 200",
					"textcolor" : [ 0.0, 0.0, 0.0, 1.0 ]
				}

			}
, 			{
				"box" : 				{
					"fontname" : "Arial",
					"fontsize" : 9.0,
					"id" : "obj-17",
					"linecount" : 4,
					"maxclass" : "comment",
					"numinlets" : 1,
					"numoutlets" : 0,
					"patching_rect" : [ 347.0, 385.0, 373.0, 47.0 ],
					"style" : "",
					"text" : "Since most modules output the Note Data List that is sent in to them, it is possible to \"daisy chain\" several modules together and have the same data sent to all these modules. In this case, you can include all the parameters that are relevant to the various modules. For example:"
				}

			}
, 			{
				"box" : 				{
					"fontname" : "Arial",
					"fontsize" : 9.0,
					"id" : "obj-18",
					"linecount" : 4,
					"maxclass" : "comment",
					"numinlets" : 1,
					"numoutlets" : 0,
					"patching_rect" : [ 347.0, 336.0, 357.0, 47.0 ],
					"style" : "",
					"text" : "will cause a module to play middle C (quarter sharp) with a velocity of 100 for a duration of 5000 milliseconds, with a fmC2MRatio of 1.25. The 3 pan values are ignored (since they have values of -1) so the module will not adjust the current panning locations."
				}

			}
, 			{
				"box" : 				{
					"bgfillcolor_angle" : 270.0,
					"bgfillcolor_autogradient" : 0,
					"bgfillcolor_color" : [ 0.290196, 0.309804, 0.301961, 1.0 ],
					"bgfillcolor_color1" : [ 1.0, 1.0, 1.0, 1.0 ],
					"bgfillcolor_color2" : [ 0.65098, 0.666667, 0.662745, 1.0 ],
					"bgfillcolor_proportion" : 0.39,
					"bgfillcolor_type" : "gradient",
					"fontname" : "Arial",
					"fontsize" : 9.0,
					"id" : "obj-19",
					"maxclass" : "message",
					"numinlets" : 2,
					"numoutlets" : 1,
					"outlettype" : [ "" ],
					"patching_rect" : [ 440.0, 323.0, 163.0, 19.0 ],
					"style" : "",
					"text" : "60 100 1 5000 0.5 -1 -1 -1 1.25",
					"textcolor" : [ 0.0, 0.0, 0.0, 1.0 ]
				}

			}
, 			{
				"box" : 				{
					"fontname" : "Arial",
					"fontsize" : 9.0,
					"id" : "obj-20",
					"linecount" : 2,
					"maxclass" : "comment",
					"numinlets" : 1,
					"numoutlets" : 0,
					"patching_rect" : [ 346.0, 299.0, 374.0, 27.0 ],
					"style" : "",
					"text" : "After the first 4 required parameters, a value of -1 causes the parameter to be ignored by the module. Therefore a messages such as:"
				}

			}
, 			{
				"box" : 				{
					"fontname" : "Arial",
					"fontsize" : 9.0,
					"id" : "obj-21",
					"maxclass" : "comment",
					"numinlets" : 1,
					"numoutlets" : 0,
					"patching_rect" : [ 505.0, 280.0, 212.0, 17.0 ],
					"style" : "",
					"text" : "Size of grain (in msec)"
				}

			}
, 			{
				"box" : 				{
					"fontname" : "Arial",
					"fontsize" : 9.0,
					"id" : "obj-22",
					"maxclass" : "comment",
					"numinlets" : 1,
					"numoutlets" : 0,
					"patching_rect" : [ 422.0, 280.0, 32.0, 17.0 ],
					"style" : "",
					"text" : "int"
				}

			}
, 			{
				"box" : 				{
					"fontname" : "Arial",
					"fontsize" : 9.0,
					"id" : "obj-23",
					"maxclass" : "comment",
					"numinlets" : 1,
					"numoutlets" : 0,
					"patching_rect" : [ 453.0, 280.0, 52.0, 17.0 ],
					"style" : "",
					"text" : "50 - 2000"
				}

			}
, 			{
				"box" : 				{
					"fontname" : "Arial",
					"fontsize" : 9.0,
					"id" : "obj-24",
					"maxclass" : "comment",
					"numinlets" : 1,
					"numoutlets" : 0,
					"patching_rect" : [ 354.0, 280.0, 69.0, 17.0 ],
					"style" : "",
					"text" : "grainSize"
				}

			}
, 			{
				"box" : 				{
					"fontname" : "Arial",
					"fontsize" : 9.0,
					"id" : "obj-25",
					"maxclass" : "comment",
					"numinlets" : 1,
					"numoutlets" : 0,
					"patching_rect" : [ 505.0, 268.0, 212.0, 17.0 ],
					"style" : "",
					"text" : "Duration multiplier for granulation modules"
				}

			}
, 			{
				"box" : 				{
					"fontname" : "Arial",
					"fontsize" : 9.0,
					"id" : "obj-26",
					"maxclass" : "comment",
					"numinlets" : 1,
					"numoutlets" : 0,
					"patching_rect" : [ 422.0, 268.0, 32.0, 17.0 ],
					"style" : "",
					"text" : "float"
				}

			}
, 			{
				"box" : 				{
					"fontname" : "Arial",
					"fontsize" : 9.0,
					"id" : "obj-27",
					"maxclass" : "comment",
					"numinlets" : 1,
					"numoutlets" : 0,
					"patching_rect" : [ 453.0, 268.0, 49.0, 17.0 ],
					"style" : "",
					"text" : "0.1 - 20."
				}

			}
, 			{
				"box" : 				{
					"fontname" : "Arial",
					"fontsize" : 9.0,
					"id" : "obj-28",
					"maxclass" : "comment",
					"numinlets" : 1,
					"numoutlets" : 0,
					"patching_rect" : [ 354.0, 268.0, 69.0, 17.0 ],
					"style" : "",
					"text" : "stretchFactor"
				}

			}
, 			{
				"box" : 				{
					"fontname" : "Arial",
					"fontsize" : 9.0,
					"id" : "obj-29",
					"maxclass" : "comment",
					"numinlets" : 1,
					"numoutlets" : 0,
					"patching_rect" : [ 505.0, 256.0, 212.0, 17.0 ],
					"style" : "",
					"text" : "Second Car. to Mod. ratio in FM module"
				}

			}
, 			{
				"box" : 				{
					"fontname" : "Arial",
					"fontsize" : 9.0,
					"id" : "obj-30",
					"maxclass" : "comment",
					"numinlets" : 1,
					"numoutlets" : 0,
					"patching_rect" : [ 422.0, 256.0, 32.0, 17.0 ],
					"style" : "",
					"text" : "float"
				}

			}
, 			{
				"box" : 				{
					"fontname" : "Arial",
					"fontsize" : 9.0,
					"id" : "obj-31",
					"maxclass" : "comment",
					"numinlets" : 1,
					"numoutlets" : 0,
					"patching_rect" : [ 453.0, 256.0, 49.0, 17.0 ],
					"style" : "",
					"text" : "0. - 20."
				}

			}
, 			{
				"box" : 				{
					"fontname" : "Arial",
					"fontsize" : 9.0,
					"id" : "obj-32",
					"maxclass" : "comment",
					"numinlets" : 1,
					"numoutlets" : 0,
					"patching_rect" : [ 354.0, 256.0, 66.0, 17.0 ],
					"style" : "",
					"text" : "fmC2M2Ratio"
				}

			}
, 			{
				"box" : 				{
					"fontname" : "Arial",
					"fontsize" : 9.0,
					"id" : "obj-33",
					"maxclass" : "comment",
					"numinlets" : 1,
					"numoutlets" : 0,
					"patching_rect" : [ 505.0, 244.0, 212.0, 17.0 ],
					"style" : "",
					"text" : "Car. to Mod. ratio in FM module"
				}

			}
, 			{
				"box" : 				{
					"fontname" : "Arial",
					"fontsize" : 9.0,
					"id" : "obj-34",
					"maxclass" : "comment",
					"numinlets" : 1,
					"numoutlets" : 0,
					"patching_rect" : [ 422.0, 244.0, 32.0, 17.0 ],
					"style" : "",
					"text" : "float"
				}

			}
, 			{
				"box" : 				{
					"fontname" : "Arial",
					"fontsize" : 9.0,
					"id" : "obj-35",
					"maxclass" : "comment",
					"numinlets" : 1,
					"numoutlets" : 0,
					"patching_rect" : [ 453.0, 244.0, 49.0, 17.0 ],
					"style" : "",
					"text" : "0. - 20."
				}

			}
, 			{
				"box" : 				{
					"fontname" : "Arial",
					"fontsize" : 9.0,
					"id" : "obj-36",
					"maxclass" : "comment",
					"numinlets" : 1,
					"numoutlets" : 0,
					"patching_rect" : [ 354.0, 244.0, 66.0, 17.0 ],
					"style" : "",
					"text" : "fmC2MRatio"
				}

			}
, 			{
				"box" : 				{
					"fontname" : "Arial",
					"fontsize" : 9.0,
					"id" : "obj-37",
					"maxclass" : "comment",
					"numinlets" : 1,
					"numoutlets" : 0,
					"patching_rect" : [ 505.0, 232.0, 212.0, 17.0 ],
					"style" : "",
					"text" : "Position Bottom = 0., Top - 1."
				}

			}
, 			{
				"box" : 				{
					"fontname" : "Arial",
					"fontsize" : 9.0,
					"id" : "obj-38",
					"maxclass" : "comment",
					"numinlets" : 1,
					"numoutlets" : 0,
					"patching_rect" : [ 422.0, 232.0, 32.0, 17.0 ],
					"style" : "",
					"text" : "float"
				}

			}
, 			{
				"box" : 				{
					"fontname" : "Arial",
					"fontsize" : 9.0,
					"id" : "obj-39",
					"maxclass" : "comment",
					"numinlets" : 1,
					"numoutlets" : 0,
					"patching_rect" : [ 453.0, 232.0, 49.0, 17.0 ],
					"style" : "",
					"text" : "0. - 1."
				}

			}
, 			{
				"box" : 				{
					"fontname" : "Arial",
					"fontsize" : 9.0,
					"id" : "obj-40",
					"maxclass" : "comment",
					"numinlets" : 1,
					"numoutlets" : 0,
					"patching_rect" : [ 354.0, 232.0, 66.0, 17.0 ],
					"style" : "",
					"text" : "panB-T"
				}

			}
, 			{
				"box" : 				{
					"fontname" : "Arial",
					"fontsize" : 9.0,
					"id" : "obj-41",
					"maxclass" : "comment",
					"numinlets" : 1,
					"numoutlets" : 0,
					"patching_rect" : [ 505.0, 220.0, 212.0, 17.0 ],
					"style" : "",
					"text" : "Position Front = 0., Back - 1."
				}

			}
, 			{
				"box" : 				{
					"fontname" : "Arial",
					"fontsize" : 9.0,
					"id" : "obj-42",
					"maxclass" : "comment",
					"numinlets" : 1,
					"numoutlets" : 0,
					"patching_rect" : [ 422.0, 220.0, 32.0, 17.0 ],
					"style" : "",
					"text" : "float"
				}

			}
, 			{
				"box" : 				{
					"fontname" : "Arial",
					"fontsize" : 9.0,
					"id" : "obj-43",
					"maxclass" : "comment",
					"numinlets" : 1,
					"numoutlets" : 0,
					"patching_rect" : [ 453.0, 220.0, 49.0, 17.0 ],
					"style" : "",
					"text" : "0. - 1."
				}

			}
, 			{
				"box" : 				{
					"fontname" : "Arial",
					"fontsize" : 9.0,
					"id" : "obj-44",
					"maxclass" : "comment",
					"numinlets" : 1,
					"numoutlets" : 0,
					"patching_rect" : [ 354.0, 220.0, 66.0, 17.0 ],
					"style" : "",
					"text" : "panF-B"
				}

			}
, 			{
				"box" : 				{
					"fontname" : "Arial",
					"fontsize" : 9.0,
					"id" : "obj-45",
					"maxclass" : "comment",
					"numinlets" : 1,
					"numoutlets" : 0,
					"patching_rect" : [ 505.0, 208.0, 212.0, 17.0 ],
					"style" : "",
					"text" : "Position Left = 0., Right - 1."
				}

			}
, 			{
				"box" : 				{
					"fontname" : "Arial",
					"fontsize" : 9.0,
					"id" : "obj-46",
					"maxclass" : "comment",
					"numinlets" : 1,
					"numoutlets" : 0,
					"patching_rect" : [ 422.0, 208.0, 32.0, 17.0 ],
					"style" : "",
					"text" : "float"
				}

			}
, 			{
				"box" : 				{
					"fontname" : "Arial",
					"fontsize" : 9.0,
					"id" : "obj-47",
					"maxclass" : "comment",
					"numinlets" : 1,
					"numoutlets" : 0,
					"patching_rect" : [ 453.0, 208.0, 49.0, 17.0 ],
					"style" : "",
					"text" : "0. - 1."
				}

			}
, 			{
				"box" : 				{
					"fontname" : "Arial",
					"fontsize" : 9.0,
					"id" : "obj-48",
					"maxclass" : "comment",
					"numinlets" : 1,
					"numoutlets" : 0,
					"patching_rect" : [ 354.0, 208.0, 66.0, 17.0 ],
					"style" : "",
					"text" : "panL-R"
				}

			}
, 			{
				"box" : 				{
					"fontname" : "Arial",
					"fontsize" : 9.0,
					"id" : "obj-49",
					"maxclass" : "comment",
					"numinlets" : 1,
					"numoutlets" : 0,
					"patching_rect" : [ 505.0, 196.0, 212.0, 17.0 ],
					"style" : "",
					"text" : "Fraction of a semitone (0.5 = 1/4 tone sharp)"
				}

			}
, 			{
				"box" : 				{
					"fontname" : "Arial",
					"fontsize" : 9.0,
					"id" : "obj-50",
					"maxclass" : "comment",
					"numinlets" : 1,
					"numoutlets" : 0,
					"patching_rect" : [ 422.0, 196.0, 32.0, 17.0 ],
					"style" : "",
					"text" : "float"
				}

			}
, 			{
				"box" : 				{
					"fontname" : "Arial",
					"fontsize" : 9.0,
					"id" : "obj-51",
					"maxclass" : "comment",
					"numinlets" : 1,
					"numoutlets" : 0,
					"patching_rect" : [ 453.0, 196.0, 49.0, 17.0 ],
					"style" : "",
					"text" : "0. - 1."
				}

			}
, 			{
				"box" : 				{
					"fontname" : "Arial",
					"fontsize" : 9.0,
					"id" : "obj-52",
					"maxclass" : "comment",
					"numinlets" : 1,
					"numoutlets" : 0,
					"patching_rect" : [ 354.0, 196.0, 66.0, 17.0 ],
					"style" : "",
					"text" : "pitchFraction"
				}

			}
, 			{
				"box" : 				{
					"fontname" : "Arial",
					"fontsize" : 9.0,
					"id" : "obj-53",
					"maxclass" : "comment",
					"numinlets" : 1,
					"numoutlets" : 0,
					"patching_rect" : [ 505.0, 184.0, 212.0, 17.0 ],
					"style" : "",
					"text" : "Duration of the note in milliseconds"
				}

			}
, 			{
				"box" : 				{
					"fontname" : "Arial",
					"fontsize" : 9.0,
					"id" : "obj-54",
					"maxclass" : "comment",
					"numinlets" : 1,
					"numoutlets" : 0,
					"patching_rect" : [ 422.0, 184.0, 32.0, 17.0 ],
					"style" : "",
					"text" : "int"
				}

			}
, 			{
				"box" : 				{
					"fontname" : "Arial",
					"fontsize" : 9.0,
					"id" : "obj-55",
					"maxclass" : "comment",
					"numinlets" : 1,
					"numoutlets" : 0,
					"patching_rect" : [ 453.0, 184.0, 49.0, 17.0 ],
					"style" : "",
					"text" : "any"
				}

			}
, 			{
				"box" : 				{
					"fontname" : "Arial",
					"fontsize" : 9.0,
					"id" : "obj-56",
					"maxclass" : "comment",
					"numinlets" : 1,
					"numoutlets" : 0,
					"patching_rect" : [ 354.0, 184.0, 66.0, 17.0 ],
					"style" : "",
					"text" : "duration"
				}

			}
, 			{
				"box" : 				{
					"fontname" : "Arial",
					"fontsize" : 9.0,
					"id" : "obj-57",
					"maxclass" : "comment",
					"numinlets" : 1,
					"numoutlets" : 0,
					"patching_rect" : [ 505.0, 172.0, 212.0, 17.0 ],
					"style" : "",
					"text" : "Channel data is ignored by most modules"
				}

			}
, 			{
				"box" : 				{
					"fontname" : "Arial",
					"fontsize" : 9.0,
					"id" : "obj-58",
					"maxclass" : "comment",
					"numinlets" : 1,
					"numoutlets" : 0,
					"patching_rect" : [ 422.0, 172.0, 32.0, 17.0 ],
					"style" : "",
					"text" : "int"
				}

			}
, 			{
				"box" : 				{
					"fontname" : "Arial",
					"fontsize" : 9.0,
					"id" : "obj-59",
					"maxclass" : "comment",
					"numinlets" : 1,
					"numoutlets" : 0,
					"patching_rect" : [ 453.0, 172.0, 49.0, 17.0 ],
					"style" : "",
					"text" : "1 - 16"
				}

			}
, 			{
				"box" : 				{
					"fontname" : "Arial",
					"fontsize" : 9.0,
					"id" : "obj-60",
					"maxclass" : "comment",
					"numinlets" : 1,
					"numoutlets" : 0,
					"patching_rect" : [ 354.0, 172.0, 66.0, 17.0 ],
					"style" : "",
					"text" : "midiChannel"
				}

			}
, 			{
				"box" : 				{
					"fontname" : "Arial",
					"fontsize" : 9.0,
					"id" : "obj-61",
					"maxclass" : "comment",
					"numinlets" : 1,
					"numoutlets" : 0,
					"patching_rect" : [ 505.0, 160.0, 212.0, 17.0 ],
					"style" : "",
					"text" : "MIDI velocity value"
				}

			}
, 			{
				"box" : 				{
					"fontname" : "Arial",
					"fontsize" : 9.0,
					"id" : "obj-62",
					"maxclass" : "comment",
					"numinlets" : 1,
					"numoutlets" : 0,
					"patching_rect" : [ 422.0, 160.0, 32.0, 17.0 ],
					"style" : "",
					"text" : "int"
				}

			}
, 			{
				"box" : 				{
					"fontname" : "Arial",
					"fontsize" : 9.0,
					"id" : "obj-63",
					"maxclass" : "comment",
					"numinlets" : 1,
					"numoutlets" : 0,
					"patching_rect" : [ 453.0, 160.0, 49.0, 17.0 ],
					"style" : "",
					"text" : "0 - 127"
				}

			}
, 			{
				"box" : 				{
					"fontname" : "Arial",
					"fontsize" : 9.0,
					"id" : "obj-64",
					"maxclass" : "comment",
					"numinlets" : 1,
					"numoutlets" : 0,
					"patching_rect" : [ 354.0, 160.0, 66.0, 17.0 ],
					"style" : "",
					"text" : "midiVelocity"
				}

			}
, 			{
				"box" : 				{
					"fontname" : "Arial",
					"fontsize" : 9.0,
					"id" : "obj-65",
					"maxclass" : "comment",
					"numinlets" : 1,
					"numoutlets" : 0,
					"patching_rect" : [ 505.0, 149.0, 212.0, 17.0 ],
					"style" : "",
					"text" : "MIDI pitch value (60 = middle C)"
				}

			}
, 			{
				"box" : 				{
					"fontname" : "Arial",
					"fontsize" : 10.0,
					"id" : "obj-66",
					"maxclass" : "comment",
					"numinlets" : 1,
					"numoutlets" : 0,
					"patching_rect" : [ 505.0, 133.0, 212.0, 18.0 ],
					"style" : "",
					"text" : "DESCRIPTION"
				}

			}
, 			{
				"box" : 				{
					"fontname" : "Arial",
					"fontsize" : 9.0,
					"id" : "obj-67",
					"maxclass" : "comment",
					"numinlets" : 1,
					"numoutlets" : 0,
					"patching_rect" : [ 422.0, 149.0, 32.0, 17.0 ],
					"style" : "",
					"text" : "int"
				}

			}
, 			{
				"box" : 				{
					"fontname" : "Arial",
					"fontsize" : 9.0,
					"id" : "obj-68",
					"maxclass" : "comment",
					"numinlets" : 1,
					"numoutlets" : 0,
					"patching_rect" : [ 453.0, 149.0, 49.0, 17.0 ],
					"style" : "",
					"text" : "0 - 127"
				}

			}
, 			{
				"box" : 				{
					"fontname" : "Arial",
					"fontsize" : 9.0,
					"id" : "obj-69",
					"maxclass" : "comment",
					"numinlets" : 1,
					"numoutlets" : 0,
					"patching_rect" : [ 354.0, 149.0, 66.0, 17.0 ],
					"style" : "",
					"text" : "midiPitch"
				}

			}
, 			{
				"box" : 				{
					"fontname" : "Arial",
					"fontsize" : 10.0,
					"id" : "obj-70",
					"maxclass" : "comment",
					"numinlets" : 1,
					"numoutlets" : 0,
					"patching_rect" : [ 422.0, 133.0, 35.0, 18.0 ],
					"style" : "",
					"text" : "TYPE"
				}

			}
, 			{
				"box" : 				{
					"fontname" : "Arial",
					"fontsize" : 10.0,
					"id" : "obj-71",
					"maxclass" : "comment",
					"numinlets" : 1,
					"numoutlets" : 0,
					"patching_rect" : [ 453.0, 133.0, 49.0, 18.0 ],
					"style" : "",
					"text" : "RANGE"
				}

			}
, 			{
				"box" : 				{
					"fontname" : "Arial",
					"fontsize" : 10.0,
					"id" : "obj-72",
					"maxclass" : "comment",
					"numinlets" : 1,
					"numoutlets" : 0,
					"patching_rect" : [ 354.0, 133.0, 60.0, 18.0 ],
					"style" : "",
					"text" : "NAME"
				}

			}
, 			{
				"box" : 				{
					"fontname" : "Futura Medium",
					"fontsize" : 14.0,
					"id" : "obj-73",
					"maxclass" : "comment",
					"numinlets" : 1,
					"numoutlets" : 0,
					"patching_rect" : [ 347.0, 11.0, 316.0, 25.0 ],
					"style" : "",
					"text" : "Note Data List"
				}

			}
, 			{
				"box" : 				{
					"fontname" : "Arial",
					"fontsize" : 9.0,
					"id" : "obj-74",
					"linecount" : 8,
					"maxclass" : "comment",
					"numinlets" : 1,
					"numoutlets" : 0,
					"patching_rect" : [ 347.0, 31.0, 351.0, 87.0 ],
					"style" : "",
					"text" : "The Note Data List is the data structure used by most UBC Toolbox objects. This data structure consists of a list with up to 16 parameters - with each parameter having a fixed meaning. While it is possible to include all 16 parameters, often only the first 4 elements in the list are needed in order for the modules to function. Absent parameters use the modules current or default values (i.e. if you do not send parameter 5, then the previous value that the module has for parameter 5 will be used.) If you send more parameters than the module needs to operate, the extra parameters are ignored."
				}

			}
, 			{
				"box" : 				{
					"angle" : 0.0,
					"bgcolor" : [ 1.0, 1.0, 0.756863, 1.0 ],
					"border" : 1,
					"id" : "obj-75",
					"maxclass" : "panel",
					"mode" : 0,
					"numinlets" : 1,
					"numoutlets" : 0,
					"patching_rect" : [ 347.0, 131.0, 373.0, 165.0 ],
					"proportion" : 0.39,
					"rounded" : 0,
					"style" : ""
				}

			}
, 			{
				"box" : 				{
					"angle" : 0.0,
					"bgcolor" : [ 1.0, 1.0, 0.862745, 1.0 ],
					"border" : 1,
					"id" : "obj-76",
					"maxclass" : "panel",
					"mode" : 0,
					"numinlets" : 1,
					"numoutlets" : 0,
					"patching_rect" : [ 340.0, 8.0, 386.0, 495.0 ],
					"proportion" : 0.39,
					"rounded" : 0,
					"style" : ""
				}

			}
, 			{
				"box" : 				{
					"fontname" : "Arial",
					"fontsize" : 9.0,
					"id" : "obj-77",
					"linecount" : 2,
					"maxclass" : "comment",
					"numinlets" : 1,
					"numoutlets" : 0,
					"patching_rect" : [ 100.0, 138.0, 231.0, 27.0 ],
					"style" : "",
					"text" : "positioned 1/4 of the way from left-right and centred between the front and back"
				}

			}
, 			{
				"box" : 				{
					"angle" : 0.0,
					"bgcolor" : [ 1.0, 1.0, 0.862745, 1.0 ],
					"border" : 1,
					"id" : "obj-78",
					"maxclass" : "panel",
					"mode" : 0,
					"numinlets" : 1,
					"numoutlets" : 0,
					"patching_rect" : [ 6.0, 8.0, 329.0, 159.0 ],
					"proportion" : 0.39,
					"rounded" : 0,
					"style" : ""
				}

			}
, 			{
				"box" : 				{
					"fontname" : "Arial",
					"fontsize" : 9.0,
					"id" : "obj-79",
					"linecount" : 3,
					"maxclass" : "comment",
					"numinlets" : 1,
					"numoutlets" : 0,
					"patching_rect" : [ 11.0, 380.0, 318.0, 37.0 ],
					"style" : "",
					"text" : "Since most modules output the pan-4 or pan-8 data (through the second outlet) whenever they receive it, this data can be passed on the the pan4 or multiPan modules."
				}

			}
, 			{
				"box" : 				{
					"angle" : 0.0,
					"bgcolor" : [ 1.0, 1.0, 0.862745, 1.0 ],
					"border" : 1,
					"id" : "obj-80",
					"maxclass" : "panel",
					"mode" : 0,
					"numinlets" : 1,
					"numoutlets" : 0,
					"patching_rect" : [ 6.0, 170.0, 329.0, 256.0 ],
					"proportion" : 0.39,
					"rounded" : 0,
					"style" : ""
				}

			}
 ],
		"lines" : [ 			{
				"patchline" : 				{
					"destination" : [ "obj-6", 0 ],
					"disabled" : 0,
					"hidden" : 1,
					"source" : [ "obj-4", 0 ]
				}

			}
, 			{
				"patchline" : 				{
					"destination" : [ "obj-6", 0 ],
					"disabled" : 0,
					"hidden" : 1,
					"source" : [ "obj-5", 0 ]
				}

			}
, 			{
				"patchline" : 				{
					"destination" : [ "obj-6", 0 ],
					"disabled" : 0,
					"hidden" : 1,
					"source" : [ "obj-7", 0 ]
				}

			}
 ],
		"dependency_cache" : [  ],
		"embedsnapshot" : 0
	}

}
